<svg xmlns="http://www.w3.org/2000/svg" xmlns:xlink="http://www.w3.org/1999/xlink" width="986.666" height="736.571" viewBox="0 0 986.666 736.571"><defs><style>.a{fill:none;}.b{fill:#101013;}.c{fill:#2e160e;}.ct,.cu,.d{fill:#191919;}.br,.d{mix-blend-mode:screen;}.bd,.bh,.br,.d{isolation:isolate;}.cr,.e{fill:#ffc545;}.f{fill:#e5e5e5;}.g{fill:url(#c);}.h{fill:#442819;}.i{fill:url(#d);}.j{fill:#6c4734;}.k{fill:#26201e;}.l{fill:#251e25;}.m{fill:#a6a5b1;}.n{fill:url(#e);}.o{fill:#eee;}.p{fill:url(#f);}.q{fill:#d5d5d5;}.r{fill:url(#g);}.s{fill:url(#h);}.t{fill:url(#i);}.u{fill:url(#j);}.v{fill:url(#k);}.w{fill:url(#l);}.x{fill:url(#o);}.y{fill:url(#s);}.z{fill:url(#aa);}.aa{fill:#ef4c6e;}.ab{fill:#d82f52;}.ac{fill:url(#ag);}.ad{fill:url(#ah);}.ae{fill:#332335;}.af{fill:#473749;}.ag{fill:#241826;}.ah,.ax{fill:#f9b188;}.ai{fill:url(#ai);}.aj{fill:#8e5645;}.ak{fill:url(#aj);}.al{fill:#ffcd9e;}.am{opacity:0.7;fill:url(#ak);}.an{fill:#faba90;}.ao{fill:url(#al);}.ap{fill:url(#ao);}.aq{fill:url(#ap);}.ar{fill:url(#aq);}.as{fill:url(#ar);}.at{fill:url(#as);}.au{fill:url(#at);}.av{fill:url(#au);}.aw{fill:#ffe9c9;}.ax{opacity:0.68;}.ay{fill:url(#av);}.az{fill:#231f20;}.ba,.cs{fill:#fff;}.bb{clip-path:url(#aw);}.bc{fill:#4d301f;}.bd,.bh{mix-blend-mode:multiply;}.bd{fill:url(#ax);}.be{fill:url(#ay);}.bf{clip-path:url(#az);}.bg{fill:url(#ba);}.bh{fill:url(#bb);}.bi{fill:url(#bc);}.bj{fill:url(#bd);}.bk{fill:url(#be);}.bl{fill:url(#bf);}.bm{fill:#e08d74;opacity:0.27;}.bn{fill:#35211a;}.bo{fill:url(#bg);}.bp{fill:#a5a5b1;}.bq{fill:#f88a8c;}.br{opacity:0.4;fill:url(#bh);}.bs{fill:#878791;}.bt{fill:url(#bi);}.bu{fill:url(#bj);}.bv{fill:url(#bk);}.bw{fill:url(#bl);}.bx{fill:url(#bm);}.by{fill:url(#bn);}.bz{fill:url(#bo);}.ca{fill:url(#bp);}.cb{fill:url(#bq);}.cc{fill:url(#br);}.cd{fill:url(#bs);}.ce{fill:#91909b;}.cf{fill:url(#bt);}.cg{fill:url(#bu);}.ch{fill:url(#bv);}.ci{fill:url(#bw);}.cj{fill:url(#bx);}.ck{fill:url(#by);}.cl{fill:url(#bz);}.cm{fill:url(#ca);}.cn{fill:url(#cb);}.co{fill:url(#cc);}.cp{fill:#9a99a8;}.cq{fill:#e63e3e;opacity:0.15;}.cr{opacity:0.23;}.cs{opacity:0.85;}.ct{font-size:18px;font-family:Poppins-Medium, Poppins;font-weight:500;}.cv{fill:#686868;}.cw{fill:#ffba31;}.cx{fill:#293b54;}.cy{fill:#f2f2f2;}.cz{filter:url(#a);}</style><filter id="a" x="0" y="269" width="416.535" height="369.414" filterUnits="userSpaceOnUse"><feOffset input="SourceAlpha"/><feGaussianBlur stdDeviation="7" result="b"/><feFlood flood-color="#ffba31" flood-opacity="0.2"/><feComposite operator="in" in2="b"/><feComposite in="SourceGraphic"/></filter><linearGradient id="c" x1="-291.022" y1="-9.266" x2="-292.062" y2="-9.216" gradientUnits="objectBoundingBox"><stop offset="0" stop-color="#101013"/><stop offset="1" stop-color="#191921"/></linearGradient><linearGradient id="d" x1="-2.099" y1="0.591" x2="-0.846" y2="0.505" gradientUnits="objectBoundingBox"><stop offset="0" stop-color="#1b1b24"/><stop offset="1" stop-color="#292733"/></linearGradient><linearGradient id="e" x1="0.492" y1="0.503" x2="0.486" y2="0.812" gradientUnits="objectBoundingBox"><stop offset="0" stop-color="#f9b188"/><stop offset="1" stop-color="#fccda1"/></linearGradient><linearGradient id="f" x1="0.5" y1="0.982" x2="0.5" y2="1.103" gradientUnits="objectBoundingBox"><stop offset="0" stop-color="#9a99a8"/><stop offset="1" stop-color="#9a99a8"/></linearGradient><radialGradient id="g" cx="0.905" cy="1.321" r="1.259" gradientTransform="matrix(1.273, -0.086, 0.109, 0.996, -0.306, 0.061)" gradientUnits="objectBoundingBox"><stop offset="0" stop-color="#fff"/><stop offset="1" stop-color="#fff" stop-opacity="0"/></radialGradient><linearGradient id="h" x1="-69.15" y1="0.328" x2="-67.929" y2="0.566" gradientUnits="objectBoundingBox"><stop offset="0" stop-color="#a6a5b1"/><stop offset="0.847" stop-color="#f4ecf4"/></linearGradient><linearGradient id="i" x1="0.878" y1="0.878" x2="0.261" y2="0.261" gradientUnits="objectBoundingBox"><stop offset="0" stop-color="#9a99a8"/><stop offset="1" stop-color="#9a99a8" stop-opacity="0"/></linearGradient><linearGradient id="j" x1="0.855" y1="1.215" x2="0.299" y2="0.094" gradientUnits="objectBoundingBox"><stop offset="0" stop-color="#2c393e"/><stop offset="1" stop-color="#38474d"/></linearGradient><linearGradient id="k" x1="0.606" y1="0.735" x2="0.375" y2="0.123" gradientUnits="objectBoundingBox"><stop offset="0" stop-color="#1f282b"/><stop offset="1" stop-color="#2a363b"/></linearGradient><radialGradient id="l" cx="0.5" cy="0.5" r="0.5" gradientUnits="objectBoundingBox"><stop offset="0" stop-color="#465a61"/><stop offset="1" stop-color="#465a61" stop-opacity="0"/></radialGradient><linearGradient id="o" x1="0.606" y1="0.735" x2="0.375" y2="0.123" xlink:href="#k"/><linearGradient id="s" x1="0.606" y1="0.735" x2="0.375" y2="0.123" xlink:href="#k"/><linearGradient id="aa" x1="0.606" y1="0.735" x2="0.375" y2="0.123" xlink:href="#k"/><linearGradient id="ag" x1="1.116" y1="0.573" x2="-0.339" y2="-0.025" gradientUnits="objectBoundingBox"><stop offset="0" stop-color="#8d2b1e"/><stop offset="1" stop-color="#8d2b1e" stop-opacity="0"/></linearGradient><linearGradient id="ah" x1="0.592" y1="0.556" x2="-1.029" y2="0.191" xlink:href="#ag"/><linearGradient id="ai" x1="-12.777" y1="2.735" x2="-11.541" y2="2.874" gradientUnits="objectBoundingBox"><stop offset="0" stop-color="#e08d74"/><stop offset="1" stop-color="#e08d74" stop-opacity="0"/></linearGradient><linearGradient id="aj" x1="-164.473" y1="-1.853" x2="-163.236" y2="-1.714" xlink:href="#ai"/><radialGradient id="ak" cx="0.5" cy="0.5" r="0.5" xlink:href="#ai"/><linearGradient id="al" x1="0.5" y1="2.055" x2="0.5" y2="-0.491" xlink:href="#ai"/><linearGradient id="ao" x1="0.117" y1="0.49" x2="1.428" y2="0.525" xlink:href="#ai"/><linearGradient id="ap" x1="0.839" y1="0.46" x2="-0.128" y2="0.576" xlink:href="#ai"/><linearGradient id="aq" x1="0.5" y1="0.772" x2="0.5" y2="0.129" gradientUnits="objectBoundingBox"><stop offset="0" stop-color="#35211a"/><stop offset="1" stop-color="#503329"/></linearGradient><linearGradient id="ar" x1="-0.017" y1="0.842" x2="0.605" y2="0.166" xlink:href="#aq"/><linearGradient id="as" x1="0.063" y1="0.959" x2="0.832" y2="0.196" xlink:href="#aq"/><linearGradient id="at" x1="0.954" y1="0.961" x2="0.124" y2="0.198" xlink:href="#aq"/><linearGradient id="au" x1="0.5" y1="1.356" x2="0.5" y2="1.099" xlink:href="#e"/><linearGradient id="av" x1="0.5" y1="0.041" x2="0.5" y2="1.608" gradientUnits="objectBoundingBox"><stop offset="0" stop-color="#8e5645"/><stop offset="0.772" stop-color="#e08d74"/><stop offset="1" stop-color="#e08d74" stop-opacity="0"/></linearGradient><clipPath id="aw"><path class="a" d="M424.249,393.467c1.907,2.039,4.869,5,9.4,5.26,4.816.274,10.214-2.276,13.693-1.748-1.256-3.742-3.292-8.9-9.212-9.693S427.56,390.058,424.249,393.467Z" transform="translate(-424.249 -387.174)"/></clipPath><linearGradient id="ax" x1="0.508" y1="0.525" x2="0.496" y2="1.003" gradientUnits="objectBoundingBox"><stop offset="0" stop-color="#a5a5b1"/><stop offset="1" stop-color="#a6a5b1" stop-opacity="0"/></linearGradient><linearGradient id="ay" x1="0.437" y1="1.784" x2="0.537" y2="-0.537" xlink:href="#ai"/><clipPath id="az"><path class="a" d="M463.272,393.467c-1.907,2.039-4.869,5-9.405,5.26-4.816.274-10.214-2.276-13.693-1.748,1.258-3.742,3.292-8.9,9.212-9.693S459.958,390.058,463.272,393.467Z" transform="translate(-440.174 -387.174)"/></clipPath><radialGradient id="ba" cx="0.486" cy="0.743" r="0.574" gradientTransform="matrix(-1, 0, 0, 1, -203.345, 0)" gradientUnits="objectBoundingBox"><stop offset="0.62" stop-color="#af7145"/><stop offset="1" stop-color="#4d301f"/></radialGradient><linearGradient id="bb" x1="-44.747" y1="0.525" x2="-44.76" y2="1.003" xlink:href="#ax"/><linearGradient id="bc" x1="0.533" y1="1.631" x2="0.476" y2="-0.636" xlink:href="#ai"/><linearGradient id="bd" x1="-1.169" y1="14.287" x2="-0.99" y2="13.399" xlink:href="#aq"/><linearGradient id="be" x1="-58.231" y1="-11.152" x2="-58.02" y2="-12.006" xlink:href="#aq"/><radialGradient id="bf" cx="0.5" cy="0.5" r="0.708" gradientTransform="translate(0.212) scale(0.576 1)" gradientUnits="objectBoundingBox"><stop offset="0" stop-color="#3b1311"/><stop offset="1" stop-color="#240e0d"/></radialGradient><radialGradient id="bg" cx="0.914" cy="1.089" r="0.729" gradientTransform="translate(0.121) scale(0.758 1)" gradientUnits="objectBoundingBox"><stop offset="0" stop-color="#fff"/><stop offset="1" stop-color="#a6a5b1"/></radialGradient><radialGradient id="bh" cx="0.5" cy="0.5" r="5.238" gradientTransform="translate(0.437) scale(0.127 1)" gradientUnits="objectBoundingBox"><stop offset="0" stop-color="#fff"/><stop offset="1"/></radialGradient><linearGradient id="bi" x1="0.569" y1="0.725" x2="0.495" y2="0.4" xlink:href="#e"/><linearGradient id="bj" x1="0.442" y1="0.443" x2="1.04" y2="0.92" xlink:href="#ai"/><linearGradient id="bk" x1="0.565" y1="0.738" x2="0.49" y2="0.407" xlink:href="#e"/><linearGradient id="bl" x1="0.467" y1="0.441" x2="1.102" y2="0.97" xlink:href="#ai"/><linearGradient id="bm" x1="0.572" y1="0.736" x2="0.497" y2="0.405" xlink:href="#e"/><linearGradient id="bn" x1="0.454" y1="0.436" x2="1.069" y2="0.946" xlink:href="#ai"/><linearGradient id="bo" x1="0.535" y1="0.858" x2="0.48" y2="0.285" xlink:href="#e"/><linearGradient id="bp" x1="0.427" y1="0.42" x2="1.054" y2="0.937" xlink:href="#ai"/><linearGradient id="bq" x1="0.498" y1="0.71" x2="0.539" y2="0.201" xlink:href="#e"/><linearGradient id="br" x1="0.374" y1="0.443" x2="1.017" y2="0.749" xlink:href="#ai"/><linearGradient id="bs" x1="0.548" y1="0.577" x2="0.328" y2="-0.25" xlink:href="#ai"/><linearGradient id="bt" x1="-0.045" y1="0.018" x2="0.757" y2="0.379" xlink:href="#e"/><linearGradient id="bu" x1="0.075" y1="0.05" x2="0.093" y2="0.931" xlink:href="#ai"/><linearGradient id="bv" x1="-0.831" y1="-0.302" x2="-0.507" y2="-0.045" xlink:href="#e"/><linearGradient id="bw" x1="-0.466" y1="-0.034" x2="-0.438" y2="0.838" xlink:href="#ai"/><linearGradient id="bx" x1="-0.784" y1="-0.316" x2="-0.678" y2="0.009" xlink:href="#e"/><linearGradient id="by" x1="-0.632" y1="0.026" x2="-0.594" y2="0.886" xlink:href="#ai"/><linearGradient id="bz" x1="-0.996" y1="-0.322" x2="-0.852" y2="-0.001" xlink:href="#e"/><linearGradient id="ca" x1="-0.906" y1="-0.022" x2="-0.867" y2="0.835" xlink:href="#ai"/><linearGradient id="cb" x1="-1.012" y1="-0.477" x2="-1.012" y2="0.274" xlink:href="#e"/><linearGradient id="cc" x1="-1.023" y1="-0.093" x2="-0.987" y2="0.755" xlink:href="#ai"/></defs><g transform="translate(-36 -1622)"><path class="b" d="M430.268,574.169l3.571,2.208.1,10.185-6.61-6.908Z" transform="translate(-44.963 1707.858)"/><path class="c" d="M440.277,573.4c-1.488,3.577-8.273,19.275-7.727,26.952.85,11.99,7.1,15.144,8.357,12.563.839-8.049,4.766-19.9,8.821-27.517C452.356,580.607,447.77,573.529,440.277,573.4Z" transform="translate(-35.634 1706.477)"/><path class="d" d="M443.6,622.553c-10.286-11.956-14.123-25.847-11.981-41.537C432.765,597.849,436.63,611.83,443.6,622.553Z" transform="translate(-38.288 1720.16)"/><g class="cz" transform="matrix(1, 0, 0, 1, 36, 1622)"><path class="e" d="M274.779,0a16.037,16.037,0,0,1,13.875,7.995l85.589,147.67a16.037,16.037,0,0,1,0,16.083l-85.589,147.67a16.037,16.037,0,0,1-13.875,7.995H103.495a16.037,16.037,0,0,1-13.875-7.995L4.032,171.748a16.037,16.037,0,0,1,0-16.083L89.62,7.995A16.037,16.037,0,0,1,103.495,0Z" transform="translate(19.13 290)"/></g><g transform="translate(411.358 2273.802)"><path class="f" d="M458.687,571.228c1.082,4.069,1.356,9.629,2.962,17.049.582,2.7,2.744,3.208,2.71,7.3-.022,2.716-1.79,5.546-1.742,8.217l-19.552-.361c.406-11.62,1-16.764-2.134-31.03Z" transform="translate(-431.044 -571.228)"/><g transform="translate(0 18.386)"><g transform="translate(2 3)"><path class="g" d="M451.6,587.316l2.748,2.763-.87,5.373-5.219.2Z" transform="translate(-417.88 -560.709)"/><path class="h" d="M475.868,604.779A25.928,25.928,0,0,1,473,612.534l-1-6a33.385,33.385,0,0,0-1.015,10.921,19.2,19.2,0,0,0,.193,2.151v.056c.277,2.067.78,4.243.917,6.337a10.861,10.861,0,0,1-.21,3.695c-2.346,9.481-9.679,11.416-15.972,11.492a16.085,16.085,0,0,1-2.408-.252c-4.6-.895-10.035-4.075-11.562-5.677-3.345-3.513-5.5-8.242-4.131-13.1,1.127-3.985,2.76-7.836,4.2-11.685a99.829,99.829,0,0,0,3.566-10.449c.99-3.927.94-8.038,1.451-12.043a9.143,9.143,0,0,1,3.924-6.172,11.831,11.831,0,0,1,1.919-1.116c3.255-1.437,7.66-.26,10.454,1.835.506.383,1.018.881,1.555,1.379,1.384,1.3,2.8,2.6,4.052,2.05,1.474-.691,1.054-2.923.786-4.262-.176-.892-1.589-4.259-.073-3.859.758.187,2.24,5.009,2.559,5.842a2.78,2.78,0,0,1,.146.447,40.754,40.754,0,0,1,1.614,6.3c.271,1.563.487,3.155.7,4.746C475.063,598.357,475.353,601.6,475.868,604.779Z" transform="translate(-437.396 -577.802)"/><path class="d" d="M439.324,592.636c-3.3,9.817,2.014,16.478,12.44,18.179C442.89,607.414,439.755,601.818,439.324,592.636Z" transform="translate(-435.682 -551.15)"/><path class="c" d="M458.583,582.457c-.822,10.891-1.359,19.706-2.6,30.35-.685,5.882-6.256,7.739-9.926,7.224a5.627,5.627,0,0,1-5.112-6.458c.738-5.965,3.124-21.6,3.711-33.214a11.831,11.831,0,0,1,1.919-1.116c3.255-1.437,7.66-.26,10.454,1.835C457.534,581.461,458.046,581.959,458.583,582.457Z" transform="translate(-431.101 -576.352)"/><path class="i" d="M454.856,593.62a25.928,25.928,0,0,1-2.872,7.755l-1-6a33.385,33.385,0,0,0-1.015,10.921,19.2,19.2,0,0,0,.193,2.151,37.141,37.141,0,0,1-1.074-7.876c.045-3.412,1.983-9.534,3.18-12.513.568-1.46,1.054-2.948,1.376-4.044C454.05,587.2,454.341,590.437,454.856,593.62Z" transform="translate(-416.383 -566.643)"/><path class="j" d="M465.519,600.717a25.928,25.928,0,0,1-2.872,7.755l-1-6a33.385,33.385,0,0,0-1.015,10.921c.131,3.941,1.835,8.4.9,12.239-2.346,9.481-9.679,11.416-15.972,11.492a12.613,12.613,0,0,1-2.408-.252c15.827-2.735,16.864-16.369,16.3-19.493-.657-3.574-2.531-12.893-.825-17.387a55.55,55.55,0,0,0,3.317-14.976c.117-2.014.1-3.692.053-4.95a40.754,40.754,0,0,1,1.614,6.3C464.45,591.11,464.761,595.943,465.519,600.717Z" transform="translate(-427.046 -573.74)"/><path class="j" d="M461.061,595.035a10.861,10.861,0,0,1-.21,3.695c-2.346,9.481-9.679,11.416-15.972,11.492a7.616,7.616,0,0,1-1.342-.1c7.487-.708,11.5-4.363,13.385-5.56C458.645,603.484,460.457,598.484,461.061,595.035Z" transform="translate(-426.362 -546.84)"/></g></g></g><g transform="translate(372.093 2027.52)"><path class="k" d="M497.265,735.963c-2.044,6.678-13.326,10.591-21.028,9.565-2.774-.386-5.051-1.365-6.357-3.057-6.349-27.724-12.549-61.97-18.274-98.512-7.853-32.154-18.559-76.048-27.987-115.709l5.317-41.85s28.267-3.247,29.5-3.233l14.644,54.922c.288,3.13.548,6.2.808,9.221,2.542,30.037,4.187,55.244,9.461,91.514-.076,3.048.448,9.28.817,14.395.2,2.542.364,4.777.411,6.2.571,3.266,1.144,6.866,1.723,10.692,2.212,14.35,4.78,32.414,8.312,51.784C495.419,726.529,496.314,731.217,497.265,735.963Z" transform="translate(-423.619 -483.167)"/><path class="l" d="M494.608,721.9c-7.853,9.911-17.84,21.247-18.372,23.629-2.774-.386-5.051-1.365-6.357-3.057-6.349-27.724-12.549-61.97-18.274-98.512-7.853-32.154-18.559-76.048-27.987-115.709l5.317-41.85s28.267-3.247,29.5-3.233l14.644,54.922c.288,3.13.548,6.2.808,9.221-8.729,4.413-19.756,6.111-33.846,4.237,6.486,34.8,12.776,67.2,18.2,89.984,2.808,5.476,7.182,13.533,9.375,16.78l16.554-5.093c.2,2.542.364,4.777.411,6.2.571,3.266,1.144,6.866,1.723,10.692C488.509,684.464,491.076,702.528,494.608,721.9Z" transform="translate(-423.619 -483.167)"/></g><path class="f" d="M460.7,580.775c-7.445,6.751-11.783,17.809-15.463,26.98-5.747-9.126-9.733-20.416-13.187-29.8,8.3-2.8,11.735-8.734,18-13.922Z" transform="translate(-36.473 1689.643)"/><path class="h" d="M428.622,573.071c-1.7,2.307-1.854,13.186-.94,19.3l5.269-2.414c-2.159,11.078-5.736,25.83-.35,39.792,3.535,9.19,10.4,19.543,15.178,22.449a3.564,3.564,0,0,0,2.229.523,2.99,2.99,0,0,0,2.495-4.075c-2.187-6.2-2.651-14.574-2.089-22.273.039-.649.112-1.371.173-2.117.842-8.052,4.768-19.9,8.824-27.523,2.629-4.791-1.958-11.869-9.45-12-1.161-1.921-5-10.035-1.426-14.792.582-.772,1.287-.923,1.362-1.815.05-.629-1.214-.884-2.439-.987-.143-.014-.288-.022-.436-.031a26.932,26.932,0,0,0-10.3,1.96C433.656,570.148,431.886,571.37,428.622,573.071Z" transform="translate(-45.318 1695.141)"/><path class="j" d="M436.72,567.8c-3.065,1.077-4.827,2.3-8.091,4-1.7,2.307-1.863,13.189-.948,19.3l5.269-2.414c-2.159,11.078-5.733,25.825-.347,39.786,3.532,9.19,10.4,19.546,15.175,22.449a3.572,3.572,0,0,0,2.229.523c-2.805-2.338-8.8-8.432-14.146-21.235-7.3-17.443-1.6-38.1-.752-41.7C435.948,585.041,432.609,578.516,436.72,567.8Z" transform="translate(-45.316 1696.413)"/><path class="k" d="M511.005,651.634a29.249,29.249,0,0,1-4.142,11.646c-1.885,3.239-4.117,6.158-6.2,9.237q-2.177,3.239-4.436,6.564c-11.981,17.7-24.891,36.735-38.223,56.343-7.792,1.13-16.5-3.132-20.271-13.083a30.6,30.6,0,0,1-1.93-10.25c20.52-32.1,28.359-45.721,40.077-67.194C468.5,610.212,456.1,574.637,448.314,538.26l-.937-14.655-2.268-34.9,31-5.943,9.758,31.9,5.716,18.66q.432,2.337.864,4.668c5.082,27.083,9.909,53.336,13.886,75.987C509.028,629.349,512.043,642.83,511.005,651.634Z" transform="translate(-28.425 1543.631)"/><path class="l" d="M506.863,644.265c-1.885,3.239-4.117,6.158-6.2,9.237q-2.177,3.239-4.436,6.564c-8.642,1.5-22.793.428-22.793.428a346.3,346.3,0,0,1-35.7,42.832,30.6,30.6,0,0,1-1.93-10.25c20.52-32.1,28.359-45.721,40.077-67.194C468.5,591.2,456.1,555.623,448.314,519.246l-.937-14.655,11.31-7.462,24-3.781,3.174,2.3,5.716,18.66q.432,2.337.864,4.668l-29.575,11.9,20.668,94.686A42.7,42.7,0,0,0,493.1,639.65a16.567,16.567,0,0,1-11.3-2.59c-.154,3.784.887,6.625,3.146,8.522Z" transform="translate(-28.425 1562.646)"/><g transform="translate(382.925 1821.85)"><path class="m" d="M453.606,417.336c-17.18,0-26.253,7.112-26.119,11.366s5.026,24.516,24.516,24.516,24.516-19.113,24.516-24.516S466.666,417.336,453.606,417.336Z" transform="translate(-427.485 -410.182)"/><g transform="translate(2.482)"><path class="n" d="M471.023,434.075c0,3.636.112,7.076.336,10.264,0,0-.867,18.766-1.175,19.1-.168.168-10.4.447-20.025.643h-.084c-8.586.2-16.668.336-16.668.336l-1.594-7.16-2.125-9.425c.224-4.643.2-9.733-.056-15.186-.252-5.4-.671-11.187-1.259-17.2l43.321-.671c-.224,3.58-.392,7.02-.5,10.348C471.079,428.23,471.023,431.223,471.023,434.075Z" transform="translate(-428.373 -414.778)"/></g></g><g transform="translate(340.574 1843.485)"><path class="o" d="M492.741,649.72c-1.538,1.678-16.389,3.412-29.925.615a80.371,80.371,0,0,1-10.544-2.937c-6.656-2.349-11.662-5.174-12.333-6.964-.895-2.293-.391-14.151-.168-28.387.084-6.712.168-13.956-.028-20.975-.112-2.433-.14-4.866-.224-7.271v-.727c-.475-13.229-1.286-24.639-2.293-29.03-.2-.951-1.035-10.012-2.042-12.5-3.468-8.642-11.1-25.534-15.522-43.936-2.182-9.005-3.943-18.263-5.174-26.653-.979-6.461-1.594-12.39-1.874-17.228v-.2c-.419-7.1-.056-11.83,1.231-12.445,6.349-3.048,39.853-16.277,39.853-16.277l11.718,3.44L479.26,439.1s.727,42.594,1.175,89.411c.084,7.691.028,19.018.755,26.737,1.734,18.626,5.062,34.763,7.076,50.257C491.566,630.7,493.552,648.8,492.741,649.72Z" transform="translate(-412.449 -415.277)"/><path class="o" d="M439.412,566.042c-.475-13.229-1.286-24.639-2.293-29.03-.2-.951-1.035-10.012-2.042-12.5-3.468-8.642-11.1-25.534-15.522-43.936-2.182-9.005-3.943-18.263-5.174-26.653-.979-6.461-1.594-12.39-1.874-17.228l1.119-2.405,16.361,6.908c-1.063,6.824-2.573,13.117-5.174,18.039,3.328,28.918,9.789,56.829,20.5,74.337l1.622,32.582-7.523.615Z" transform="translate(-412.342 -398.244)"/><path class="o" d="M468.92,566.513c-1.527,1.695-16.394,3.4-29.933.612a78.264,78.264,0,0,1-10.513-2.931l-2.87-84.109a183.131,183.131,0,0,0,29.156-8.572c.831.182,1.689.361,2.6.534C461.956,520.89,470.251,565.067,468.92,566.513Z" transform="translate(-388.812 -331.359)"/><path class="o" d="M428.16,421.4l-1.049,10.225c4.612,8.393,14.655,11.743,25.565,14.291q-1.351-3.746-2.671-7.59a12.426,12.426,0,0,0-9.022-8.038c-.126-.028-.249-.056-.372-.087C434.849,428.828,430.056,426.515,428.16,421.4Z" transform="translate(-386.105 -421.4)"/></g><g transform="translate(370.978 1843.485)"><path class="p" d="M448.3,642.278c-.1.05-.319-.875-.447-2.6l-.481-7.462c-.347-6.43-1.066-15.6-2.086-26.555s-2.822-23.666-5.459-37.138c-2.609-13.466-6.136-32.811-8.133-47.357-1.963-14.579-3.924-29.161-5.764-42.829-.408-3.454-.917-6.751-1.1-10.18l-.626-9.71-.6-9.19-.282-4.377a9.843,9.843,0,0,1,7.632-9.951c2.416-.694,4.763-1.3,6.955-1.8a109.028,109.028,0,0,1,11.495-1.983c6.413-.736,10.079-.987,10.079-.987s-3.661.372-10.029,1.312a110.081,110.081,0,0,0-11.363,2.341c-2.17.565-4.461,1.239-6.852,2.011a9.022,9.022,0,0,0-5.929,4.855,8.794,8.794,0,0,0-.805,4.1l.361,4.369.764,9.179c.517,6.3.987,12.954,2,19.781,1.924,13.659,3.974,28.227,6.024,42.8,1.935,14.585,5.322,33.745,7.87,47.3a341.4,341.4,0,0,1,4.88,37.364c.856,11,1.13,20.2,1.3,26.633l.235,7.467C448.018,641.4,448.2,642.32,448.3,642.278Z" transform="translate(-423.32 -405.65)"/><path class="o" d="M523.4,471.931c-.814,5.454-1.849,11.3-3.1,17.172-.587,2.908-1.259,5.845-1.958,8.754-4.645,19.214-13.833,36.461-16.358,44.957a23.936,23.936,0,0,0-.954,4.237c-.227,4.567,1.989,12.347,5.059,25.531.036.109.048.246.087.355.5,2.2,1.057,4.458,1.589,6.743,1.625,6.793,3.541,13.729,5.384,20.139,3.9,13.757,7.467,25.154,7.227,27.562-.179,1.5-2.629,4.38-6.458,7.49a60.369,60.369,0,0,1-13.064,8.029c-27.036,12.037-51.4,9.783-53.3,8.569-.831-.517-.145-18.344-2.43-42.625-.789-8.494-1.927-17.829-3.625-27.45-1.2-6.746-2.587-12.82-3.89-19.837-1.233-6.829-3.116-19.317-4.008-26.2-2.629-20.724-5.9-40.636-7.747-56.158-1.231-10.46-1.821-19.521-2.1-25.254a8.766,8.766,0,0,1,6.066-8.726c11.637-3.8,18.654-4.642,28.921-5.873L472.585,428.5l11.718-3.44s33.507,13.229,39.828,16.277C526.368,442.4,525.893,455.514,523.4,471.931Z" transform="translate(-422.554 -414.828)"/><path class="q" d="M455.562,517.028c-.227,4.567,1.989,12.347,5.059,25.531.036.109.048.246.087.355-3.893.448-7.453.811-7.453.811-2.162-7.506-4.388-15.762-4.189-24.2s13.57-36.251,16.366-55.8a56.18,56.18,0,0,1-1.619-21.954l11.019,17.312c-.587,2.908-1.259,5.845-1.958,8.754-4.645,19.214-13.833,36.461-16.358,44.957A23.936,23.936,0,0,0,455.562,517.028Z" transform="translate(-377.086 -384.804)"/><path class="r" d="M505.013,551.408a59.608,59.608,0,0,1-13.077,8.013c-27.016,12.048-51.376,9.786-53.286,8.569-1.108-.7.475-33.01-6.041-70.063-1.2-6.754-2.607-12.82-3.913-19.837a162.28,162.28,0,0,0,20.508-6.575c7.9,1.734,19.334,2.83,33.916,3.314Z" transform="translate(-413.661 -331.359)"/><path class="s" d="M460.768,421.4l1.049,10.225c-4.609,8.393-14.652,11.743-25.565,14.291q1.351-3.746,2.674-7.59a12.426,12.426,0,0,1,9.022-8.038c.123-.028.249-.056.372-.087C454.081,428.828,458.875,426.515,460.768,421.4Z" transform="translate(-400.085 -421.4)"/></g><g transform="translate(378.731 1879.924)"><circle class="t" cx="3.932" cy="3.932" r="3.932" transform="translate(0.042 1.472)"/><circle class="u" cx="3.932" cy="3.932" r="3.932"/><path class="v" d="M432.876,435.007a3.917,3.917,0,0,1-6.609,4.178,3.92,3.92,0,1,0,6.609-4.178Z" transform="translate(-425.778 -433.391)"/><circle class="w" cx="2.299" cy="2.299" r="2.299" transform="translate(0.934 0.631)"/><g transform="translate(48.282)"><circle class="t" cx="3.932" cy="3.932" r="3.932" transform="translate(0.042 1.472)"/><circle class="u" cx="3.932" cy="3.932" r="3.932"/><path class="x" d="M450.137,435.007a3.916,3.916,0,0,1-6.606,4.178,3.919,3.919,0,1,0,6.606-4.178Z" transform="translate(-443.042 -433.391)"/><circle class="w" cx="2.299" cy="2.299" r="2.299" transform="translate(0.934 0.631)"/></g><g transform="translate(3.734 44.399)"><circle class="t" cx="3.932" cy="3.932" r="3.932" transform="translate(0.042 1.472)"/><circle class="u" cx="3.932" cy="3.932" r="3.932"/><path class="y" d="M434.209,450.883a3.884,3.884,0,0,1,.49,1.863,3.922,3.922,0,0,1-7.1,2.316,3.918,3.918,0,1,0,6.606-4.178Z" transform="translate(-427.112 -449.265)"/><circle class="w" cx="2.299" cy="2.299" r="2.299" transform="translate(0.934 0.631)"/></g><g transform="translate(44.592 44.399)"><circle class="t" cx="3.932" cy="3.932" r="3.932" transform="translate(0.042 1.472)"/><circle class="u" cx="3.932" cy="3.932" r="3.932"/><path class="y" d="M448.818,450.883a3.883,3.883,0,0,1,.489,1.863,3.922,3.922,0,0,1-7.1,2.316,3.918,3.918,0,1,0,6.606-4.178Z" transform="translate(-441.721 -449.265)"/><circle class="w" cx="2.299" cy="2.299" r="2.299" transform="translate(0.934 0.631)"/></g><g transform="translate(5.56 95.104)"><circle class="t" cx="3.932" cy="3.932" r="3.932" transform="translate(0.042 1.472)"/><circle class="u" cx="3.932" cy="3.932" r="3.932"/><path class="z" d="M434.862,469.013a3.891,3.891,0,0,1,.489,1.863,3.922,3.922,0,0,1-7.1,2.316,3.918,3.918,0,1,0,6.606-4.178Z" transform="translate(-427.765 -467.396)"/><circle class="w" cx="2.299" cy="2.299" r="2.299" transform="translate(0.934 0.631)"/></g><g transform="translate(43.132 95.104)"><circle class="t" cx="3.932" cy="3.932" r="3.932" transform="translate(0.042 1.472)"/><circle class="u" cx="3.932" cy="3.932" r="3.932"/><path class="z" d="M448.3,469.013a3.89,3.89,0,0,1,.489,1.863,3.922,3.922,0,0,1-7.1,2.316,3.918,3.918,0,1,0,6.606-4.178Z" transform="translate(-441.2 -467.396)"/><circle class="w" cx="2.299" cy="2.299" r="2.299" transform="translate(0.934 0.631)"/></g></g><g transform="translate(370.714 1830.856)"><path class="q" d="M426.462,423.413l.336,5.524c5.4,3.073,9.937,6.021,11.027,8.46a107.961,107.961,0,0,0-8.39,37.057L436.6,499.8s12.062-22.55,13.284-30.764-.173-19.577-.173-19.577a21.651,21.651,0,0,0,6.642-.875c.6,9.134,1.222,17.13,3.5,21.325s11.011,14.859,15.382,17.829l2.62-23.073-10.138-24.122q7.941-4.057,19.927-8.74l-8.041-6.116L446.389,431.1Z" transform="translate(-417.198 -407.598)"/><path class="aa" d="M458.619,438.817l-2.209,10.851c-1.37-.727-2.8-1.482-4.223-2.237-3.552-1.846-7.216-3.692-10.628-5.2a49.934,49.934,0,0,0-8.81-3.132l-9.593,3.5a17.567,17.567,0,0,1,.168-2.964,17.04,17.04,0,0,1,2.8-7.271,8.147,8.147,0,0,1,4.838-1.231l1.79-5.258c-.336-.224-.448-1.259-.448-2.825a11.644,11.644,0,0,1,3.216-3.859,9.106,9.106,0,0,1,2.853-1.426l.391,4.866a77.928,77.928,0,0,0,15.354,11.3c.336.224.671.391,1.007.587l2.6,3.188Z" transform="translate(-423.15 -417.758)"/><path class="ab" d="M449.005,428l-1.426,6.237s-2.237,1.958-4.111,3.5c-3.552-1.846-7.216-3.692-10.628-5.2l5.314,1.119,1.622-1.846A95.039,95.039,0,0,1,428,423.857c5.23,2.181,9.984,4.083,13.508,5.258l2.237-1.51-6.4-4.447s7.216,3.16,7.327,2.8c.056-.14.364-.895.727-1.734.336.224.671.391,1.007.587Z" transform="translate(-414.431 -408.056)"/><path class="aa" d="M470.972,441.66a141.6,141.6,0,0,0-15.55,3.384c-1.175.308-2.321.643-3.468.979-2.629.811-5.2,1.678-7.719,2.629-.7.252-1.4.5-2.1.783l-5.426-9.173,5.426-4.027a42.545,42.545,0,0,0,14.1-14.683l-.14-3.524a9.628,9.628,0,0,1,1.286.336,8.968,8.968,0,0,1,4.671,4.055,22.031,22.031,0,0,1,0,7.188c2.545.336,4.363,0,6.125,2.265,1.314,1.678,2.182,4.782,2.6,7.355C470.888,440.122,470.944,440.961,470.972,441.66Z" transform="translate(-398.782 -417.273)"/><path class="ab" d="M451.993,429.372a66.182,66.182,0,0,1-6.992,3.72,16.038,16.038,0,0,1,5.677,4.307c-2.629.811-5.2,1.678-7.719,2.629l-5.538-8.334a124.928,124.928,0,0,0,16.892-8.866,48.825,48.825,0,0,1-11.774,8.977A51.8,51.8,0,0,0,451.993,429.372Z" transform="translate(-397.506 -408.649)"/><path class="aa" d="M440.058,425.226l-4.721,9.962,7.341,4.022c2.3,2.844,2.623,15.382,4.2,20.45s8.457,14.61,14.509,22.2c2.26-11.609,2.62-29.192.7-34.609s-8.583-13.715-14.333-18.005A44.137,44.137,0,0,1,440.058,425.226Z" transform="translate(-401.252 -404.34)"/><path class="ab" d="M439.324,425.33l3.845,1.516.814,2.447c6.172,2.967,10.56,10.437,14.568,18.878-5.661-8.256-10.849-14.7-14.683-15.967,3.762,3.938,6.908,10.012,9.089,19.462-3.292-8.642-6.709-14.241-10.488-18.414-.752,2.039-1.046,3.124-.7,4.894l-6.642-.349Z" transform="translate(-401.626 -404.153)"/><path class="aa" d="M443.316,427.888l-4.371-.35c-4.016,6.553-10.938,15.066-11.237,19.857s2.716,24.085,4.945,31.883c5.585-6.891,12.761-17.653,13.284-22.723s-.523-17.479-.523-17.479Z" transform="translate(-414.998 -400.186)"/><path class="ab" d="M438.41,427.038l-3.029,1.4a16.439,16.439,0,0,0,.931,5.828c-3.311,4.528-5.045,10.418-6.642,16.431,2.3-5.742,4.654-11.176,7.459-13.751a123.366,123.366,0,0,1,0,21.443,69.147,69.147,0,0,0,1.98-20.511,6.951,6.951,0,0,0,2.741,2.1s3.32-4.777,3.088-5.244S438.41,427.038,438.41,427.038Z" transform="translate(-411.434 -401.084)"/><path class="aa" d="M446.845,427.287l-4.279,9.369-1.846,4.083-6.628-6.992.531-3.384.028-.224.811-5.062,3.5-2.07A15.581,15.581,0,0,1,446.845,427.287Z" transform="translate(-403.489 -408.325)"/><path class="ab" d="M441.8,433.354l.448.895-1.846,4.083-5.845-8.222-.252-2.153-.028-.28c.028,0,.028.028.056.056a15.364,15.364,0,0,1,4.055,3.356,27.99,27.99,0,0,1,1.063-6.74,20.909,20.909,0,0,0,.951,7.887c.2-2.377.811-4.251,2.1-5.426A17.487,17.487,0,0,0,441.8,433.354Z" transform="translate(-403.165 -405.918)"/><path class="aa" d="M449.192,439.1a29.177,29.177,0,0,1-11.019,4.027l-1.538-2.769-4.922-8.782,6.656-6.293a82.611,82.611,0,0,1,8.726,10.739C447.793,437.034,448.492,438.041,449.192,439.1Z" transform="translate(-407.765 -404.229)"/><path class="ab" d="M433.889,427.731c-2.853-2.1-5.537-4.055-7.02-5.258-.336-.224-.448-1.259-.448-2.825Z" transform="translate(-417.27 -414.362)"/><path class="ac" d="M430.816,422.624a13.371,13.371,0,0,1-3.244-3.44,9.106,9.106,0,0,1,2.853-1.426Z" transform="translate(-415.204 -417.758)"/><path class="ad" d="M444.929,418.364a5.481,5.481,0,0,1-1.147,3.188l-.14-3.524A9.628,9.628,0,0,1,444.929,418.364Z" transform="translate(-386.33 -417.273)"/><path class="ab" d="M450.372,426.786a77.225,77.225,0,0,1-7.16,5.23c3.608-3.72,6.321-7.747,7.16-12.417A22.031,22.031,0,0,1,450.372,426.786Z" transform="translate(-387.103 -414.452)"/><path class="ab" d="M458.952,428.041a141.6,141.6,0,0,0-15.55,3.384,60.034,60.034,0,0,1,15.354-5.817C458.868,426.5,458.924,427.342,458.952,428.041Z" transform="translate(-386.761 -403.654)"/><path class="ab" d="M432.749,425.669l-9.593,3.5a17.567,17.567,0,0,1,.168-2.964C426.6,425.305,431.015,424.83,432.749,425.669Z" transform="translate(-423.15 -404.33)"/><path class="ab" d="M446.281,434.109a29.177,29.177,0,0,1-11.019,4.027l-1.538-2.769a5.908,5.908,0,0,0,3.132-.839l-3.524-6.46s5.482,6.209,5.594,6.209c-.084-.252-1.734-4.111-1.734-4.111l3.664,3.328a10.557,10.557,0,0,0,3.328-2.461C444.883,432.039,445.582,433.046,446.281,434.109Z" transform="translate(-404.854 -399.234)"/></g><g transform="translate(367.237 1995.32)"><path class="ae" d="M551.938,668.448c1,15.245-129.329,27.123-130.33,11.906.034-65.591.182-127.849.537-183.635.02-4.754.07-9.453.1-14.1.766,7.652,85.733-1.247,84.97-8.9q1.7,6.737,3.387,13.561C524.379,542.6,538.139,603.827,551.938,668.448Z" transform="translate(-421.608 -473.724)"/><path class="af" d="M431.9,505.985c33.491,22.24,52.134,42.334,69.09,58.384-12.431-9.028-25.688-21.426-47.5-34.637,20.164,19.337,41.735,55.6,53.994,73.21-23.831-23.915-44.692-50.106-70.139-74.754,7.216,6.226,18.881,14.224,22.751,17.25C454.358,532.758,439.848,517.591,431.9,505.985Z" transform="translate(-403.122 -415.76)"/><path class="af" d="M434.446,527.83c17.98,6.2,36.354,21.638,54.525,39.646C472.641,555.478,451.391,540.107,434.446,527.83Z" transform="translate(-398.542 -376.511)"/><path class="ag" d="M510.257,487.285c-7.839,8.7-78.286,16.1-88.457,9.433.02-4.754.07-9.453.1-14.1.766,7.652,85.733-1.247,84.97-8.9Q508.574,480.461,510.257,487.285Z" transform="translate(-421.263 -473.724)"/></g><g transform="translate(443.285 1736.817)"><path class="ah" d="M453.921,391.949c1.877-1.983,7.109-6.595,10.53-5.2s6.958,14.624,5.772,21.94-10.53,25.545-13.187,26.969-5.194-1.879-6.818-3.957-1.152-17.189-.3-23.109S452.044,393.932,453.921,391.949Z" transform="translate(-449.139 -386.493)"/><path class="ai" d="M461.334,392.062c-1.141-3.1-2.886-4.262-4.542-.07a60.989,60.989,0,0,0-2.967,12.286c2.738,5.6,2.436,12.353-2.209,17.211,2.8-.159,8.664-5.356,7.263-13.88-.895-5.445.022-11.095.75-12.308.568-.945,2.422.853,2.346,6.376A17.4,17.4,0,0,0,461.334,392.062Z" transform="translate(-444.691 -381.499)"/><path class="aj" d="M461.974,401.673a20.8,20.8,0,0,0-.766-7.266,16.282,16.282,0,0,0-1.418-3.155c-.26-.433-.668-.817-.766-.791-.036.005.109.056.089.05a2.765,2.765,0,0,0-.232.3,11.617,11.617,0,0,0-1.155,3.023c-.336,1.147-.545,2.335-.836,3.507-.537,2.36-.915,4.766-1.256,7.221l-.162-1.094a19.218,19.218,0,0,1,1.7,4.824,14.5,14.5,0,0,1,.221,5.177,10.125,10.125,0,0,1-5.781,8.015,14.136,14.136,0,0,0,3.859-8.228,16.416,16.416,0,0,0-1.65-8.983h0c.389-2.461.825-4.919,1.424-7.341.666-2.38,1.219-4.889,2.637-6.95a1.379,1.379,0,0,1,1.611-.613,3.1,3.1,0,0,1,1.239,1.356,13.948,13.948,0,0,1,1.239,3.516A19.148,19.148,0,0,1,461.974,401.673Z" transform="translate(-444.691 -381.495)"/></g><g transform="translate(350.672 1736.817)"><path class="ah" d="M432.56,391.949c-1.877-1.983-7.112-6.595-10.53-5.2s-6.958,14.624-5.772,21.94,10.53,25.545,13.187,26.969,5.193-1.879,6.818-3.957,1.152-17.189.3-23.109S434.437,393.932,432.56,391.949Z" transform="translate(-416.024 -386.493)"/><path class="ak" d="M418.344,392.062c1.141-3.1,2.886-4.262,4.542-.07a61,61,0,0,1,2.967,12.286c-2.738,5.6-2.436,12.353,2.209,17.211-2.8-.159-8.664-5.356-7.263-13.88.9-5.445-.022-11.095-.75-12.308-.568-.945-2.422.853-2.346,6.376A17.393,17.393,0,0,1,418.344,392.062Z" transform="translate(-413.669 -381.499)"/><path class="aj" d="M418.04,402.45a17.526,17.526,0,0,1-.766-7.6,12.221,12.221,0,0,1,1.063-3.873,3.958,3.958,0,0,1,1.709-1.924,2.311,2.311,0,0,1,1.9-.022,3.4,3.4,0,0,1,1.183.895,13.325,13.325,0,0,1,2.025,3.7,30.286,30.286,0,0,1,1.259,3.672c.663,2.481,1.152,4.989,1.591,7.456l.1.537-.257.559a15.559,15.559,0,0,0-1.225,3.927,18.436,18.436,0,0,0-.151,4.036,26.642,26.642,0,0,0,.61,4.044,38.058,38.058,0,0,0,1.328,4.4,14.136,14.136,0,0,1-3.859-8.228,16.39,16.39,0,0,1,1.65-8.983h0c-.389-2.461-.825-4.919-1.424-7.341-.666-2.38-1.219-4.889-2.637-6.95a1.379,1.379,0,0,0-1.611-.613,3.1,3.1,0,0,0-1.239,1.356,13.839,13.839,0,0,0-1.239,3.516A19.148,19.148,0,0,0,418.04,402.45Z" transform="translate(-414.005 -382.272)"/></g><g transform="translate(361.021 1686.658)"><path class="al" d="M502.992,484.454c-6.964,10.74-14.851,20.3-24.108,28.107a113.035,113.035,0,0,1-28.3.364c-9.761-8.167-19.018-17.536-24.415-28.471-2.014-6.628-.475-16.473-1.175-30.2a196.547,196.547,0,0,1-4.419-22.542c.084-.811.168-1.594.252-2.405q3.062-30.918,8.866-60.6l69.778-.14c4.447,22.486,7.747,42.93,9.984,63.262-1.594,8.558-3.8,18.263-5.342,22.737C503.216,468.876,505.342,478.861,502.992,484.454Z" transform="translate(-418.201 -368.558)"/><circle class="am" cx="14.208" cy="14.208" r="14.208" transform="translate(31.649 77.915)"/><g transform="translate(5.239 82.512)"><path class="an" d="M436.81,413.449c-.285,1.278.341,2.732,2.114,4.413,15.354-.884,26.986-8.986,37.219-19.8C465.143,406.513,452.44,412.285,436.81,413.449Z" transform="translate(-394.386 -398.061)"/><path class="an" d="M460.931,413.449c.285,1.278-.341,2.732-2.111,4.413-15.354-.884-26.986-8.986-37.222-19.8C432.6,406.513,445.3,412.285,460.931,413.449Z" transform="translate(-421.598 -398.061)"/></g><path class="ao" d="M423.832,374.909l-1.424,8.7a307.592,307.592,0,0,1,78.725,0l-2.844-7.744S423.672,375.068,423.832,374.909Z" transform="translate(-414.904 -357.147)"/><circle class="am" cx="6.517" cy="6.517" r="6.517" transform="translate(15.153 92.119)"/><circle class="am" cx="6.517" cy="6.517" r="6.517" transform="translate(64.36 92.012)"/><path class="ap" d="M465.531,443.812c-6.964,10.74-14.851,20.3-24.108,28.107,8.723-9.805,19.846-24.667,21.289-30.291a66.531,66.531,0,0,0,1.645-18.539,16.559,16.559,0,0,1-4.978,3.412,326.853,326.853,0,0,0,12.613-35.323c-1.594,8.558-3.8,18.263-5.342,22.737C465.754,428.235,467.88,438.219,465.531,443.812Z" transform="translate(-380.739 -327.916)"/><path class="aq" d="M450.582,473.9c-9.761-8.167-19.018-17.536-24.415-28.471-2.014-6.628-.475-16.473-1.175-30.2a196.547,196.547,0,0,1-4.419-22.542c.084-.811.168-1.594.252-2.405h.224c1.035,11.439,7.227,26.678,13.676,37.588a22.866,22.866,0,0,1-6.908-4.111c-.545,6.7-.646,13.8.475,18.934S441.165,464.288,450.582,473.9Z" transform="translate(-418.201 -329.533)"/><path class="ar" d="M423.4,380.73c-3.362,4.8-4.992,18-2.383,25.372-.12,4.3-.168,8.359-.288,11.707-.3,8.5,3,20.713,4.055,30.171l4.564,1.678c-1.286-5.518-1.636-10.8-3.157-15.941-1.348-4.564-3.227-10.328-3.241-14.319s1.988-10.272,2.878-15.3q1.93-10.932,3.415-21.406l.917-6.293-6.351,1.211Z" transform="translate(-419.725 -354.472)"/><path class="as" d="M456.519,380.873c3.146,6.318,3.669,14.445,2,25.226.165,4.648.268,8.863.375,11.825.3,8.5-3.132,20.6-4.187,30.056l-4.564,1.678c1.284-5.518,1.636-10.8,3.155-15.941,1.351-4.564,3.23-10.328,3.244-14.319s-1.989-10.272-2.878-15.3q-1.93-10.932-3.415-21.406l-.917-6.293,6.351,1.211Z" transform="translate(-366.531 -354.472)"/></g><g transform="translate(371.767 1767.318)"><path class="at" d="M436.743,413.589c-.249,1.343.294,2.875,1.829,4.645,13.3-.931,23.372-9.456,32.235-20.836C461.282,406.293,450.279,412.364,436.743,413.589Z" transform="translate(-399.997 -397.399)"/><path class="au" d="M457.634,413.589c.249,1.343-.294,2.875-1.829,4.645-13.3-.931-23.372-9.456-32.238-20.836C433.1,406.293,444.1,412.364,457.634,413.589Z" transform="translate(-423.567 -397.399)"/></g><g transform="translate(369.753 1723.309)"><path class="av" d="M451.448,424.565c2.629,2.433,3.915,5.342,2.153,9.285a16.723,16.723,0,0,0-6.74,3.552c-.28.224-.587.448-.867.7a4.573,4.573,0,0,1-5.594,0c-.419-.336-.867-.671-1.286-1.007a21.6,21.6,0,0,0-5.761-3.58c-2.265-3.44-1.007-6.293,2.181-8.81a51.389,51.389,0,0,1-.392-21.031v-.028q-.168-1.343-.419-2.685a35.035,35.035,0,0,0-2.153-7.216l4.517-9.131c3.859-1.286,13.4-2.2,17.508-1.085l.853,10.188a20.379,20.379,0,0,0-3.02,6.6.123.123,0,0,0-.028.14c-.084.308-.112.587-.168.9a3.551,3.551,0,0,0-.084.979C453.965,410.721,453.993,418.272,451.448,424.565Z" transform="translate(-406.04 -379.216)"/><g transform="translate(37.4 24.354)"><path class="aw" d="M437.147,390.371c.151,4.108.179,8.2.21,12.294,0,4.1.274,8.136-.034,12.266a19.092,19.092,0,0,1-1.04-6.111c-.039-2.058-.014-4.114.025-6.167Q436.459,396.5,437.147,390.371Z" transform="translate(-436.142 -390.371)"/><circle class="aw" cx="1.267" cy="1.267" r="1.267" transform="translate(0 26.002)"/></g><path class="ax" d="M498.233,391.8c-10.133-7.744-15.256,1.586-19.818,2.858-2.7.755-6.955,4.134-9.461,10.119,1.818,8.39,1.846,15.941-.7,22.234,2.629,2.433,3.915,5.342,2.153,9.285a16.723,16.723,0,0,0-6.74,3.552l-.084-1.65c.7-2.853.448-6.88-.7-12.054a99.771,99.771,0,0,0-.224-23.157c-1.175-1.231-2.545-1.342-4.139,0a186.836,186.836,0,0,0-.727,23.045,36.227,36.227,0,0,0-1.622,11.886l-.252,1.622a21.6,21.6,0,0,0-5.761-3.58c-2.265-3.44-1.007-6.293,2.181-8.81a51.389,51.389,0,0,1-.392-21.031v-.028c0-.028.028-.028.028-.056-1.2-4.914-3.062-6.944-10.054-10.267-4.545-2.159-11.366-7.638-19.076-.1l7.971-8.681,23.076.067c4.036,6.446,13.55,5.062,17.508-1.085l17.916-4.312Z" transform="translate(-422.847 -381.663)"/><path class="ay" d="M453.6,407.163c-2.825.587-5.286,2.349-7.607,4.251a4.573,4.573,0,0,1-5.594,0c-2.209-1.706-4.391-3.608-7.048-4.587-2.265-3.44-1.007-6.293,2.181-8.81-2.825,2.6-3.021,5.286-1.65,8,2.741.643,6.992,3.831,9.145,3.831s6.572-3.356,10.04-3.887a9.218,9.218,0,0,0-1.622-8.083C454.077,400.311,455.363,403.22,453.6,407.163Z" transform="translate(-406.04 -352.529)"/><path class="aj" d="M436.924,403.962c2.9-2.128,5.979-3.225,6.119-2.679s-1.882,1.714-3.11,1.768C439.634,402.782,438.448,403.238,436.924,403.962Z" transform="translate(-397.555 -346.66)"/><path class="aj" d="M439.38,403.949c-2.9-2.128-5.979-3.227-6.119-2.682s1.882,1.717,3.11,1.767C436.669,402.769,437.855,403.222,439.38,403.949Z" transform="translate(-404.149 -346.689)"/></g><g transform="translate(373.674 1735.215)"><g transform="translate(0.996)"><path class="aj" d="M435.973,392.035a15.742,15.742,0,0,0-2.584-2.858,25.112,25.112,0,0,0-3.127-2.016.569.569,0,0,1,.478-1.029,7.745,7.745,0,0,1,3.281,2.414,10.9,10.9,0,0,1,1.969,3.482l-.006.011Z" transform="translate(-414.958 -385.603)"/><path class="aj" d="M424.605,390.741a11.657,11.657,0,0,1,4.877-3.529,17.273,17.273,0,0,1,5.968-1.27c4.05-.165,8.309.584,11.609,3.023a42.19,42.19,0,0,0-11.576-1.952C431.633,387.119,427.614,388.045,424.605,390.741Z" transform="translate(-424.605 -385.92)"/></g><g transform="translate(0 1.852)"><path class="az" d="M424.253,394.524c3.376.02,19.594,2.953,23.073,3.518-.646-5.384-3.1-10.563-9.025-11.355C431.787,385.821,426.353,390.474,424.253,394.524Z" transform="translate(-424.242 -386.582)"/><path class="ba" d="M447.326,396.983c-3.784.783-7.923,1.838-12.7,1.745-4.533-.087-8.474-3.216-10.376-5.263,3.3-3.412,7.971-6.989,13.872-6.175C444.054,388.075,446.068,393.229,447.326,396.983Z" transform="translate(-424.242 -385.523)"/><g transform="translate(0 1.654)"><g class="bb"><g transform="translate(0.011 -0.66)"><g transform="translate(6.971 1.469)"><circle class="bc" cx="5.104" cy="5.104" r="5.104"/><circle class="az" cx="3.381" cy="3.381" r="3.381" transform="translate(1.723 1.723)"/></g><path class="bd" d="M447.326,397.4c-4.52-9.224-12.065-11.209-23.073-3.518,3.3-3.636,8.256-7.7,14.157-6.829C444.339,387.9,446.068,393.4,447.326,397.4Z" transform="translate(-424.253 -386.938)"/><circle class="ba" cx="1.04" cy="1.04" r="1.04" transform="translate(13.705 3.792)"/></g></g></g></g><path class="be" d="M424.587,390.67c1.723,7.369,8.961,8.152,18.662,4.08C433.665,395.836,428.771,395.268,424.587,390.67Z" transform="translate(-423.642 -377.386)"/></g><g transform="translate(417.859 1735.324)"><path class="aj" d="M440.543,391.988a10.908,10.908,0,0,1,2.008-3.46,7.757,7.757,0,0,1,3.311-2.374.568.568,0,0,1,.727.344.575.575,0,0,1-.263.688,25.651,25.651,0,0,0-3.149,1.983,15.828,15.828,0,0,0-2.62,2.828h-.011Z" transform="translate(-439.159 -385.67)"/><path class="aj" d="M462.481,390.92c-2.979-2.732-6.984-3.706-10.834-3.854a42.114,42.114,0,0,0-11.6,1.815c3.331-2.4,7.6-3.1,11.643-2.886a17.166,17.166,0,0,1,5.954,1.34A11.628,11.628,0,0,1,462.481,390.92Z" transform="translate(-440.048 -385.959)"/><g transform="translate(0.352 1.743)"><path class="az" d="M463.251,394.524c-3.376.02-19.594,2.953-23.073,3.518.646-5.384,3.1-10.563,9.028-11.355C455.717,385.821,461.151,390.474,463.251,394.524Z" transform="translate(-440.167 -386.582)"/><path class="ba" d="M440.178,396.983c3.787.783,7.923,1.838,12.7,1.745,4.534-.087,8.474-3.216,10.376-5.263-3.3-3.412-7.971-6.989-13.872-6.175C443.45,388.075,441.437,393.229,440.178,396.983Z" transform="translate(-440.167 -385.523)"/><g transform="translate(0 1.654)"><g class="bf"><g transform="translate(0.011 -0.66)"><g transform="translate(5.895 1.469)"><circle class="bg" cx="5.104" cy="5.104" r="5.104"/><circle class="az" cx="3.381" cy="3.381" r="3.381" transform="translate(1.723 1.723)"/></g><path class="bh" d="M440.178,397.4c5-8.656,12.82-10.538,23.073-3.518-3.3-3.636-8.256-7.7-14.157-6.829C443.165,387.9,441.437,393.4,440.178,397.4Z" transform="translate(-440.178 -386.938)"/><circle class="ba" cx="1.04" cy="1.04" r="1.04" transform="translate(12.842 3.792)"/></g></g></g></g><path class="bi" d="M460.083,390.67c-1.72,7.369-8.961,8.152-18.662,4.08C451.005,395.836,455.9,395.268,460.083,390.67Z" transform="translate(-437.581 -377.495)"/></g><path class="bj" d="M422.923,393.86c2.99-3.261,5.75-4.217,8.751-5.191,5.174-1.681,9.881,6.186,18.528,4.718,1.7-.624,3.247-3.485,3.555-8.236-7.945,3.253-17.594-4.1-21.778-2.061A17.463,17.463,0,0,0,422.923,393.86Z" transform="translate(-52.958 1343.556)"/><path class="bk" d="M468.705,393.643c-2.984-3.264-5.758-5.613-8.757-6.592-5.171-1.689-8.48,5.361-17.124,3.882-1.7-.629-3.241-3.49-3.543-8.245,7.94,3.264,15.292-3.717,19.378-1.667S467.159,388.425,468.705,393.643Z" transform="translate(-23.566 1339.803)"/><g transform="translate(380.779 1782.134)"><path class="bl" d="M427.54,403.469a49.486,49.486,0,0,0,24.138,6.46c9.031.076,17.854-2.17,24.737-6.46-2.668,15.807-11.57,28.16-24.041,28.16S429.176,420.56,427.54,403.469Z" transform="translate(-425.441 -401.309)"/><path class="aj" d="M426.813,408.551c-.238-3.913,1.328-5.952,4.917-5.851A11.9,11.9,0,0,0,426.813,408.551Z" transform="translate(-426.79 -402.697)"/><path class="aj" d="M448.916,408.551c.238-3.913-1.328-5.952-4.917-5.851A11.917,11.917,0,0,1,448.916,408.551Z" transform="translate(-395.869 -402.697)"/><path class="bm" d="M433.411,415.182c-.99,10.127,17.155,11.369,17.012,0A33.833,33.833,0,0,1,433.411,415.182Z" transform="translate(-414.963 -380.264)"/><path class="bn" d="M459.606,428.161a194.346,194.346,0,0,1-28.3.21c3.636-1.068,7.3-5.381,10.963-9.319l-1.169-3.264h9.089l-.956,3.166C452.642,423.348,456.417,427.512,459.606,428.161Z" transform="translate(-418.68 -379.175)"/><path class="aj" d="M433.386,414.351c3.367,6.494,12.624,7.056,17.012,0Q441.4,419.792,433.386,414.351Z" transform="translate(-414.938 -381.757)"/><g transform="translate(5.167 3.779)"><g transform="translate(33.141 17.077)"><path class="bo" d="M445.521,410.473a16.789,16.789,0,0,1-1.9,2.321,15.2,15.2,0,0,1-1.147,1.175l-1.986-2.517a1.813,1.813,0,0,1,.476-.447A5.019,5.019,0,0,1,445.521,410.473Z" transform="translate(-440.487 -410.154)"/><path class="bp" d="M445.521,410.473a16.789,16.789,0,0,1-1.9,2.321,15.2,15.2,0,0,1-1.147,1.175l-1.986-2.517a1.813,1.813,0,0,1,.476-.447A5.019,5.019,0,0,1,445.521,410.473Z" transform="translate(-440.487 -410.154)"/></g><g transform="translate(4.055 17.082)"><path class="bp" d="M435.009,411.449l-1.846,2.321a19.057,19.057,0,0,1-1.538-1.482c-.531-.587-1.063-1.2-1.538-1.846a5.144,5.144,0,0,1,3.971.252A2.593,2.593,0,0,1,435.009,411.449Z" transform="translate(-430.087 -410.156)"/><path class="bp" d="M435.009,411.449l-1.846,2.321a19.057,19.057,0,0,1-1.538-1.482c-.531-.587-1.063-1.2-1.538-1.846a5.144,5.144,0,0,1,3.971.252A2.593,2.593,0,0,1,435.009,411.449Z" transform="translate(-430.087 -410.156)"/></g><path class="bq" d="M461.317,413.666a15.2,15.2,0,0,1-1.147,1.175,22.355,22.355,0,0,1-2.377,1.986A18.345,18.345,0,0,1,446.8,420.49a21.293,21.293,0,0,1-11.942-3.72.1.1,0,0,0-.056-.028,23.356,23.356,0,0,1-2.629-2.1,19.057,19.057,0,0,1-1.538-1.482,16.53,16.53,0,0,1,2.433-1.594,13.244,13.244,0,0,1,12.473-.559c4.671-2.181,8.894-1.566,13.117.867A29.52,29.52,0,0,1,461.317,413.666Z" transform="translate(-425.044 -393.95)"/><path class="br" d="M434.164,411.207c3.851,2.111,7.974,2.056,12.339,0A94.121,94.121,0,0,1,434.164,411.207Z" transform="translate(-418.707 -391.185)"/><path class="ba" d="M470.951,404.328,470,409.865l-.224,1.231c-1.454,7.579-37.252,6.964-39.853.252a.993.993,0,0,1-.112-.252l-1.175-7.048a50.33,50.33,0,0,0,21.059,4.838A47.79,47.79,0,0,0,470.951,404.328Z" transform="translate(-428.637 -404.048)"/><path class="ba" d="M436.929,406.659l-1.239,4.335,2.4.077Z" transform="translate(-415.965 -399.358)"/><path class="bp" d="M470.951,404.328,470,409.865c-.839-1.342-1.818-2.265-3.412-1.93-1.678.392-11.075,2.209-16.584,2.209-5.482.028-14.823-1.874-16.445-2.209-2.153-.447-2.964,1.426-3.636,3.412a.993.993,0,0,1-.112-.252l-1.175-7.048a50.33,50.33,0,0,0,21.059,4.838A47.79,47.79,0,0,0,470.951,404.328Z" transform="translate(-428.637 -404.048)"/><path class="ba" d="M455.08,412.264a18.345,18.345,0,0,1-10.991,3.664,21.293,21.293,0,0,1-11.942-3.72A37.978,37.978,0,0,0,455.08,412.264Z" transform="translate(-422.331 -389.387)"/></g><path class="aj" d="M476.415,403.469a53.254,53.254,0,0,1-2.1,10.018,38.666,38.666,0,0,1-4.573,9.291,24.3,24.3,0,0,1-7.6,7.263,18.868,18.868,0,0,1-10.295,2.746,23.525,23.525,0,0,1-18.028-9.925,32.433,32.433,0,0,1-4.626-9.285,43.117,43.117,0,0,1-1.647-10.107c.7,6.721,2.813,13.441,6.989,18.836,4.083,5.389,10.493,9.176,17.34,9.3a17.829,17.829,0,0,0,9.724-2.5A24.691,24.691,0,0,0,469,422.235,45.131,45.131,0,0,0,476.415,403.469Z" transform="translate(-425.441 -401.309)"/><path class="aj" d="M427.54,403.469a44.711,44.711,0,0,0,5.96,2.263,49.9,49.9,0,0,0,6.08,1.661,60.407,60.407,0,0,0,24.854.112,46.535,46.535,0,0,0,6.072-1.661,38.7,38.7,0,0,0,5.909-2.374A46.487,46.487,0,0,1,452,409.927,49.558,49.558,0,0,1,427.54,403.469Z" transform="translate(-425.441 -401.309)"/></g><g transform="translate(463.816 1842.722)"><path class="bs" d="M490.2,447.185s-3.728-7.671-2.565-10.244,21.462,9.293,19.353,12.333S493.462,450.449,490.2,447.185Z" transform="translate(-394.886 -395.111)"/><g transform="translate(89.613)"><g transform="translate(28.001)"><path class="bt" d="M524.764,423.308c-.671,3.216-5.37,8.726-9.87,16.165l-11.858,5.649-2.825,1.343-3.831-5.51c5.286-2.405,9.73-4.559,14.232-6.46,3.778-5.062,7.16-10.935,10.32-12.585A3.571,3.571,0,0,1,524.764,423.308Z" transform="translate(-496.38 -421.751)"/><path class="bu" d="M520.867,422.308c-.671,3.216-5.37,8.726-9.87,16.165l-11.858,5.649-.59-2.181a119.965,119.965,0,0,1,11.246-6.293,4.352,4.352,0,0,0-3.079-2.153,6.417,6.417,0,0,1,4.673,1.175C514.938,429.328,518.574,423.79,520.867,422.308Z" transform="translate(-492.483 -420.751)"/></g><g transform="translate(35.132 0.058)"><path class="bv" d="M527.9,423.216c-.559,3.244-5.034,8.922-9.257,16.529l-14.4,7.523-2.016-1.454-3.3-2.405c5.2-2.629,9.73-5.006,14.149-7.076,3.608-5.2,7.831-12.585,10.935-14.375A3.621,3.621,0,0,1,527.9,423.216Z" transform="translate(-498.93 -421.772)"/><path class="bw" d="M525.819,422.288c-.559,3.244-5.034,8.922-9.257,16.529l-14.4,7.523-2.016-1.454-.056-.224,13.48-6.237c-.109-1.4-1.088-2.321-2.573-3.021a5.309,5.309,0,0,1,4.254,1.734C519.135,430.594,522.969,424.218,525.819,422.288Z" transform="translate(-496.848 -420.844)"/></g><g transform="translate(38.961 5.803)"><path class="bx" d="M528.714,425.369c-.7,3.244-5.9,9.984-10.4,17.4l-12.75,5.789-1.566-1.65-3.694-3.859c5.317-2.433,9.76-4.587,14.263-6.488,3.778-5.034,7.135-10.907,10.295-12.585A3.7,3.7,0,0,1,528.714,425.369Z" transform="translate(-500.299 -423.826)"/><path class="by" d="M526.34,424.378c-.7,3.244-5.9,9.984-10.4,17.4l-12.75,5.789-1.566-1.65c4.726-2.349,9.285-4.531,13-6.069a5.834,5.834,0,0,0-2.436-4.279,12.541,12.541,0,0,1,4.114,2.377C519.432,432.321,522.6,426.839,526.34,424.378Z" transform="translate(-497.926 -422.835)"/></g><g transform="translate(40.192 12.761)"><path class="bz" d="M528.119,427.64c-2.71,5.118-5.426,10.4-8.166,15.718-3.887,2.377-8.39,4.894-13.254,7.523l-3.163-.895-2.8-.783,3.132-5.705,12.336-5.537c2.1-3.328,3.664-6.768,5.647-9.173a8.977,8.977,0,0,1,2.825-2.461C526.385,426.241,527.562,426.633,528.119,427.64Z" transform="translate(-500.739 -426.314)"/><path class="ca" d="M526.322,426.788c-2.71,5.118-5.426,10.4-8.166,15.718-3.887,2.377-8.39,4.894-13.254,7.523l-3.163-.895c1.793-1.063,3.943-2.349,3.943-2.349a77.63,77.63,0,0,0,11.355-6.181,10.291,10.291,0,0,0-2.187-3.211,6.057,6.057,0,0,1,3.006,1.737C523.039,429.775,523.688,428.2,526.322,426.788Z" transform="translate(-498.942 -425.462)"/></g><g transform="translate(0 2.298)"><path class="cb" d="M532.514,457.6a174.65,174.65,0,0,1-25.366,8.055L502.2,476.62l-1.51,3.356-14.319-10.823,8.614-12.893a18.179,18.179,0,0,1-1.734-5.621v-.056c-.811-6.432,2.964-11.8,10.068-17.088A52.168,52.168,0,0,0,516.4,422.643c1.342-.307,2.321.392,2.992,2.1.475,3.636-.112,5.9-1.93,8s-6.321,4.754-8.278,7.1a13.913,13.913,0,0,0,1.93-.14,60.172,60.172,0,0,0,6.013-1.482c5.174,2.853,12.417,8.167,15.13,13.089a7.6,7.6,0,0,1,1.035,3.048A4.5,4.5,0,0,1,532.514,457.6Z" transform="translate(-486.368 -422.573)"/><path class="cc" d="M504.909,431.347c-1.818,2.1-6.321,4.754-8.278,7.1a13.913,13.913,0,0,0,1.93-.14l-5.2,7.327c1.734-4.279,2.825-8,1.734-9.872,6.852-3.16,10.516-7.5,11.746-12.417C507.314,426.984,506.726,429.249,504.909,431.347Z" transform="translate(-473.809 -421.18)"/><path class="aj" d="M497.369,428.168a33.673,33.673,0,0,1,8.731,5.2c2.556,2.2,5.118,4.679,6.4,7.884a43.511,43.511,0,0,0-7.148-6.967C502.806,432.134,500.062,430.24,497.369,428.168Z" transform="translate(-466.602 -412.52)"/><path class="aj" d="M498.561,428.7a20.372,20.372,0,0,1-5.2,7.327c1.849-2.881,3.328-5.537,3.272-7.188A13.882,13.882,0,0,0,498.561,428.7Z" transform="translate(-473.807 -411.568)"/><path class="aj" d="M491.961,437.067c2.945-5.283,8.239-6.063,13.961-5.694C500.069,432.245,495.216,433.976,491.961,437.067Z" transform="translate(-476.319 -406.903)"/><path class="cd" d="M528.1,439.572a174.691,174.691,0,0,1-25.369,8.055l-4.95,10.963L490.9,454.45c0-.364,3.969-7.579,3.969-7.579-1.563-1.818-2.993-4.81-4.3-8.642a18.032,18.032,0,0,1-1.734-5.621c1.4,3.02,3.608,4.81,7.1,3.887-.022,3.351,1.754,5.89,7.571,6.589,5.37.643,16.646-3.065,25.372-6.757A4.487,4.487,0,0,1,528.1,439.572Z" transform="translate(-481.945 -404.542)"/></g></g><g transform="translate(0 25.475)"><path class="o" d="M566.427,459.549c-6.852,15.3-13.7,30.708-20.721,43.042-7.806,13.76-18.265,24.136-24.866,23.492-6.569-.615-20.525-9.649-30.121-16.892-12.529-9.425-24.916-22.262-31.908-29.058-2.573-2.489-4.363-10.544-4.475-18.766-.115-5.873.643-11.858,2.542-16.025,4.561-9.956,10.432-15.046,12.308-14.431,5.062,1.65,30.677,37.9,48.52,58.256a242.539,242.539,0,0,0,29.366-41.951c3.943,5.09,8.057,8.726,12.333,10.656A17.124,17.124,0,0,0,566.427,459.549Z" transform="translate(-454.326 -430.86)"/><path class="q" d="M566.42,442.2c-6.852,15.3-13.7,30.708-20.721,43.042-7.806,13.76-18.265,24.136-24.866,23.492-6.569-.615-20.525-9.649-30.121-16.892-12.529-9.425-24.916-22.262-31.908-29.058-2.573-2.489-4.363-10.544-4.475-18.766a359.717,359.717,0,0,0,64.546,56.466,41.864,41.864,0,0,0,.45-12.837A48.346,48.346,0,0,1,524.919,500c.671-2.769,1.452-8.67.948-11.886,2.489,1.063,4.31,5.118,6.293,6.069,8.39-11.047,15.606-22.989,19.1-37.756-2.657-1.734-5.789-5.9-9.313-12.138,3.806,3.887,7.551,6.908,11.187,7.691a35.027,35.027,0,0,0,6.265-11.467A17.124,17.124,0,0,0,566.42,442.2Z" transform="translate(-454.319 -413.508)"/></g></g><g transform="translate(247.487 1858.748)"><g transform="translate(10.718)"><path class="o" d="M482.607,453.975a39.4,39.4,0,0,1-11.76,17.177c-25.3,3.211-71.814,8.18-80.252,7.943-3.149-.081-5.017-4.419-5.8-9.884-1.278-9.126.467-21.476,4.3-22.967,6.119-2.377,52.3-12.736,79.871-18.433a53.4,53.4,0,0,1,16.618.414A57.346,57.346,0,0,1,482.607,453.975Z" transform="translate(-384.383 -427.358)"/><path class="o" d="M405.345,435.737c-.036-.109.294.146.895.629A3.93,3.93,0,0,1,405.345,435.737Z" transform="translate(-346.725 -412.348)"/><path class="o" d="M482.341,438.544a39.4,39.4,0,0,1-11.76,17.177c-25.3,3.211-71.814,8.18-80.252,7.943-3.149-.081-5.017-4.419-5.8-9.884l73.537-5.233s-11.162-9.923-14.437-12.6c4.136,2.581,21.851,11.97,21.851,11.97-.733-2.847-3.633-6.734-7.411-11.041a91.683,91.683,0,0,1,10.737,8.468C474.625,445.581,479.021,443.094,482.341,438.544Z" transform="translate(-384.116 -411.928)"/></g><g transform="translate(0 18.886)"><path class="ce" d="M417.08,439.385c-4.973-2.056-9.783,7.006-10.717,11.2s-.906,9.71,3.988,12.275S423.839,442.182,417.08,439.385Z" transform="translate(-335.025 -425.172)"/><g transform="translate(67.611 14.809)"><path class="cf" d="M448.562,474.466a60.983,60.983,0,0,1-16,7.168c-1.65.417-2.794.509-3.046.165-7.258-9.512-15.069-19.283-13.629-25.014l-11.013-1.91c-.814-7.565,1.566-13.147,9.064-15.469l3.225.663s9.288,1.877,12.823,3.689,22.732,23.887,22.732,23.887C453.362,470,452.128,472.072,448.562,474.466Z" transform="translate(-404.726 -439.406)"/><path class="cg" d="M432.565,481.634c-1.65.417-2.794.509-3.046.165-7.258-9.512-15.069-19.283-13.629-25.014l-11.013-1.91c-.814-7.565,1.566-13.147,9.064-15.469l3.225.663c-2.626,3.918-4.245,7.811-3.093,11.618l4.757,2.249C417.793,460.837,423.613,470.606,432.565,481.634Z" transform="translate(-404.726 -439.406)"/><path class="ch" d="M434.2,462.611l.154,10.51-1.04,7.213a6.872,6.872,0,0,1-2.662,1.731c-1.194-.182-1.969-.736-2.095-1.933l.66-6.368-1.575-8.653-6.424-8.234-1.412-1.821c1.72-3.029,3.63-5.065,5.834-5.554Z" transform="translate(-377.64 -421.265)"/><path class="ci" d="M433.288,461.016l.154,10.51-1.04,7.213a6.872,6.872,0,0,1-2.662,1.731c-1.194-.182-1.969-.736-2.095-1.933l.66-6.368-1.575-8.653-6.424-8.234c.5-2.145,1.144-4.891,1.144-4.891.59,3.432,3.071,7.719,6.981,12.65C430.855,463.544,432.421,462.769,433.288,461.016Z" transform="translate(-376.732 -419.669)"/><path class="cj" d="M429.624,467.485l-.372,12.655-2.719,8.276a3.584,3.584,0,0,1-2.59,1.278,3.193,3.193,0,0,1-2.346-2.953l1.678-7.993-.663-9.515-4.338-13.282-.182-.52c.484-.6.943-1.169,1.382-1.628l.025-.031,0-.028c2.139-2.333,4.122-3.5,5.929-3.345Z" transform="translate(-380.709 -419.678)"/><path class="ck" d="M429.507,465.309l-.372,12.655-2.719,8.276a3.584,3.584,0,0,1-2.59,1.278,3.193,3.193,0,0,1-2.346-2.953l1.678-7.993-.663-9.515-4.338-13.282,1.2-2.148.025-.031,4.961,16.462C427.127,467.9,428.618,466.82,429.507,465.309Z" transform="translate(-380.592 -417.502)"/><path class="cl" d="M426.813,469.282s-.959,10.6-.934,10.935c.036.417-3.7,8.972-3.7,8.972a5.024,5.024,0,0,1-3.625.294,3.717,3.717,0,0,1-1.057-2.973l2.416-7.548-.238-9.464-2.931-9.442-.906-2.872,1.351-.979,6.357-4.617Z" transform="translate(-384.758 -417.52)"/><path class="cm" d="M426.231,466.316s-.959,10.6-.934,10.935c.036.417-3.7,8.972-3.7,8.972a5.024,5.024,0,0,1-3.625.294,3.717,3.717,0,0,1-1.057-2.973l2.416-7.548-.238-9.464-2.931-9.442.445-3.851,4.422,15.016C423.625,468.7,425.375,468.078,426.231,466.316Z" transform="translate(-384.176 -414.554)"/><path class="cn" d="M421.655,453.238l1.284,15.748-2.358,8.947-3.306,6.947c-1.44.6-2.472.652-3.124.255-.822-.467-.912-1.919-.7-2.749l2.042-6.62.448-7.246-1.924-11.573a19.152,19.152,0,0,1,2.106-1.686A10.336,10.336,0,0,1,421.655,453.238Z" transform="translate(-389.223 -414.554)"/><path class="co" d="M422.939,467.687l-2.358,8.947-3.306,6.947c-1.44.6-2.472.652-3.124.255-.822-.467-.912-1.919-.7-2.749l2.042-6.62.448-7.246s-1.97-8.258-1.924-11.573,1.415-1.211,2.106-1.686c.543,5.621,1.04,10.689,1.51,14.747C419.44,469.516,421.591,469.732,422.939,467.687Z" transform="translate(-389.223 -413.255)"/></g><path class="o" d="M454.464,463.776a14.95,14.95,0,0,0,1.412,8.024s-39.2-2.084-58.4-4.838c-12.577-1.809-17.088-8.625-16.926-15.569.2-8.519,7.434-17.275,15.43-17.281,14.479,0,43.59,7.056,66.621,14.213C458.782,449.954,454.919,456.977,454.464,463.776Z" transform="translate(-380.55 -434.111)"/><path class="q" d="M455.876,465.195s-39.2-2.084-58.4-4.838c-12.577-1.809-17.088-8.625-16.926-15.569q21.9,7.43,53.412,9.789c1.726-8.08,5.465-13.491,10.781-16.789-3.84,5.224-6.307,10.756-5.865,16.867l15.581,2.517A14.95,14.95,0,0,0,455.876,465.195Z" transform="translate(-380.55 -427.506)"/></g></g><g transform="translate(342.607 1622)"><path class="o" d="M510.368,402.378l-69.638-.028c-14.012,4.671-23.521-3.384-26.625-16.109a39.171,39.171,0,0,1-.811-4.587,26.438,26.438,0,0,1,.979-10.208c3.748-12.949,16.92-25.226,39.518-16.557.615.224,1.23.475,1.846.727,13.424-10.516,34.092-16.5,53.613.447.475-.14.951-.28,1.426-.392,10.935-2.909,19.521-1.566,25.478,3.664,3.971,3.5,6.712,8.726,8.139,15.55a50.051,50.051,0,0,1,1.063,8.083C546.754,406.377,520.493,407.16,510.368,402.378Z" transform="translate(-413.152 -345.439)"/><path class="cp" d="M434.488,349.545c-2.6,1.9-5.817,2.153-9.565,1.035,3.3-.084,6.153-.475,7.719-1.762C433.257,349.042,433.872,349.294,434.488,349.545Z" transform="translate(-392.003 -339.368)"/><path class="cp" d="M454.617,352.426c-2.461-.28-4.922-.783-7.1-2.937.475-.14.951-.28,1.426-.392A17.016,17.016,0,0,0,454.617,352.426Z" transform="translate(-351.415 -338.865)"/><path class="q" d="M510.368,385.67l-69.638-.028c-14.012,4.671-23.521-3.384-26.625-16.109a39.171,39.171,0,0,1-.811-4.587,26.438,26.438,0,0,1,.979-10.208c-.68,16.249,26.27,27.036,35.966,14.823a40.824,40.824,0,0,1-5.006-7.355c23.8,19.046,49.726,18.766,74.589-.671a33.556,33.556,0,0,1-3.16,10.348c6.726,9.2,29.047.308,27.632-13.7a50.051,50.051,0,0,1,1.063,8.083C546.754,389.669,520.493,390.452,510.368,385.67Z" transform="translate(-413.152 -328.731)"/><path class="cp" d="M430.5,365.144l.892-1.471a41.311,41.311,0,0,1-4.212-3.51A23,23,0,0,0,430.5,365.144Z" transform="translate(-387.953 -318.984)"/><path class="cp" d="M446.88,367.379l-.657-1.58c1.838-1.312,4.3-3.49,6.832-5.761A47.458,47.458,0,0,1,446.88,367.379Z" transform="translate(-353.733 -319.208)"/><g transform="translate(21.257 44.689)"><path class="o" d="M508.542,407.788c-1.818-.308-3.664-.615-5.537-.895-3.216-.5-6.489-.979-9.817-1.259-23.744-2.125-48.747-1.37-67.709,1.4-1.622.224-3.188.476-4.726.755,0,0,2.237-21.87,2.713-32.917.14-3.72.252-6.209.224-6.349a78.616,78.616,0,0,1,19.241-7.1c4.027,3.72,13.62,8.894,24.164,9.285,9.984.364,20.919-3.859,24.891-7.383,4.531,1.2,8.055,2.909,12.781,4.643Z" transform="translate(-420.753 -361.418)"/><path class="q" d="M508.542,407.788c-1.818-.308-3.664-.615-5.537-.895l-2.853-34.819a19.619,19.619,0,0,0-8.558-4.727c-17.284,7.188-33.085,6.125-47.544-1.231a63.526,63.526,0,0,0-14.851,5.789l-3.72,35.127c-1.622.224-3.188.476-4.726.755,0,0,2.237-21.87,2.713-32.917.14-3.72.252-6.209.224-6.349a78.616,78.616,0,0,1,19.241-7.1c4.027,3.72,13.62,8.894,24.164,9.285,9.984.364,20.919-3.859,24.891-7.383,4.531,1.2,8.055,2.909,12.781,4.643Z" transform="translate(-420.753 -361.418)"/><path class="cp" d="M421.8,368.522a79.5,79.5,0,0,1,19.241-7.1h0A37.356,37.356,0,0,0,452.4,368a41.1,41.1,0,0,0,12.854,2.7,43.669,43.669,0,0,0,13.024-1.737c4.189-1.256,8.4-2.853,11.824-5.647h0c4.4,1.149,8.522,3.093,12.781,4.643-2.223-.523-4.4-1.225-6.567-1.882s-4.343-1.205-6.5-1.689l1.021-.241a25.453,25.453,0,0,1-5.775,3.871,37.078,37.078,0,0,1-6.318,2.581,45.364,45.364,0,0,1-13.561,2.019,38.352,38.352,0,0,1-13.433-2.914c-4.215-1.759-8.331-3.843-11.7-7.207l1.314.355a75.092,75.092,0,0,0-9.839,2.352C428.244,366.117,425.061,367.378,421.8,368.522Z" transform="translate(-418.866 -361.418)"/></g></g><path class="cq" d="M3.954,0H158.713c2.184,0,3.954,2.261,3.954,5.05V47.616c0,2.789-1.77,5.05-3.954,5.05H3.954C1.77,52.667,0,50.406,0,47.616V5.05C0,2.261,1.77,0,3.954,0Z" transform="translate(770 2024.333)"/><path class="cr" d="M4.813,0H193.188C195.845,0,198,1.331,198,2.973V28.027c0,1.642-2.155,2.973-4.813,2.973H4.813C2.155,31,0,29.669,0,28.027V2.973C0,1.331,2.155,0,4.813,0Z" transform="translate(697 2040)"/><path class="cs" d="M5.712,0H229.288A5.936,5.936,0,0,1,235,6.137V57.863A5.936,5.936,0,0,1,229.288,64H5.712A5.936,5.936,0,0,1,0,57.863V6.137A5.936,5.936,0,0,1,5.712,0Z" transform="translate(714 2024)"/><text class="ct" transform="translate(930 2063)"><tspan x="-142.11" y="0">Fastest Delivery</tspan></text><g transform="translate(734 1982)"><path class="e" d="M10.351,136H6.17a1.029,1.029,0,0,0-1.028,1.028v1.028H0v3.085H10.351Z" transform="translate(0 -69.859)"/><path class="e" d="M7.582,64.085h4.182V61H7.582a6.166,6.166,0,0,0-6.066,5.141H4.673A3.091,3.091,0,0,1,7.582,64.085Z" transform="translate(-1.412)"/><path class="e" d="M277.17,65.113h6.17V61h-6.17a2.027,2.027,0,0,0-1.741,1.028H271v2.057h4.428A2.027,2.027,0,0,0,277.17,65.113Z" transform="translate(-252.422)"/><path class="e" d="M34.47,423.057A5.253,5.253,0,0,0,38.625,421H30.383A5.12,5.12,0,0,0,34.47,423.057Z" transform="translate(-28.3 -335.321)"/><path class="e" d="M354.557,421h-8.174a5.089,5.089,0,0,0,8.174,0Z" transform="translate(-322.638 -335.321)"/><path class="e" d="M6.17,301A6.17,6.17,0,0,0,0,307.17H12.408A6.229,6.229,0,0,0,6.17,301Z" transform="translate(0 -223.547)"/><path class="e" d="M32.672,161.346l-.883-.127V151H29.362a2.059,2.059,0,0,0-2.015,1.651l-1.727,8.632a2.059,2.059,0,0,1-2.057,2.057H21.506a2.059,2.059,0,0,1-2.057-2.057v-2.057a2.059,2.059,0,0,0-2.057-2.057H9.1a6.164,6.164,0,0,0-5.954,4.638A8.185,8.185,0,0,1,9.1,159.226a8.3,8.3,0,0,1,8.295,8.226H38.027a6.145,6.145,0,0,0-.979-3.332A6.3,6.3,0,0,0,32.672,161.346Z" transform="translate(-2.928 -83.83)"/></g><path class="cq" d="M3.954,0H158.713c2.184,0,3.954,2.261,3.954,5.05V47.616c0,2.789-1.77,5.05-3.954,5.05H3.954C1.77,52.667,0,50.406,0,47.616V5.05C0,2.261,1.77,0,3.954,0Z" transform="translate(682 1816.333)"/><path class="cr" d="M4.813,0H193.188C195.845,0,198,1.331,198,2.973V28.027c0,1.642-2.155,2.973-4.813,2.973H4.813C2.155,31,0,29.669,0,28.027V2.973C0,1.331,2.155,0,4.813,0Z" transform="translate(609 1832)"/><path class="cs" d="M5.517,0H221.483C224.53,0,227,2.748,227,6.137V57.863c0,3.389-2.47,6.137-5.517,6.137H5.517C2.47,64,0,61.252,0,57.863V6.137C0,2.748,2.47,0,5.517,0Z" transform="translate(626 1816)"/><text class="ct" transform="translate(815 1855)"><tspan x="-118.728" y="0">Healthy Food</tspan></text><g transform="translate(643.002 1829)"><path class="e" d="M6.111,18.6a43.333,43.333,0,0,0,3.465,4.646h.94a14,14,0,0,0-.5-2,14.787,14.787,0,0,0-4.2-6.3l.73-.806a15.855,15.855,0,0,1,4.5,6.757c.144.428.262.867.367,1.31.049-.089.1-.177.142-.272,1.224-2.719.629-7.05-1.973-8.552a5.2,5.2,0,0,0-4.079-.3A2.284,2.284,0,0,0,4.062,14.2c-.289.729.5,2.01,2.049,4.4Z" transform="translate(-0.003 -4.472)"/><path class="e" d="M25.7,18.96A3.967,3.967,0,0,0,25.456,18c-.848-2.152-3.322-3.351-4.805-2.909a2.364,2.364,0,0,0-1.2.907,9.246,9.246,0,0,1,.317,6.933c.031-.038.068-.072.1-.109a10.116,10.116,0,0,0,2.061-5.161l1.081.119a11.14,11.14,0,0,1-2.29,5.717c-.207.262-.435.509-.668.751h2.508l.045-.021A4.329,4.329,0,0,1,25.7,18.961Z" transform="translate(-7.051 -5.475)"/><path class="e" d="M45.34,24.9h5.447a3.138,3.138,0,0,0-1.4-1.123,3.982,3.982,0,0,0-1.142-.207c-.5-.037-1.065-.079-1.328-.6-.272-.549.1-1.012.4-1.385a2.858,2.858,0,0,0,.647-1.155c.269-1.172.272-3.139-.824-3.756a2.131,2.131,0,0,0-1.661-.117,3.372,3.372,0,0,0-1.94,1.526,3.544,3.544,0,0,0,.063,2.6c.239.877.489,1.8-.17,2.433s-1.647.381-2.594.122a4.1,4.1,0,0,1-.1,1.66h3.5c.136-.77.289-1.541.467-2.3.3-1.3.675-2.594,1.1-3.857l1.03.348c-.416,1.23-.777,2.494-1.073,3.758-.159.677-.3,1.364-.421,2.051Z" transform="translate(-16.759 -6.132)"/><path class="e" d="M33.338,28.392a3.168,3.168,0,0,0,.177-.873l-.9.3-.344-1.033,1.132-.377a3.269,3.269,0,0,0-2.592-2.319v1.039H29.719V24.09a3.269,3.269,0,0,0-2.41,1.838l.951.317-.344,1.033-.9-.3Q27,27.141,27,27.3a3.2,3.2,0,0,0,.188,1.088Zm-3.619-2.175h1.088V27.3H29.719Z" transform="translate(-10.492 -9.62)"/><path class="e" d="M8.161,30.077Q7.249,28.965,6.4,27.784a8.694,8.694,0,0,0-1.437.628,1.721,1.721,0,0,0-.857.816,1.483,1.483,0,0,0-.085.85Z" transform="translate(0 -11.305)"/><path class="e" d="M4.018,34A14.7,14.7,0,0,0,18.692,48.14H19.78A14.7,14.7,0,0,0,34.455,34Zm9,11.367a14.77,14.77,0,0,1-6.211-5.646l.93-.565a13.69,13.69,0,0,0,5.754,5.231Zm2.412.6H14.342V44.877h1.088Z" transform="translate(-0.009 -14.14)"/><path class="e" d="M41.526,7.088V6H39.351A4.351,4.351,0,0,0,35,10.351v1.088h2.175a4.351,4.351,0,0,0,4.351-4.351Z" transform="translate(-14.141 -1.368)"/><circle class="e" cx="1.088" cy="1.088" r="1.088" transform="translate(15.964 4.632)"/><circle class="e" cx="1.088" cy="1.088" r="1.088" transform="translate(8.894 3)"/></g><path class="cq" d="M3.954,0H158.713c2.184,0,3.954,2.261,3.954,5.05V47.616c0,2.789-1.77,5.05-3.954,5.05H3.954C1.77,52.667,0,50.406,0,47.616V5.05C0,2.261,1.77,0,3.954,0Z" transform="translate(727 1920.333)"/><path class="cr" d="M4.813,0H193.188C195.845,0,198,1.331,198,2.973V28.027c0,1.642-2.155,2.973-4.813,2.973H4.813C2.155,31,0,29.669,0,28.027V2.973C0,1.331,2.155,0,4.813,0Z" transform="translate(654 1936)"/><path class="cs" d="M5.517,0H221.483C224.53,0,227,2.748,227,6.137V57.863c0,3.389-2.47,6.137-5.517,6.137H5.517C2.47,64,0,61.252,0,57.863V6.137C0,2.748,2.47,0,5.517,0Z" transform="translate(671 1920)"/><text class="ct" transform="translate(870 1959)"><tspan x="-130.32" y="0">Delicious Meal</tspan></text><path class="e" d="M14.5,0A14.5,14.5,0,1,0,29,14.5,14.511,14.511,0,0,0,14.5,0ZM9.063,8.458a3.022,3.022,0,0,1,3.021,3.021.906.906,0,0,1-1.812,0,1.208,1.208,0,0,0-2.417,0,.906.906,0,0,1-1.812,0A3.022,3.022,0,0,1,9.063,8.458Zm13.751,9.92A9.87,9.87,0,0,1,14.8,22.946a2.526,2.526,0,0,1-.3.012,9.63,9.63,0,0,1-4.882-1.317,1.321,1.321,0,0,1-.181-.1,9.91,9.91,0,0,1-3.25-3.166A.9.9,0,0,1,7.709,17.4c.109.169.23.338.35.5a8.118,8.118,0,0,0,1,1.124v-1.2A3.321,3.321,0,0,1,12.385,14.5a3.342,3.342,0,0,1,3.323,3.323v3.226A8.076,8.076,0,0,0,20.94,17.9c.121-.157.242-.326.35-.5a.9.9,0,0,1,1.522.979Zm-.761-5.993a.913.913,0,0,1-.906-.906,1.208,1.208,0,1,0-2.417,0,.906.906,0,0,1-1.812,0,3.021,3.021,0,1,1,6.042,0A.913.913,0,0,1,22.052,12.385Z" transform="translate(691 1938)"/><g transform="translate(179.773 2013)"><path class="f" d="M600.184,450.439a21.737,21.737,0,0,0,11.036-20.093c-.455-13.369-10.2-21.595-14.413-21.862-4.42.268-14.049,8.339-14.65,21.7a21.738,21.738,0,0,0,10.81,20.213c1.693.968.347,14.323.347,14.323-1.282,20.676-.482,67.69-.482,67.69.194,2.759,3.277,2.645,3.277,2.645s3.073.149,3.3-2.608c0,0,1.323-47,.269-67.692,0,0-1.2-13.369.505-14.318" transform="translate(-579.472 -408.484)"/><path class="f" d="M1262.377,411.222c-.2-3.015-1.011-2.479-1.011-2.479-1.53,4.182-1.19,27.3-1.19,27.3a1.373,1.373,0,0,1-1.17,1.061c-.116-2.328-.966-19.494-1.118-25.737,0,0-.27-2.977-.8-2.765,0,0-.532-.372-.584,2.659-.047,2.871.058,22.947-.385,25.62-.12-.03-.223-.06-.3-.083v-.046l-.081.023-.081-.023v.045c-.073.023-.169.053-.28.077-.153-3.05-.957-19.445-1.108-25.506,0,0-.266-2.977-.8-2.764,0,0-.533-.372-.579,2.659-.053,2.978.063,24.4-.436,25.842a1.358,1.358,0,0,1-1.149-1.056s.306-23.121-1.227-27.3c0,0-.808-.535-1.007,2.481s-3.813,28.365.708,33.968,4.681,5.238,4.438,9.568c-.191,3.491-2.479,23.045-2.49,47.994l.074.026c.011,15.919.245,29.739.245,29.739.192,2.737,3.251,2.621,3.251,2.621s3.048.151,3.275-2.585c0,0,.356-12.728.549-27.825.24.092.478.188.713.294.1-26.028-2.348-46.67-2.549-50.266-.244-4.329-.082-3.965,4.428-9.573s.868-30.953.665-33.969" transform="translate(-1145.927 -408.575)"/><path class="cu" d="M845.377,491.407a.792.792,0,0,1-.694-.408l-10.978-19.758a.793.793,0,0,1,.308-1.079l2.316-1.287a.793.793,0,0,1,1.079.308l10.978,19.758a.793.793,0,0,1-.308,1.079l-2.316,1.287a.793.793,0,0,1-.385.1" transform="translate(-793.559 -459.811)"/><rect class="cu" width="2.65" height="22.603" transform="matrix(0.874, -0.486, 0.486, 0.874, 40.84, 11.044)"/><path class="cu" d="M804.48,413.31c1.8,3.244,1.393,6.914-.916,8.2s-5.641-.308-7.443-3.552-1.393-6.914.915-8.2,5.641.308,7.443,3.552" transform="translate(-760.691 -409.191)"/><path class="cv" d="M807.719,429.241c-1.147-2.065-.98-4.381.325-5.394a2.355,2.355,0,0,0-.328.149c-1.575.875-1.855,3.379-.625,5.594s3.5,3.3,5.079,2.424a2.345,2.345,0,0,0,.3-.2c-1.549.573-3.6-.508-4.752-2.573" transform="translate(-770.334 -421.563)"/><path class="cu" d="M1057.26,491.407a.794.794,0,0,0,.694-.408l10.977-19.758a.793.793,0,0,0-.308-1.079l-2.316-1.287a.793.793,0,0,0-1.079.308l-10.978,19.758a.793.793,0,0,0,.308,1.079l2.316,1.287a.79.79,0,0,0,.385.1" transform="translate(-981.314 -459.811)"/><rect class="cu" width="22.603" height="2.649" transform="translate(73.63 29.515) rotate(-60.941)"/><path class="cu" d="M1122.632,413.31c-1.8,3.244-1.393,6.914.915,8.2s5.641-.308,7.444-3.552,1.393-6.914-.916-8.2-5.64.308-7.443,3.552" transform="translate(-1038.656 -409.191)"/><path class="cv" d="M1133.036,424.565c1.267-1.994,3.382-2.953,4.895-2.289a2.3,2.3,0,0,0-.287-.217c-1.521-.966-3.855-.016-5.214,2.121s-1.226,4.654.295,5.62a2.365,2.365,0,0,0,.318.168c-1.244-1.088-1.274-3.41-.007-5.4" transform="translate(-1047.156 -419.719)"/><path class="cu" d="M835.9,503.328a32.618,32.618,0,0,0-55.682,23.064v40.853a32.618,32.618,0,1,0,65.236,0V526.392a32.4,32.4,0,0,0-9.553-23.064" transform="translate(-748.105 -481.093)"/><path class="e" d="M835.542,618.607h0a28.651,28.651,0,0,1-28.651-28.651V549.1a28.652,28.652,0,0,1,57.3,0v40.853a28.652,28.652,0,0,1-28.652,28.651" transform="translate(-770.815 -503.804)"/><path class="cw" d="M811.1,589.88V549.027A28.653,28.653,0,0,1,837.14,520.5c-.529-.029-1.062-.045-1.6-.045A28.651,28.651,0,0,0,806.89,549.1v40.853a28.651,28.651,0,0,0,28.651,28.651c.881,0,1.752-.042,2.613-.12A28.652,28.652,0,0,1,811.1,589.88" transform="translate(-770.815 -503.803)"/><path class="cu" d="M874.472,1096.546H826.3a2.027,2.027,0,0,1-2.026-2.026v-1.771a.566.566,0,0,1,.567-.566h51.092a.567.567,0,0,1,.567.566v1.771a2.027,2.027,0,0,1-2.026,2.026" transform="translate(-785.614 -990.531)"/><rect class="cu" width="58.295" height="4.006" transform="translate(35.848 91.158)"/><rect class="cx" width="58.295" height="6.365" transform="translate(35.848 65.65)"/><path class="cu" d="M974.824,1184.119a2.11,2.11,0,0,0-1.765-.949h-6.1a2.115,2.115,0,0,0-1.946,2.944l3.052,7.163a2.115,2.115,0,0,0,3.892,0l3.052-7.163a2.11,2.11,0,0,0-.181-2" transform="translate(-905.281 -1067.991)"/><path class="cu" d="M985.738,952.941v-2.13a14.615,14.615,0,0,1-.155,2.13Z" transform="translate(-922.94 -870.179)"/><path class="cu" d="M939.829,819.262c3.908.543,6.958,5.077,6.958,10.591V808.728h0c-.021,5.488-3.063,9.993-6.957,10.534" transform="translate(-883.989 -749.22)"/><path class="cu" d="M631.088,715.809a33.963,33.963,0,0,0-5.6-13.358c-.041-.06-.083-.118-.128-.176-4.321-5.608-10.171-8.7-16.474-8.7H572.415a7.758,7.758,0,0,0-6.09,3.09,10.412,10.412,0,0,0,0,12.469,7.971,7.971,0,0,0,4.406,2.892,7.968,7.968,0,0,0-4.406,2.892,10.127,10.127,0,0,0-2.073,6.234v.589a10.127,10.127,0,0,0,2.073,6.234,7.969,7.969,0,0,0,4.406,2.892,7.97,7.97,0,0,0-4.406,2.892,10.412,10.412,0,0,0,0,12.468,7.758,7.758,0,0,0,6.09,3.09h36.474a19.072,19.072,0,0,0,9.384-2.482,23.365,23.365,0,0,0,7.266-6.449c.027-.036.053-.071.079-.109a35.063,35.063,0,0,0,5.329-12.831,31.723,31.723,0,0,0,.142-11.639" transform="translate(-564.252 -651.19)"/><path class="cy" d="M645.081,760.711c1.477-2.1,11.062-16.968-.149-33.3-3.4-4.407-8.108-7.152-13.333-7.152H595.125c-2.318,0-4.2,2.4-4.2,5.358s1.879,5.357,4.2,5.357h22.81c1.711,0,3.1,1.687,3.1,3.768s-1.387,3.768-3.1,3.768h-22.81c-2.318,0-4.2,2.4-4.2,5.358v.589c0,2.959,1.879,5.358,4.2,5.358h22.81c1.711,0,3.1,1.687,3.1,3.768s-1.387,3.768-3.1,3.768h-22.81c-2.318,0-4.2,2.4-4.2,5.358s1.879,5.358,4.2,5.358H631.6c5.3,0,10.076-2.829,13.481-7.352" transform="translate(-586.963 -673.901)"/><path class="f" d="M593.694,730.648a6.246,6.246,0,0,1-1.064-3.564c0-2.959,1.879-5.358,4.2-5.358H633.3a15.682,15.682,0,0,1,9.614,3.406,16.183,16.183,0,0,0-11.313-4.88H595.126c-2.318,0-4.2,2.4-4.2,5.358a5.455,5.455,0,0,0,2.764,5.038" transform="translate(-586.964 -673.9)"/><path class="f" d="M592.63,942.666c0-2.959,1.879-5.358,4.2-5.358h22.81c1.711,0,3.1-1.687,3.1-3.768a3.734,3.734,0,0,0-2.256-3.626,4.331,4.331,0,0,1,.556,2.153c0,2.081-1.387,3.768-3.1,3.768h-22.81c-2.318,0-4.2,2.4-4.2,5.358a5.456,5.456,0,0,0,2.764,5.037,6.244,6.244,0,0,1-1.064-3.564" transform="translate(-586.964 -852.389)"/><path class="f" d="M593.694,820.1a6.243,6.243,0,0,1-1.064-3.564v-.589c0-2.959,1.879-5.358,4.2-5.358h22.81c1.711,0,3.1-1.687,3.1-3.768a3.734,3.734,0,0,0-2.256-3.626,4.331,4.331,0,0,1,.556,2.153c0,2.081-1.387,3.768-3.1,3.768h-22.81c-2.318,0-4.2,2.4-4.2,5.358v.589a5.455,5.455,0,0,0,2.764,5.037" transform="translate(-586.964 -744.508)"/><path class="cu" d="M929,742.732c2.868,2.566,10.664,11.49,3.342,20.165,0,0,8.843,11.328-3.545,20.791l8.46-6.154,3.086-11.807-1.2-11.656-3.842-7.116s-7.85-5.581-6.3-4.224" transform="translate(-874.596 -692.855)"/><path class="cu" d="M1043.88,712.026a7.97,7.97,0,0,0,4.406-2.892,10.413,10.413,0,0,0,0-12.469,7.759,7.759,0,0,0-6.089-3.09h-36.475c-6.3,0-12.154,3.089-16.474,8.7-.045.058-.088.118-.129.177a33.967,33.967,0,0,0-5.6,13.358,31.73,31.73,0,0,0,.142,11.639,35.052,35.052,0,0,0,5.325,12.826c.026.038.054.076.082.113a23.372,23.372,0,0,0,7.267,6.45,19.075,19.075,0,0,0,9.383,2.482H1042.2a7.759,7.759,0,0,0,6.089-3.09,10.413,10.413,0,0,0,0-12.468,7.971,7.971,0,0,0-4.406-2.892,7.968,7.968,0,0,0,4.406-2.892,10.126,10.126,0,0,0,2.072-6.234v-.589a10.127,10.127,0,0,0-2.072-6.234,7.971,7.971,0,0,0-4.406-2.892" transform="translate(-920.786 -651.189)"/><path class="cy" d="M1014.95,760.711c-1.477-2.1-11.062-16.967.149-33.3,3.395-4.407,8.108-7.152,13.333-7.152h36.474c2.317,0,4.2,2.4,4.2,5.358s-1.879,5.357-4.2,5.357H1042.1c-1.711,0-3.1,1.687-3.1,3.768s1.387,3.768,3.1,3.768h22.81c2.317,0,4.2,2.4,4.2,5.358v.589c0,2.959-1.879,5.358-4.2,5.358H1042.1c-1.711,0-3.1,1.687-3.1,3.768s1.387,3.769,3.1,3.769h22.81c2.317,0,4.2,2.4,4.2,5.358s-1.879,5.358-4.2,5.358h-36.474c-5.3,0-10.077-2.829-13.482-7.352" transform="translate(-943.496 -673.901)"/><path class="f" d="M1222.926,970.021h22.81a3.434,3.434,0,0,1,1.717.469,3.948,3.948,0,0,0-3.3-2.056h-22.81a2.606,2.606,0,0,1-1.064-.228,3.034,3.034,0,0,0,2.65,1.815" transform="translate(-1122.739 -884.987)"/><path class="f" d="M1244.151,841.711h-22.81a2.6,2.6,0,0,1-1.063-.228,3.034,3.034,0,0,0,2.65,1.814h22.81a3.433,3.433,0,0,1,1.717.469,3.949,3.949,0,0,0-3.3-2.056" transform="translate(-1122.74 -777.105)"/><path class="f" d="M1016.535,762.3c-1.476-2.1-11.062-16.968.149-33.305,3.4-4.407,8.108-7.152,13.333-7.152h36.474a3.432,3.432,0,0,1,1.717.469,3.949,3.949,0,0,0-3.3-2.055h-36.474c-5.224,0-9.938,2.745-13.333,7.152-11.211,16.338-1.625,31.2-.149,33.3a21.122,21.122,0,0,0,2.8,3.056q-.63-.7-1.21-1.47" transform="translate(-943.494 -673.9)"/><path class="cu" d="M1004.513,742.732c-2.868,2.566-10.664,11.49-3.342,20.165,0,0-8.844,11.328,3.544,20.791l-8.459-6.154-3.086-11.807,1.2-11.656,3.842-7.116s7.85-5.581,6.3-4.224" transform="translate(-929.399 -692.855)"/><path class="ba" d="M608.825,431.778c-.37.266-20.135,15.126-1,35.649,0,0-15.856-14.7,1-35.649" transform="translate(-594.255 -428.315)"/></g></g></svg>