<svg xmlns="http://www.w3.org/2000/svg" width="549.454" height="358.953" viewBox="0 0 549.454 358.953"><defs><style>.a,.b{opacity:0.24;}</style></defs><g transform="translate(0 -99.24)"><g class="a" transform="translate(267.92 578.53) rotate(-120)"><path d="M2.168,25.912c5.8-7.078,9.082-15.421,10.977-24.32A1.279,1.279,0,0,0,10.681.913C8.4,9.316,4.5,16.865.162,24.363-.542,25.577,1.222,27.065,2.168,25.912Z" transform="translate(426.22 89.637)"/><path d="M1.424,18.006c6.694-4.27,12.141-10.181,16.76-16.594C18.8.556,17.413-.518,16.72.281,11.646,6.145,5.953,11.263.279,16.52A.95.95,0,0,0,1.424,18.006Z" transform="translate(388.124 146.302)"/><path d="M2.108,18.357A143.051,143.051,0,0,0,29.6,2.312c1.246-.9.087-2.983-1.227-2.1A266.155,266.155,0,0,1,.715,15.974C-.9,16.8.518,19.033,2.108,18.357Z" transform="translate(336.847 184.585)"/><path d="M.973,5.929c9.06,2,18.161.251,26.507-3.588,1.262-.578.36-2.773-.954-2.266-8.221,3.171-16.468,3.7-25.19,3.168A1.373,1.373,0,0,0,.973,5.929Z" transform="translate(267.887 211.624)"/><path d="M.666,2.5A29.371,29.371,0,0,0,21.684,5.722c1.14-.232.9-2.211-.278-2.059A33.039,33.039,0,0,1,2.034.157,1.356,1.356,0,0,0,.666,2.5Z" transform="translate(218.697 209.699)"/><path d="M.482,1.99a71.877,71.877,0,0,0,7.345,3.5c1.088.483,2.05-1.042.954-1.633A73.556,73.556,0,0,0,1.289.073C.169-.38-.513,1.4.482,1.99Z" transform="translate(175.55 191.508)"/><path d="M.046,1.794C1.753,8.215,6.123,13.36,11.517,17.09c1.227.848,2.8-1.153,1.611-2.089C8.288,11.206,5.123,6.263,2.617.709,1.949-.769-.352.294.046,1.794Z" transform="translate(133.475 147.602)"/><path d="M2.523,23.839c.2,1.491,2.74,1.148,2.634-.354C4.634,16.008,4.3,8.516,3.063,1.116,2.774-.624-.067-.209,0,1.53.3,9.014,1.52,16.425,2.523,23.839Z" transform="translate(117.4 92.959)"/><path d="M2.867,23.105C6.957,15.867,12.388,9.634,16.7,2.588,17.77.843,15.39-.844,13.953.467,7.837,6.046,3.709,14.157.173,21.53-.683,23.318,1.866,24.875,2.867,23.105Z" transform="translate(124.432 25.151)"/><path d="M1.211,3.268c6.833-.755,13.333.218,20.114.976,1.363.153,1.371-1.783.3-2.208C15.01-.592,7.8-.306.881.831-.482,1.055-.179,3.421,1.211,3.268Z" transform="translate(182.592 0)"/><path d="M.57,2.419c6.047,4.272,12.019,8.635,18.366,12.455,1.56.941,2.781-1.35,1.393-2.383C14.393,8.065,8.1,4.191,1.862.213.455-.684-.752,1.484.57,2.419Z" transform="translate(239.059 18.487)"/><path d="M.048,1.59A50.666,50.666,0,0,1,1.2,19.538c-.153,1.481,2.331,1.821,2.612.352A37.6,37.6,0,0,0,2.537.905,1.292,1.292,0,0,0,.048,1.59Z" transform="translate(279.262 69.539)"/><path d="M2.2,16.427c3.2-4.755,6.238-9.573,9.221-14.464C12.321.5,10.05-.816,9.128.621,6.042,5.445,3.045,10.284.174,15.241A1.176,1.176,0,0,0,2.2,16.427Z" transform="translate(264.383 131.431)"/><path d="M1.924,16.63A23.711,23.711,0,0,0,15.379,1.482C15.857-.062,13.588-.593,13.013.83A27.355,27.355,0,0,1,.648,14.444C-.822,15.231.471,17.257,1.924,16.63Z" transform="translate(226.059 171.6)"/><path d="M2.2,10.774a107.161,107.161,0,0,0,10.764-8.09C14.322,1.6,12.509-.781,11.089.255A107.556,107.556,0,0,0,.431,8.487,1.463,1.463,0,0,0,2.2,10.774Z" transform="translate(177.115 218.059)"/><path d="M1.546,13.185C9.7,9.949,17.7,6.235,25.51,2.249c1.178-.6.346-2.677-.916-2.17C16.455,3.345,8.387,6.9.589,10.92-.635,11.549.227,13.709,1.546,13.185Z" transform="translate(117.038 245.967)"/><path d="M1.852,15.547c6.666-6.009,14-10.854,22.611-13.537A1.023,1.023,0,0,0,23.92.038C14.8,2.386,6.5,6.811.3,13.992A1.1,1.1,0,0,0,1.852,15.547Z" transform="translate(59.419 276.395)"/><path d="M2.873,18.31A37.167,37.167,0,0,1,13.157,2.343c1.123-.992-.4-3.035-1.625-2.108C5.714,4.652,1.564,10.318.04,17.527A1.47,1.47,0,0,0,2.873,18.31Z" transform="translate(18.757 316.574)"/></g><path class="b" d="M17.081,99.266c-15.306-12.6-3.23-33.737,12.37-38.552C24.823,54.6,22.338,47.468,26,41.094a1.094,1.094,0,0,1,.234-.258l.02-.067C16.807,37,3.945,35.537,1.544,48.582c-.14.762-1.39,1-1.488.082C-.537,43.049,3.668,38.51,8.747,36.69c6.054-2.169,12.522-.189,17.807,3.027A14.824,14.824,0,0,1,30.69,33.57a23.483,23.483,0,0,1-9.168-16.66c-.332-3.729.764-11.364,6.185-8.243.951.546.114,1.8-.8,1.586-6.031-1.419-1.506,12.923-.962,14.09a25.221,25.221,0,0,0,6.145,8.087c.307-.229.617-.457.938-.666,4.432-2.891,9.651-3.41,14.731-2.655-3.893-6.664-1.189-16.489,3.537-21.99C57.117.339,66.93-1.639,75.22,1.361A21.388,21.388,0,0,1,89,20.819c.4,9.742-6.179,18.734-14.887,22.785,3.851,4.717,5.954,10.462,4.595,17.143C76.154,73.294,64.251,78.35,53,76.474c1.984,8.032-5.853,17.562-11.762,21.932C34.272,103.556,24.155,105.091,17.081,99.266ZM33.871,33.931l.049.038a.726.726,0,0,1-.815,1.2c-.189-.109-.37-.229-.557-.343a13.138,13.138,0,0,0-4.432,6.323,1.021,1.021,0,0,1,.125,1.078c-2.517,5.5-.468,11.446,3.285,16.625C30.9,48.312,38.1,37.038,46.849,31.917c.61-.359,1.256.6.69,1.036a34.814,34.814,0,0,0-10.9,12.872c-2.328,5.009-2.671,9.954-3.187,15.333a.541.541,0,0,1-.027.091,47.055,47.055,0,0,0,8.535,7.678.881.881,0,0,1-.107-.265C39.123,55.11,50.535,40.982,62.87,37.087,53.424,31.458,41.285,29.478,33.871,33.931ZM86.324,23.763c.831-8.228-3.5-16.422-11.257-19.607C67.585,1.08,58.2,2.813,52.972,9.2c-5.092,6.214-4.6,12.914-3.664,20.182a37.412,37.412,0,0,1,4.884,1.33c6.417,2.221,13.444,6,18.4,11.183C78.624,36.461,85.4,32.937,86.324,23.763ZM73.835,47.482a31,31,0,0,0-10.261-9.969.577.577,0,0,1-.3.739A31.294,31.294,0,0,0,48.591,50.288C44.862,56.081,44.225,61.9,43.7,68.561a.908.908,0,0,1-1.089.813c.691.461,1.365.891,2.018,1.272a26.425,26.425,0,0,0,6.339,2.648,1.077,1.077,0,0,1,.515.136,25.8,25.8,0,0,0,6.851.775.941.941,0,0,1-.927-.967C57.93,63.017,65.334,52.754,73.791,47.5,73.806,47.488,73.822,47.49,73.835,47.482Zm2.08,13.941A17.017,17.017,0,0,0,74.336,48.4a46.686,46.686,0,0,0-9.9,11.217c-2.726,4.479-3.8,9.061-5.247,14.005a.781.781,0,0,1-.661.584C66.269,73.971,73.456,70.024,75.915,61.422ZM36.635,98.095c6.889-3.7,15.89-13.776,13.435-22.268a27.551,27.551,0,0,1-5.118-1.989A49.133,49.133,0,0,1,30.365,61.872C18.257,67.3,6.787,80.7,15.994,94.028,20.685,100.816,29.61,101.861,36.635,98.095Z" transform="matrix(0.848, -0.53, 0.53, 0.848, 0, 146.411)"/></g></svg>