<svg xmlns="http://www.w3.org/2000/svg" width="65.203" height="63.695" viewBox="0 0 65.203 63.695"><defs><style>.a{fill:#e5e5e5;}.b{fill:#191919;}.c{fill:#686868;}.d{fill:#ffc545;}.e{fill:#ffba31;}.f{fill:#293b54;}.g{fill:#f2f2f2;}.h{fill:#fff;}</style></defs><g transform="translate(-80.339 -51)"><g transform="translate(80.339 51)"><path class="a" d="M591.215,429.6a10.939,10.939,0,0,0,5.554-10.111c-.229-6.728-5.133-10.867-7.253-11-2.224.135-7.07,4.2-7.372,10.921a10.939,10.939,0,0,0,5.44,10.172c.852.487.174,7.208.174,7.208-.645,10.4-.242,34.063-.242,34.063.1,1.388,1.649,1.331,1.649,1.331s1.546.075,1.661-1.312c0,0,.666-23.653.135-34.064,0,0-.6-6.728.254-7.205" transform="translate(-580.792 -408.484)"/><path class="a" d="M1254.993,409.915c-.1-1.517-.509-1.248-.509-1.248-.77,2.1-.6,13.739-.6,13.739a.691.691,0,0,1-.589.534c-.058-1.172-.486-9.81-.562-12.951,0,0-.136-1.5-.4-1.391,0,0-.267-.187-.294,1.338-.024,1.445.029,11.547-.194,12.893-.06-.015-.112-.03-.15-.042v-.023l-.041.012-.041-.012v.023c-.037.012-.085.027-.141.039-.077-1.535-.482-9.785-.558-12.835,0,0-.134-1.5-.4-1.391,0,0-.268-.187-.291,1.338-.027,1.5.031,12.277-.219,13a.683.683,0,0,1-.578-.531s.154-11.635-.617-13.739c0,0-.407-.269-.507,1.248s-1.919,14.274.357,17.093,2.355,2.636,2.233,4.815c-.1,1.757-1.248,11.6-1.253,24.151l.037.013c.006,8.011.123,14.965.123,14.965.1,1.377,1.636,1.319,1.636,1.319s1.534.076,1.648-1.3c0,0,.179-6.4.276-14,.121.046.241.095.359.148.051-13.1-1.181-23.485-1.283-25.295-.123-2.179-.041-2,2.228-4.817s.437-15.576.335-17.094" transform="translate(-1196.393 -408.582)"/><path class="b" d="M839.529,480.164a.4.4,0,0,1-.349-.205l-5.524-9.943a.4.4,0,0,1,.155-.543l1.165-.647a.4.4,0,0,1,.543.155l5.524,9.943a.4.4,0,0,1-.155.543l-1.165.648a.4.4,0,0,1-.194.05" transform="translate(-813.453 -464.264)"/><rect class="b" width="1.333" height="11.374" transform="matrix(0.874, -0.486, 0.486, 0.874, 20.552, 5.558)"/><path class="b" d="M799.769,411.325c.907,1.633.7,3.479-.461,4.125s-2.838-.155-3.745-1.788-.7-3.479.461-4.125,2.838.155,3.745,1.788" transform="translate(-777.734 -409.252)"/><path class="c" d="M807.027,426.561a2.163,2.163,0,0,1,.164-2.714,1.178,1.178,0,0,0-.165.075c-.793.44-.933,1.7-.314,2.815s1.764,1.66,2.556,1.22a1.181,1.181,0,0,0,.151-.1,2.163,2.163,0,0,1-2.391-1.295" transform="translate(-788.214 -422.697)"/><path class="b" d="M1055.716,480.164a.4.4,0,0,0,.349-.205l5.524-9.943a.4.4,0,0,0-.155-.543l-1.165-.647a.4.4,0,0,0-.543.155l-5.524,9.943a.4.4,0,0,0,.155.543l1.165.648a.4.4,0,0,0,.194.05" transform="translate(-1017.498 -464.264)"/><rect class="b" width="11.374" height="1.333" transform="translate(37.052 14.852) rotate(-60.941)"/><path class="b" d="M1122.074,411.325c-.907,1.633-.7,3.479.46,4.125s2.838-.155,3.746-1.788.7-3.479-.461-4.125-2.838.155-3.745,1.788" transform="translate(-1079.815 -409.252)"/><path class="c" d="M1132.269,423.133a2.163,2.163,0,0,1,2.463-1.152,1.165,1.165,0,0,0-.145-.109c-.765-.486-1.94-.008-2.623,1.068s-.617,2.342.148,2.828a1.191,1.191,0,0,0,.16.085,2.163,2.163,0,0,1,0-2.719" transform="translate(-1089.052 -420.694)"/><path class="b" d="M808.234,498.582a16.414,16.414,0,0,0-28.02,11.606v20.558a16.414,16.414,0,1,0,32.828,0V510.188a16.306,16.306,0,0,0-4.807-11.606" transform="translate(-764.056 -487.393)"/><path class="d" d="M821.308,569.845h0a14.418,14.418,0,0,1-14.418-14.418V534.869a14.418,14.418,0,1,1,28.836,0v20.558a14.418,14.418,0,0,1-14.418,14.418" transform="translate(-788.736 -512.074)"/><path class="e" d="M809.009,555.388V534.83a14.419,14.419,0,0,1,13.1-14.358c-.266-.015-.534-.023-.8-.023a14.418,14.418,0,0,0-14.418,14.418v20.558a14.418,14.418,0,0,0,14.418,14.418c.443,0,.882-.021,1.315-.06a14.418,14.418,0,0,1-13.613-14.4" transform="translate(-788.736 -512.073)"/><path class="b" d="M849.534,1094.378H825.293a1.02,1.02,0,0,1-1.02-1.02v-.891a.285.285,0,0,1,.285-.285h25.711a.285.285,0,0,1,.285.285v.891a1.02,1.02,0,0,1-1.02,1.02" transform="translate(-804.819 -1041.029)"/><rect class="b" width="29.335" height="2.016" transform="translate(18.04 45.872)"/><rect class="f" width="29.335" height="3.203" transform="translate(18.04 33.036)"/><path class="b" d="M969.864,1183.648a1.062,1.062,0,0,0-.888-.478H965.9a1.064,1.064,0,0,0-.979,1.482l1.536,3.6a1.064,1.064,0,0,0,1.958,0l1.536-3.6a1.062,1.062,0,0,0-.091-1" transform="translate(-934.868 -1125.21)"/><path class="b" d="M985.661,951.883v-1.072a7.348,7.348,0,0,1-.078,1.072Z" transform="translate(-954.06 -910.235)"/><path class="b" d="M939.829,814.029c1.967.273,3.5,2.555,3.5,5.33v-10.63h0c-.011,2.762-1.541,5.029-3.5,5.3" transform="translate(-911.729 -778.783)"/><path class="b" d="M597.885,704.764a17.091,17.091,0,0,0-2.816-6.722c-.021-.03-.042-.059-.064-.089a10.436,10.436,0,0,0-8.29-4.377H568.36a3.9,3.9,0,0,0-3.065,1.555,5.24,5.24,0,0,0,0,6.274,4.011,4.011,0,0,0,2.217,1.455,4.01,4.01,0,0,0-2.217,1.455,5.1,5.1,0,0,0-1.043,3.137v.3a5.1,5.1,0,0,0,1.043,3.137,4.01,4.01,0,0,0,2.217,1.455A4.011,4.011,0,0,0,565.3,713.8a5.24,5.24,0,0,0,0,6.274,3.9,3.9,0,0,0,3.065,1.555h18.354a9.6,9.6,0,0,0,4.722-1.249,11.759,11.759,0,0,0,3.656-3.245l.04-.055a17.645,17.645,0,0,0,2.682-6.457,15.964,15.964,0,0,0,.072-5.857" transform="translate(-564.252 -672.247)"/><path class="g" d="M618.179,740.613a14.654,14.654,0,0,0-.075-16.76,8.53,8.53,0,0,0-6.709-3.6H593.041a2.777,2.777,0,0,0,0,5.392h11.478a1.933,1.933,0,0,1,0,3.793H593.041a2.458,2.458,0,0,0-2.112,2.7v.3a2.458,2.458,0,0,0,2.112,2.7h11.478a1.933,1.933,0,0,1,0,3.792H593.041a2.777,2.777,0,0,0,0,5.393H611.4a8.563,8.563,0,0,0,6.784-3.7" transform="translate(-588.933 -696.928)"/><path class="a" d="M592.321,725.484a3.143,3.143,0,0,1-.535-1.794,2.458,2.458,0,0,1,2.112-2.7h18.354a7.891,7.891,0,0,1,4.838,1.714,8.143,8.143,0,0,0-5.693-2.456H593.042a2.458,2.458,0,0,0-2.112,2.7,2.745,2.745,0,0,0,1.391,2.535" transform="translate(-588.934 -696.927)"/><path class="a" d="M591.785,936.331a2.458,2.458,0,0,1,2.112-2.7h11.478a1.753,1.753,0,0,0,1.559-1.9,1.879,1.879,0,0,0-1.135-1.825,2.179,2.179,0,0,1,.28,1.083,1.753,1.753,0,0,1-1.559,1.9H593.042a2.458,2.458,0,0,0-2.112,2.7,2.745,2.745,0,0,0,1.391,2.535,3.142,3.142,0,0,1-.535-1.794" transform="translate(-588.934 -890.902)"/><path class="a" d="M592.321,811.7a3.141,3.141,0,0,1-.535-1.794v-.3a2.458,2.458,0,0,1,2.112-2.7h11.478a1.753,1.753,0,0,0,1.559-1.9,1.879,1.879,0,0,0-1.135-1.825,2.179,2.179,0,0,1,.28,1.083,1.753,1.753,0,0,1-1.559,1.9H593.042a2.458,2.458,0,0,0-2.112,2.7v.3a2.745,2.745,0,0,0,1.391,2.535" transform="translate(-588.934 -773.661)"/><path class="b" d="M928.9,742.626c1.443,1.291,5.366,5.782,1.682,10.147,0,0,4.45,5.7-1.784,10.462l4.257-3.1,1.553-5.941-.6-5.865-1.934-3.581s-3.951-2.809-3.171-2.126" transform="translate(-901.522 -717.527)"/><path class="b" d="M1013.663,702.861a4.01,4.01,0,0,0,2.217-1.455,5.24,5.24,0,0,0,0-6.274,3.9,3.9,0,0,0-3.064-1.555H994.461a10.435,10.435,0,0,0-8.29,4.377c-.023.029-.044.059-.065.089a17.092,17.092,0,0,0-2.816,6.722,15.968,15.968,0,0,0,.072,5.857,17.639,17.639,0,0,0,2.68,6.454l.041.057a11.761,11.761,0,0,0,3.657,3.246,9.6,9.6,0,0,0,4.722,1.249h18.355a3.9,3.9,0,0,0,3.064-1.555,5.24,5.24,0,0,0,0-6.274,4.01,4.01,0,0,0-2.217-1.455,4.01,4.01,0,0,0,2.217-1.455,5.1,5.1,0,0,0,1.043-3.137v-.3a5.1,5.1,0,0,0-1.043-3.137,4.011,4.011,0,0,0-2.217-1.455" transform="translate(-951.719 -672.246)"/><path class="g" d="M1012.356,740.613a14.654,14.654,0,0,1,.075-16.76,8.53,8.53,0,0,1,6.709-3.6h18.354a2.777,2.777,0,0,1,0,5.392h-11.479a1.933,1.933,0,0,0,0,3.793h11.479a2.458,2.458,0,0,1,2.112,2.7v.3a2.458,2.458,0,0,1-2.112,2.7h-11.479a1.933,1.933,0,0,0,0,3.793h11.479a2.777,2.777,0,0,1,0,5.392H1019.14a8.563,8.563,0,0,1-6.784-3.7" transform="translate(-976.399 -696.928)"/><path class="a" d="M1221.609,969.119h11.479a1.728,1.728,0,0,1,.864.236,1.987,1.987,0,0,0-1.662-1.034h-11.479a1.31,1.31,0,0,1-.535-.115,1.527,1.527,0,0,0,1.333.913" transform="translate(-1171.194 -926.329)"/><path class="a" d="M1232.291,841.6h-11.479a1.31,1.31,0,0,1-.535-.115,1.526,1.526,0,0,0,1.334.913h11.478a1.728,1.728,0,0,1,.864.236,1.987,1.987,0,0,0-1.662-1.034" transform="translate(-1171.195 -809.087)"/><path class="a" d="M1013.153,741.41a14.654,14.654,0,0,1,.075-16.76,8.531,8.531,0,0,1,6.709-3.6h18.355a1.727,1.727,0,0,1,.864.236,1.987,1.987,0,0,0-1.662-1.034h-18.354a8.531,8.531,0,0,0-6.709,3.6,14.655,14.655,0,0,0-.075,16.76,10.637,10.637,0,0,0,1.407,1.538q-.317-.353-.609-.74" transform="translate(-976.398 -696.927)"/><path class="b" d="M998.878,742.626c-1.443,1.291-5.366,5.782-1.682,10.147,0,0-4.45,5.7,1.783,10.462l-4.257-3.1-1.553-5.941.6-5.865,1.934-3.581s3.95-2.809,3.171-2.126" transform="translate(-961.079 -717.527)"/><path class="h" d="M604.19,431.778c-.186.134-10.132,7.612-.5,17.939,0,0-7.979-7.395.5-17.939" transform="translate(-596.858 -430.035)"/></g></g></svg>