<svg xmlns="http://www.w3.org/2000/svg" width="612.266" height="332.538" viewBox="0 0 612.266 332.538"><defs><style>.a,.b{opacity:0.24;}.b{stroke:rgba(0,0,0,0);stroke-miterlimit:10;}</style></defs><g class="a" transform="translate(0.695 -98.53)"><g class="a" transform="translate(0 380.53) rotate(-60)"><path class="b" d="M2.168.415c5.8,7.078,9.082,15.421,10.977,24.32a1.279,1.279,0,0,1-2.465.679C8.4,17.012,4.5,9.462.162,1.964-.542.751,1.222-.738,2.168.415Z" transform="translate(426.22 280.035)"/><path class="b" d="M1.424.142c6.694,4.27,12.141,10.181,16.76,16.594.616.856-.771,1.93-1.464,1.131C11.646,12,5.953,6.885.279,1.628A.95.95,0,0,1,1.424.142Z" transform="translate(388.124 231.55)"/><path class="b" d="M2.108.126A143.051,143.051,0,0,1,29.6,16.171c1.246.9.087,2.983-1.227,2.1A266.155,266.155,0,0,0,.715,2.509C-.9,1.68.518-.55,2.108.126Z" transform="translate(336.847 192.932)"/><path class="b" d="M.973.837c9.06-2,18.161-.251,26.507,3.588,1.262.578.36,2.773-.954,2.266-8.221-3.171-16.468-3.7-25.19-3.168A1.373,1.373,0,0,1,.973.837Z" transform="translate(267.887 177.61)"/><path class="b" d="M.666,3.886A29.371,29.371,0,0,1,21.684.661c1.14.232.9,2.211-.278,2.059A33.039,33.039,0,0,0,2.034,6.226,1.356,1.356,0,0,1,.666,3.886Z" transform="translate(218.697 179.917)"/><path class="b" d="M.482,3.591A71.877,71.877,0,0,1,7.828.093c1.088-.483,2.05,1.042.954,1.633A73.556,73.556,0,0,1,1.289,5.508C.169,5.96-.513,4.177.482,3.591Z" transform="translate(175.55 198.911)"/><path class="b" d="M.046,15.5C1.753,9.08,6.123,3.935,11.517.2c1.227-.848,2.8,1.153,1.611,2.089-4.84,3.8-8.005,8.739-10.511,14.292C1.949,18.063-.352,17,.046,15.5Z" transform="translate(133.475 231.103)"/><path class="b" d="M2.523.961c.2-1.491,2.74-1.148,2.634.354C4.634,8.791,4.3,16.284,3.063,23.683c-.289,1.74-3.13,1.325-3.062-.414C.3,15.785,1.52,8.374,2.523.961Z" transform="translate(117.4 278.241)"/><path class="b" d="M1.924.119A23.711,23.711,0,0,1,15.379,15.267c.477,1.543-1.791,2.075-2.367.652A27.355,27.355,0,0,0,.648,2.305C-.822,1.517.471-.509,1.924.119Z" transform="translate(226.059 207.651)"/><path class="b" d="M2.2.208A107.161,107.161,0,0,1,12.962,8.3c1.361,1.082-.453,3.465-1.873,2.429A107.556,107.556,0,0,1,.431,2.5,1.463,1.463,0,0,1,2.2.208Z" transform="translate(177.115 166.958)"/><path class="b" d="M1.546.081C9.7,3.317,17.7,7.031,25.51,11.017c1.178.6.346,2.677-.916,2.17C16.455,9.921,8.387,6.363.589,2.347-.635,1.717.227-.442,1.546.081Z" transform="translate(117.038 136.767)"/><path class="b" d="M1.852.313c6.666,6.009,14,10.854,22.611,13.537a1.023,1.023,0,0,1-.542,1.971C14.8,13.474,6.5,9.049.3,1.867A1.1,1.1,0,0,1,1.852.313Z" transform="translate(59.419 103.745)"/><path class="b" d="M2.873,1.033A37.167,37.167,0,0,0,13.157,17c1.123.992-.4,3.035-1.625,2.108C5.714,14.69,1.564,9.025.04,1.816A1.47,1.47,0,0,1,2.873,1.033Z" transform="translate(18.757 60.083)"/><path class="b" d="M3.166,1.149c2.061,11.555,3.2,23.233,4.349,34.9.191,1.958-3.187,2.44-3.465.469C2.4,24.908.731,13.293,0,1.577-.109-.209,2.844-.648,3.166,1.149Z" transform="translate(0 0)"/></g><path class="b" d="M17.081,3.734c-15.306,12.6-3.23,33.737,12.37,38.552C24.823,48.4,22.338,55.532,26,61.906a1.094,1.094,0,0,0,.234.258l.02.067C16.807,66,3.945,67.463,1.544,54.418c-.14-.762-1.39-1-1.488-.082C-.537,59.951,3.669,64.49,8.747,66.31c6.054,2.169,12.522.189,17.807-3.027A14.824,14.824,0,0,0,30.69,69.43a23.483,23.483,0,0,0-9.168,16.66c-.332,3.729.764,11.364,6.185,8.243.951-.546.114-1.8-.8-1.586-6.031,1.419-1.506-12.923-.962-14.09a25.221,25.221,0,0,1,6.145-8.087c.307.229.617.457.938.666,4.432,2.891,9.651,3.41,14.731,2.655-3.893,6.664-1.189,16.489,3.537,21.99,5.822,6.78,15.636,8.758,23.926,5.758A21.388,21.388,0,0,0,89,82.181c.4-9.742-6.179-18.734-14.887-22.785,3.851-4.717,5.954-10.462,4.595-17.143C76.154,29.706,64.251,24.65,53,26.526,54.988,18.494,47.15,8.963,41.241,4.593,34.272-.556,24.155-2.091,17.081,3.734ZM33.871,69.069l.049-.038a.726.726,0,0,0-.815-1.2c-.189.109-.37.229-.557.343a13.138,13.138,0,0,1-4.432-6.323,1.021,1.021,0,0,0,.125-1.078c-2.517-5.5-.468-11.446,3.285-16.625C30.9,54.688,38.1,65.962,46.849,71.083c.61.359,1.256-.6.69-1.036a34.814,34.814,0,0,1-10.9-12.872c-2.328-5.009-2.671-9.954-3.187-15.333a.541.541,0,0,0-.027-.091,47.055,47.055,0,0,1,8.535-7.678.881.881,0,0,0-.107.265C39.123,47.89,50.535,62.018,62.87,65.913,53.424,71.542,41.285,73.522,33.871,69.069ZM86.324,79.237c.831,8.228-3.5,16.422-11.257,19.607C67.585,101.92,58.2,100.187,52.972,93.8c-5.092-6.214-4.6-12.914-3.664-20.182a37.412,37.412,0,0,0,4.884-1.33c6.417-2.221,13.444-6,18.4-11.183C78.624,66.539,85.4,70.063,86.324,79.237ZM73.835,55.518a31,31,0,0,1-10.261,9.969.577.577,0,0,0-.3-.739A31.294,31.294,0,0,1,48.591,52.712C44.862,46.919,44.225,41.1,43.7,34.439a.908.908,0,0,0-1.089-.813c.691-.461,1.365-.891,2.018-1.272a26.425,26.425,0,0,1,6.339-2.648,1.077,1.077,0,0,0,.515-.136,25.8,25.8,0,0,1,6.851-.775.941.941,0,0,0-.927.967C57.93,39.983,65.334,50.246,73.791,55.5,73.806,55.512,73.822,55.51,73.835,55.518Zm2.08-13.941A17.017,17.017,0,0,1,74.336,54.6a46.686,46.686,0,0,1-9.9-11.217c-2.726-4.479-3.8-9.061-5.247-14.005a.781.781,0,0,0-.661-.584C66.269,29.029,73.456,32.976,75.915,41.578ZM36.635,4.905c6.889,3.7,15.89,13.776,13.435,22.268a27.551,27.551,0,0,0-5.118,1.989A49.133,49.133,0,0,0,30.365,41.128C18.257,35.7,6.787,22.3,15.994,8.972,20.685,2.184,29.61,1.139,36.635,4.905Z" transform="matrix(-0.848, -0.53, 0.53, -0.848, 556.284, 233.76)"/></g></svg>