<svg xmlns="http://www.w3.org/2000/svg" width="920.246" height="635.545" viewBox="0 0 920.246 635.545"><defs><style>.a{fill:#fff;stroke:rgba(0,0,0,0);stroke-miterlimit:10;opacity:0.12;}</style></defs><path class="a" d="M1955.426,1905.031h-44.641l-22.353-37.762,22.353-37.763h44.641l22.352,37.763-22.352,37.762Zm-42.962-72.573h0l-20.605,34.81,20.605,34.816h41.277l20.606-34.816-20.606-34.81h-41.277Zm182.962,72.573h-44.64l-22.353-37.762,22.353-37.763h44.64l22.354,37.763-22.354,37.762Zm-42.962-72.572h0l-20.606,34.81,20.606,34.816h41.277l20.612-34.816-20.612-34.81h-41.277Zm-381.533,70.062H1626.3l-22.35-37.753L1626.3,1827h44.635l22.353,37.762-22.353,37.753Zm-42.949-72.569h0l-20.613,34.816,20.613,34.8h41.273l20.609-34.8-20.609-34.816h-41.273Zm-98.746,70.929H1484.6l-22.36-37.766,22.36-37.762h44.634l22.356,37.762-22.356,37.766Zm-42.959-72.585h0l-20.609,34.819,20.609,34.819h41.273l20.612-34.819-20.612-34.819h-41.273Zm-97.013,72.585h-44.634l-2.131-3.6v-5.792l3.816,6.446h41.27l20.613-34.819-20.613-34.819h-41.271l-3.816,6.446v-5.789l2.131-3.6h44.634l22.36,37.762-22.36,37.766Zm778.041-34.4h-44.641l-22.353-37.752,22.353-37.762h44.641l22.346,37.762-22.346,37.752Zm-42.955-72.569-20.613,34.817,20.613,34.8h41.269l20.612-34.8-20.612-34.817h-41.269Zm-98.75,70.93h-44.634l-22.36-37.765,22.359-37.762H2025.6l22.359,37.762-22.359,37.765Zm-42.95-72.586h0l-20.611,34.82,20.612,34.817h41.267l20.609-34.817-20.609-34.82h-41.267Zm-97.011,72.585H1841l-22.353-37.765L1841,1789.31h44.641l22.349,37.762-22.349,37.765Zm-42.959-72.585-20.609,34.82,20.609,34.817h41.273l20.612-34.817-20.612-34.82Zm-99.736,70.833H1698.3l-22.353-37.763,22.353-37.759h44.641l22.353,37.759-22.353,37.763ZM1700,1790.512l-20.613,34.809L1700,1860.135h41.267l20.608-34.814-20.608-34.809H1700Zm-98.75,70.927H1556.6l-22.347-37.772,22.347-37.756h44.644l22.346,37.756-22.346,37.772Zm-42.961-72.583h0l-20.6,34.81,20.6,34.823h41.279l20.609-34.823-20.609-34.81h-41.279Zm-99.227,71.413h-44.641l-22.35-37.769,22.35-37.759h44.641l22.353,37.759-22.353,37.769ZM1416.1,1787.69h0l-20.612,34.81,20.613,34.823h41.28l20.6-34.823-20.6-34.81Zm823.209,39.35h-44.634l-22.353-37.759,22.353-37.762h44.634l22.36,37.762-22.36,37.76Zm-42.945-72.573-20.609,34.813,20.609,34.813h41.267l20.612-34.813-20.612-34.813h-41.267Zm-98.747,70.929h-44.64l-22.353-37.772,22.353-37.759h44.64l22.353,37.759-22.353,37.772Zm-42.961-72.581h0l-20.605,34.809,20.605,34.823h41.277l20.612-34.823-20.612-34.809Zm-99.226,71.413h-44.641l-22.353-37.769,22.353-37.76h44.641l22.352,37.76-22.352,37.769Zm-42.962-72.582h0l-20.605,34.813,20.605,34.816h41.277l20.606-34.816-20.606-34.813h-41.277Zm-97.441,72.582h-44.641l-22.352-37.769,22.352-37.76h44.641l22.35,37.76-22.35,37.769Zm-42.959-72.582h0l-20.608,34.813,20.608,34.816h41.28l20.6-34.816-20.6-34.813h-41.28Zm-100.634,70.077H1626.8l-22.36-37.772,22.36-37.759h44.635l22.356,37.759-22.356,37.772Zm-42.958-72.582h0l-20.6,34.809,20.6,34.823h41.28l20.612-34.823-20.612-34.809h-41.28Zm-96.908,70.923h-44.641l-22.353-37.76,22.353-37.762h44.641l22.35,37.762-22.349,37.76Zm-42.959-72.569h0L1468,1782.3l20.6,34.81h41.28l20.6-34.81-20.6-34.809Zm-99.769,72.569H1344.2l-1.7-2.866v-5.8l3.382,5.714h41.273l20.615-34.81-20.615-34.809h-41.273l-3.382,5.714v-5.8l1.7-2.866h44.641l22.36,37.762-22.36,37.76Zm778.958-34.387h-44.635l-22.35-37.768,22.35-37.766H2167.8l22.36,37.766-22.36,37.769Zm-42.955-72.579h0l-20.6,34.81,20.605,34.823h41.28l20.6-34.823-20.6-34.81h-41.28Zm-96.905,70.923H1983.3l-22.353-37.759L1983.3,1708.5h44.64l22.354,37.762-22.354,37.759Zm-42.955-72.57h0l-20.611,34.81,20.612,34.809h41.271l20.605-34.809-20.605-34.81H1984.98Zm-99.775,72.57h-44.641l-22.353-37.759,22.353-37.762h44.641l22.36,37.762-22.36,37.759Zm-42.956-72.569h0l-20.605,34.81,20.606,34.809h41.277l20.612-34.809-20.612-34.81H1842.25Zm-99.3,70.826H1698.3l-22.353-37.762,22.353-37.769h44.641l22.353,37.769-22.353,37.762ZM1700,1709.7l-20.613,34.819,20.613,34.81h41.267l20.608-34.81-20.608-34.819Zm-240.938,71.6h-44.641l-22.35-37.772,22.35-37.756h44.641l22.353,37.756-22.353,37.772h0ZM1416.1,1708.71h0l-20.612,34.809,20.613,34.817h41.28l20.6-34.817-20.6-34.809H1416.1Zm185.15,71.912H1556.6l-22.347-37.759L1556.6,1705.1h44.644l22.346,37.766-22.346,37.759h0Zm-42.961-72.575h0l-20.6,34.817,20.6,34.809h41.279l20.609-34.809-20.609-34.817h-41.279Zm681.021,38.19h-44.634l-22.353-37.766,22.353-37.768h44.634l22.36,37.769-22.36,37.766Zm-42.945-72.585-20.609,34.819,20.609,34.813h41.267l20.612-34.813-20.612-34.819h-41.267Zm-240.935,71.6h-44.641l-22.353-37.768,22.353-37.76h44.641l22.352,37.76-22.352,37.768Zm-42.962-72.579h0l-20.605,34.81,20.605,34.817h41.277l20.606-34.816-20.606-34.81h-41.277Zm185.15,71.909h-44.64l-22.353-37.756,22.353-37.765h44.64l22.353,37.765-22.353,37.756Zm-42.961-72.572h0l-20.605,34.816,20.605,34.81h41.277l20.612-34.81-20.612-34.816h-41.277Zm-239.629,71.4h-44.641l-22.352-37.763,22.352-37.759h44.641l22.35,37.759-22.35,37.763Zm-42.959-72.577h0l-20.608,34.813,20.608,34.817h41.28l20.6-34.817-20.6-34.813h-41.28Zm-101.133,71.911H1626.3l-22.35-37.769,22.35-37.755h44.635l22.353,37.755-22.353,37.77Zm-42.949-72.579h0l-20.613,34.809,20.613,34.824h41.273l20.609-34.824-20.609-34.809h-41.273Zm-98.746,70.929H1484.6l-22.36-37.765,22.36-37.763h44.634l22.356,37.763-22.356,37.765Zm-42.959-72.581-20.609,34.817,20.609,34.813h41.273l20.612-34.813-20.612-34.816Zm-97.013,72.581h-44.634l-2.131-3.6v-5.8l3.816,6.445h41.27l20.613-34.813-20.613-34.816h-41.271l-3.816,6.446v-5.792l2.131-3.6h44.634l22.36,37.763-22.36,37.765Zm778.041-34.4h-44.641l-22.353-37.766,22.353-37.756h44.641l22.346,37.756-22.346,37.766Zm-42.955-72.575-20.613,34.809,20.613,34.816h41.269l20.612-34.816-20.612-34.809h-41.269Zm-98.75,70.929h-44.634l-22.36-37.768,22.359-37.763H2025.6l22.359,37.763-22.359,37.768Zm-42.95-72.583h0l-20.611,34.814,20.612,34.816h41.267l20.609-34.816-20.609-34.814h-41.267Zm-97.011,72.582H1841l-22.353-37.768L1841,1629.517h44.641l22.349,37.763-22.349,37.768Zm-42.959-72.582-20.609,34.814,20.609,34.816h41.273l20.612-34.816-20.612-34.814Zm-99.736,72.5H1698.3l-22.353-37.76,22.353-37.765h44.641l22.353,37.765-22.353,37.76ZM1700,1632.4l-20.613,34.809L1700,1702.024h41.267l20.608-34.817-20.608-34.809H1700Zm-98.75,70.926H1556.6l-22.347-37.769,22.347-37.762h44.644l22.346,37.762-22.346,37.77Zm-42.961-72.586h0l-20.6,34.816,20.6,34.817h41.279l20.609-34.817-20.609-34.816h-41.279Zm-99.227,71.57h-44.641l-22.35-37.762,22.35-37.762h44.641l22.353,37.762-22.353,37.762ZM1416.1,1629.73h0l-20.612,34.816,20.613,34.817h41.28l20.6-34.816-20.6-34.817H1416.1Zm823.209,39.2h-44.634l-22.353-37.766,22.353-37.762h44.634l22.36,37.762-22.36,37.766Zm-42.945-72.573-20.609,34.807,20.609,34.817h41.267l20.612-34.817-20.612-34.807h-41.267Zm-98.747,70.924h-44.64l-22.353-37.766,22.353-37.766h44.64l22.353,37.766-22.353,37.766Zm-42.961-72.583h0l-20.605,34.816,20.605,34.817h41.277l20.612-34.817-20.612-34.817h-41.277Zm-99.226,71.57h-44.641l-22.353-37.763,22.353-37.762h44.641l22.352,37.762-22.352,37.763Zm-42.962-72.579h0l-20.605,34.815,20.605,34.814h41.277l20.606-34.814-20.606-34.815h-41.277Zm-239.74,71.747h-44.641l-22.353-37.766,22.353-37.756h44.641l22.36,37.756-22.359,37.766Zm-42.955-72.573-20.613,34.807,20.613,34.82h41.273l20.616-34.82-20.616-34.807Zm186.446,71.188h-44.633l-22.353-37.756,22.353-37.766h44.634l22.362,37.766-22.362,37.756Zm-42.958-72.577-20.6,34.82,20.6,34.809h41.28l20.612-34.809-20.612-34.82h-41.28Zm-242.232,72.309h-44.64l-22.35-37.762,22.35-37.76h44.64l22.354,37.76-22.354,37.762Zm-42.955-72.577-20.609,34.814,20.609,34.816h41.273l20.609-34.816-20.609-34.814h-41.273Zm-97.607,70.525h-44.64l-3.324-5.616v-5.791l5.008,8.464h41.273l20.6-34.82-20.6-34.813h-41.273l-5.008,8.462v-5.8l3.324-5.615h44.64l22.347,37.762-22.347,37.763Zm778.628-32.338h-44.64l-22.353-37.766,22.354-37.756h44.64l22.357,37.756-22.357,37.766h0Zm-42.959-72.576-20.608,34.81,20.608,34.813h41.274l20.618-34.813-20.618-34.81h-41.274Zm-98.739,70.926h-44.641l-22.353-37.769,22.354-37.759h44.641l22.353,37.759-22.353,37.769Zm-42.955-72.582h0l-20.613,34.814,20.613,34.819h41.269l20.613-34.819-20.613-34.814h-41.269ZM1744.968,1627.2h-44.634l-22.35-37.769,22.35-37.756h44.635l22.366,37.756-22.366,37.769Zm-42.956-72.579h0l-20.605,34.81,20.605,34.819h41.281l20.609-34.819-20.609-34.81Zm184.82,71.073h-44.641l-22.352-37.765,22.352-37.76h44.641l22.346,37.76-22.346,37.765Zm-42.948-72.579-20.613,34.814,20.613,34.819h41.263l20.606-34.819-20.606-34.814Zm-242.271,71.9h-44.634l-22.353-37.766,22.353-37.759h44.634l22.363,37.759-22.363,37.766Zm-42.958-72.573-20.609,34.807,20.609,34.817h41.273l20.619-34.816-20.619-34.807Zm-97.745,70.319h-44.634l-22.36-37.769,22.359-37.762h44.634l22.35,37.762-22.35,37.77Zm-42.951-72.586-20.609,34.816,20.609,34.814h41.273l20.605-34.814-20.605-34.816h-41.273Zm680.018,38.794h-44.634l-22.35-37.766,22.35-37.752h44.634l22.367,37.752-22.367,37.766Zm-42.948-72.573h0L2034.41,1551.2l20.619,34.819H2096.3l20.615-34.819L2096.3,1516.4Zm-97.755,70.319h-44.633l-22.356-37.766,22.356-37.766h44.634l22.36,37.766-22.359,37.766Zm-42.949-72.583-20.618,34.817,20.618,34.813H1955.6l20.6-34.813-20.6-34.817Zm-239.532,70.81h-44.641l-22.353-37.769,22.353-37.759h44.641l22.359,37.76-22.358,37.768Zm-42.962-72.576-20.605,34.807,20.605,34.816h41.277l20.612-34.816-20.611-34.807h-41.277Zm182.962,72.575h-44.64l-22.351-37.769,22.351-37.759h44.64l22.36,37.76-22.36,37.768h0Zm-42.962-72.575h0l-20.605,34.806,20.605,34.816h41.28l20.609-34.816-20.609-34.807h-41.279Zm-240.266,72.543h-44.641l-22.353-37.766,22.353-37.756h44.641l22.35,37.756-22.349,37.766Zm-42.959-72.577h0l-20.6,34.81,20.6,34.817h41.273l20.609-34.816-20.609-34.81h-41.273Zm539.323,36.534H1983.3l-22.353-37.769,22.353-37.756h44.634l22.36,37.756-22.36,37.769Zm-42.949-72.576h0l-20.611,34.807,20.612,34.819h41.263l20.613-34.819-20.613-34.807H1984.98Zm-98.308,70.094h-44.641l-22.353-37.752,22.353-37.762h44.641l22.352,37.762-22.352,37.752Zm-42.955-72.569-20.613,34.817,20.613,34.8h41.269l20.606-34.8-20.605-34.817Zm-98.75,70.93h-44.634l-22.35-37.766,22.35-37.762h44.635l22.359,37.762-22.359,37.766Zm-42.949-72.582-20.613,34.816,20.613,34.816h41.267l20.609-34.816-20.609-34.816h-41.267ZM1605,1544.747h-44.633l-22.354-37.766,22.354-37.762H1605l22.359,37.762L1605,1544.747Zm-42.951-72.582h0l-20.6,34.816,20.6,34.816h41.273l20.612-34.816-20.612-34.816h-41.273Zm538.859,37.011h-44.634l-22.359-37.766,22.359-37.769h44.634l22.353,37.769-22.353,37.766Zm-42.959-72.585h0l-20.6,34.819,20.6,34.813h41.28l20.605-34.813-20.605-34.819h-41.28Zm-99.268,70.361h-44.635l-22.353-37.766,22.354-37.759h44.635l22.352,37.759-22.353,37.766Zm-42.949-72.576h0l-20.619,34.81L1915.731,1504h41.263l20.613-34.816-20.613-34.81h-41.263Zm-98.75,70.93H1772.34l-22.353-37.772,22.353-37.756h44.641l22.346,37.756-22.346,37.772Zm-42.956-72.583h0l-20.605,34.81,20.605,34.823H1815.3l20.609-34.823-20.609-34.81h-41.274Zm-99.232,71.414h-44.641l-22.353-37.769,22.353-37.759h44.641l22.359,37.759-22.358,37.769Zm-42.962-72.579-20.605,34.809,20.605,34.823h41.277l20.612-34.823-20.611-34.809h-41.277Zm-97.44,72.579H1489.75l-22.353-37.769,22.353-37.759h44.641l22.349,37.759-22.349,37.769Zm-42.959-72.579h0l-20.6,34.809,20.6,34.823h41.28l20.613-34.823-20.613-34.809h-41.28Zm538.865,37.007h-44.64l-22.353-37.776,22.353-37.752h44.64l22.35,37.752-22.35,37.776Zm-42.959-72.581-20.608,34.806,20.608,34.824h41.28l20.605-34.824-20.606-34.806Zm-100.17,69.6h-44.641l-22.35-37.768,22.35-37.76h44.641l22.353,37.759-22.354,37.769Zm-42.955-72.579h0l-20.609,34.81,20.609,34.823h41.273l20.609-34.823-20.609-34.81h-41.273Zm-96.911,70.923h-44.641l-22.352-37.758,22.352-37.763H1747.3l22.353,37.763-22.354,37.759Zm-42.955-72.569h0l-20.612,34.81,20.613,34.809h41.28l20.6-34.809-20.6-34.81h-41.28Zm-99.775,72.569h-44.641l-22.354-37.758,22.354-37.763h44.641l22.36,37.763-22.36,37.759Zm-42.955-72.569-20.606,34.81,20.606,34.809h41.269l20.619-34.809-20.619-34.81Zm538.855,36.995h-44.633l-22.354-37.756,22.354-37.762h44.634l22.366,37.762-22.366,37.756Zm-42.948-72.573-20.613,34.817,20.613,34.81h41.269l20.612-34.81-20.612-34.817h-41.27Zm-98.844,70.365h-44.635l-22.353-37.766,22.354-37.772h44.635l22.352,37.772-22.353,37.766Zm-42.949-72.585h0l-20.619,34.819,20.619,34.81h41.263l20.613-34.81-20.613-34.819h-41.263Zm-240.938,71.6h-44.641l-22.353-37.773,22.353-37.755h44.641l22.359,37.755-22.358,37.773Zm-42.962-72.583h0l-20.605,34.809,20.605,34.817h41.277l20.612-34.817-20.611-34.809H1631.83Zm185.151,71.91H1772.34l-22.353-37.758,22.353-37.763h44.641l22.346,37.763-22.346,37.759Zm-42.956-72.573h0l-20.605,34.814,20.605,34.813H1815.3l20.609-34.813-20.609-34.814h-41.274Zm-239.634,71.406H1489.75l-22.353-37.765,22.353-37.762h44.641l22.349,37.762-22.349,37.765Zm-42.959-72.582h0l-20.6,34.816,20.6,34.813h41.28l20.613-34.813-20.613-34.817h-41.28Zm538.865,37h-44.64l-22.353-37.762,22.353-37.763h44.64l22.35,37.763-22.35,37.762Zm-42.959-72.572-20.608,34.81,20.608,34.816h41.28l20.605-34.816-20.606-34.81Zm-100.666,71.436h-44.641l-22.353-37.769,22.353-37.756h44.641l22.352,37.756-22.352,37.769Zm-42.955-72.579-20.613,34.81,20.613,34.819h41.269l20.606-34.819-20.605-34.81Zm-98.75,70.93h-44.634l-22.35-37.766,22.35-37.762h44.635l22.359,37.762-22.359,37.766Zm-42.949-72.583-20.613,34.817,20.613,34.817h41.267l20.609-34.817-20.609-34.816h-41.267ZM1605,1384.958h-44.633l-22.354-37.766,22.354-37.762H1605l22.359,37.762L1605,1384.958Zm-42.951-72.583h0l-20.6,34.816,20.6,34.817h41.273l20.612-34.817-20.612-34.816h-41.273Zm538.859,37.008h-44.634l-22.359-37.766,22.359-37.766h44.634l22.353,37.766-22.353,37.766Zm-42.959-72.58h0l-20.6,34.813,20.6,34.816h41.28l20.605-34.816-20.605-34.814Zm-99.268,72.031h-44.635l-22.353-37.762,22.354-37.762h44.635l22.352,37.762-22.353,37.762Zm-42.949-72.569h0l-20.619,34.807,20.619,34.816h41.263l20.613-34.816-20.613-34.807h-41.263Z" transform="translate(-1342 -1272.81)"/></svg>