<svg xmlns="http://www.w3.org/2000/svg" width="231.022" height="129.184" viewBox="0 0 231.022 129.184"><defs><style>.a{fill:#fff;stroke:rgba(0,0,0,0);stroke-miterlimit:10;opacity:0.08;}</style></defs><path class="a" d="M1491.136,1410.367a1.242,1.242,0,0,1-.938-.422.931.931,0,0,1-.2-.791,29.4,29.4,0,0,1,3.91-10.02,38.45,38.45,0,0,1,6.952-8.266.794.794,0,0,1,.541-.217,1.112,1.112,0,0,1,.882.518.888.888,0,0,1,.113.841.868.868,0,0,1-.176.26c-4.318,4.458-7.447,9.841-10.145,17.452a.939.939,0,0,1-.8.636A1.166,1.166,0,0,1,1491.136,1410.367Zm195.259-37.626a14.381,14.381,0,0,1-8.105-2.65,18.736,18.736,0,0,1-5.816-6.5,29.18,29.18,0,0,1-3.147-9.883c-.353-2.911-.286-6.986,2.041-9.873a19.834,19.834,0,0,1-10.785-7.184,15.106,15.106,0,0,1-2.451-12.786,15.8,15.8,0,0,1,9.072-10.809,21.525,21.525,0,0,1-4.714-10.321,17.593,17.593,0,0,1,7.874-17.955,16.375,16.375,0,0,1,8.8-2.6c.476,0,.958.021,1.432.064a18.392,18.392,0,0,1,9.553,3.763,16.215,16.215,0,0,1,5.754,8.426,18.772,18.772,0,0,1,.055,9.289,15.548,15.548,0,0,1-1.793,4.39,11.023,11.023,0,0,1-3.1,3.355c4.44,1.319,7.712,3.629,9.724,6.863.167.268.321.551.453.795a20.128,20.128,0,0,0,7.145-3.764,30.1,30.1,0,0,0,3.251-3.821c1.228-1.7,2.617-4.021,2.259-5.445a1.694,1.694,0,0,0-1.468-1.21.822.822,0,0,1-.624-.848.58.58,0,0,1,.579-.563c.171-.015.337-.022.494-.022a2.517,2.517,0,0,1,2.377,1.144c1.021,1.772-.185,5.17-1.185,6.9a18.679,18.679,0,0,1-12.2,8.924,11.829,11.829,0,0,1,.914,5.819,25.564,25.564,0,0,1,2.8-.158,18.892,18.892,0,0,1,5.934.886,12.971,12.971,0,0,1,5.116,3.075,11.476,11.476,0,0,1,3.13,5.463,8.063,8.063,0,0,1-.892,6.086.487.487,0,0,1-.426.267.687.687,0,0,1-.618-.827c.856-3.294.47-6.09-1.148-8.31-3.189-4.376-10.16-5.4-14.031-5.622l-.008.054.012.028,0,.012a.718.718,0,0,1,.065.225c.55,6.461-4.635,10.623-9.081,12.978a22.885,22.885,0,0,1,6.211,9.857,21.208,21.208,0,0,1,.6,11.382,14.31,14.31,0,0,1-3.553,6.6,15.164,15.164,0,0,1-7.3,4.1,12.933,12.933,0,0,1-1.651.314A12.787,12.787,0,0,1,1686.4,1372.741Zm-12.7-28.384c-4.569,5.235-1.6,15.481,2.2,20.561a13.385,13.385,0,0,0,10.527,5.569,11.171,11.171,0,0,0,5.714-1.564,13.281,13.281,0,0,0,6.833-9.547c.934-5.643-1.572-12.886-6.384-18.452a38.939,38.939,0,0,1-14.531,3.72c-.247.009-.5.013-.746.013a22.122,22.122,0,0,1-3.611-.3Zm-.154-2.2a.839.839,0,0,1,.357.076,21.457,21.457,0,0,0,3.6.307c.624,0,1.251-.029,1.862-.085.556-.052,1.171-.13,1.881-.239a.806.806,0,0,1-.49-.4.681.681,0,0,1-.021-.555c1.925-5.147,3.339-9.506,2.616-14.809a24.773,24.773,0,0,0-6.538-13.608.46.46,0,0,1,.034-.634,24.587,24.587,0,0,0-10.744,3.736.045.045,0,0,0,.012.013.056.056,0,0,1,.014.015,29.8,29.8,0,0,1,4.348,11.684,23.748,23.748,0,0,1-1.192,12.368.706.706,0,0,1-.68.443.866.866,0,0,1-.313-.059,20.47,20.47,0,0,0,5.2,1.744Zm7.254-30.178a32.939,32.939,0,0,0-3.307.166,23.841,23.841,0,0,1,4.823,6.347,27.506,27.506,0,0,1,2.732,7.849c1.088,5.953.016,11.5-3.02,15.617a.7.7,0,0,1-.168.155,37.6,37.6,0,0,0,8.731-2.664.2.2,0,0,0,0-.029.14.14,0,0,1,.008-.046l.2-.571.068-.19c1.326-3.725,2.579-7.243,2.584-11.359a27.338,27.338,0,0,0-3.53-12.937.427.427,0,0,1,.013-.432.579.579,0,0,1,.478-.272.421.421,0,0,1,.355.189,25.722,25.722,0,0,1,4.211,12,25,25,0,0,1-.2,6.542,19.409,19.409,0,0,1-2.017,6.021c3.606-2.005,7.915-5.518,7.954-10.876a.811.811,0,0,1,.452-.735,10.448,10.448,0,0,0-1.069-6.046l-.2.023c-.114.016-.218.028-.316.037l-.062,0a.572.572,0,0,1-.584-.516.563.563,0,0,1,.462-.625l.049-.012C1696.32,1314.973,1689,1311.976,1680.8,1311.975Zm-15.369,4.463h0a13.452,13.452,0,0,0-5.515,8.855c-1.006,6.324,2.073,11.951,8.237,15.052a.62.62,0,0,1-.282-.643c.086-.558.177-1.124.257-1.623a31.625,31.625,0,0,0-2.7-21.642Zm13.68-32.14a15.089,15.089,0,0,0-14.04,10.361c-1.947,5.578.094,9.826,2.255,14.323l0,.007c.519,1.081,1.056,2.2,1.545,3.349a31.014,31.014,0,0,1,7.465-1.812,41.21,41.21,0,0,1,5-.3,44.308,44.308,0,0,1,4.548.234,29.733,29.733,0,0,1,3.966.682c3.186-5.026,5.7-9.682,4.142-15.773s-7.542-10.748-14.227-11.057C1679.551,1284.3,1679.329,1284.3,1679.11,1284.3Zm-155.987,80.118a1.044,1.044,0,0,1-.93-.705,1.186,1.186,0,0,1,.277-1.319,112.282,112.282,0,0,1,20.284-15.136,1.008,1.008,0,0,1,.526-.153,1.078,1.078,0,0,1,.88.491.848.848,0,0,1,.1.806.91.91,0,0,1-.357.4,211.633,211.633,0,0,0-20.126,15.347,1.072,1.072,0,0,1-.554.258A.846.846,0,0,1,1523.122,1364.416Zm43.786-25.687a.778.778,0,0,1-.71-.573.674.674,0,0,1,.264-.791,49.446,49.446,0,0,1,17.351-7.111.68.68,0,0,1,.151-.017.625.625,0,0,1,.528.3.869.869,0,0,1,.088.786.62.62,0,0,1-.392.353,147.118,147.118,0,0,0-15.215,6.187l0,0-1.774.8a.709.709,0,0,1-.207.059A.648.648,0,0,1,1566.908,1338.729Zm47.693-12.684a1.076,1.076,0,0,1-1.007-.96.853.853,0,0,1,.62-1,39.151,39.151,0,0,1,11.012-1.526,53.143,53.143,0,0,1,10.2,1.047.992.992,0,0,1,.719.513,1.128,1.128,0,0,1,.036.948.893.893,0,0,1-.728.558,1.012,1.012,0,0,1-.13.008,1.23,1.23,0,0,1-.165-.012,56.583,56.583,0,0,0-7.77-.506,104.9,104.9,0,0,0-12.661.919A.992.992,0,0,1,1614.6,1326.044Z" transform="translate(-1489.479 -1281.683)"/></svg>