<svg xmlns="http://www.w3.org/2000/svg" width="1922" height="889.79" viewBox="0 0 1922 889.79"><defs><style>.a{fill:#ffc545;stroke:rgba(0,0,0,0);stroke-miterlimit:10;opacity:0.12;}</style></defs><path class="a" d="M2220.878,2079.79H2170.85L2145.8,2037.47l25.049-42.317h50.025l25.049,42.317-25.049,42.319Zm-48.14-81.331h0l-23.089,39.009,23.091,39.017H2219l23.091-39.017L2219,1998.46h-46.257Zm-108.749,81.33h-50.026l-25.049-42.319,25.049-42.317h50.025l25.049,42.317-25.049,42.319Zm-48.137-81.329h0l-23.1,39.009,23.1,39.017h46.255l23.091-39.017-23.091-39.01Zm523.826,78.513h-50.018l-25.049-42.306,25.049-42.316h50.018l25.046,42.316-25.046,42.306Zm-48.14-81.322h0l-23.094,39.015,23.095,39h46.252l23.1-39-23.1-39.015Zm206.929,79.484h-50.019l-25.053-42.319,25.053-42.318h50.018l25.055,42.318-25.055,42.32Zm-48.132-81.342-23.1,39.021,23.1,39.018h46.254l23.093-39.018-23.092-39.021Zm204.984,81.341H2805.3l-25.057-42.319L2805.3,1990.5h50.02l25.048,42.318-25.05,42.32Zm-48.137-81.341-23.1,39.021,23.1,39.018h46.25l23.1-39.018-23.1-39.021Zm-823.744,42.791h-50.024l-25.043-42.307,25.043-42.317h50.024l25.05,42.317-25.05,42.308Zm-48.137-81.324h0l-23.1,39.015,23.1,39h46.247l23.1-39-23.1-39.015H1935.3Zm363.777,79.487h-50.025l-25.044-42.322,25.044-42.318h50.025l25.051,42.318-25.051,42.322Zm-48.135-81.342-23.1,39.02,23.1,39.017H2297.2l23.094-39.017-23.094-39.02h-46.252Zm-108.714,81.342H2092.21l-25.054-42.322,25.054-42.318h50.02l25.054,42.318-25.054,42.322Zm-48.132-81.343h0L2071,1992.426l23.1,39.017h46.243l23.1-39.017-23.1-39.02H2094.1Zm364.89,79.377h-50.025l-25.05-42.317,25.05-42.314h50.026l25.05,42.314-25.05,42.317Zm-48.142-81.328h0l-23.094,39.009,23.094,39.012h46.247l23.1-39.012-23.1-39.01h-46.247Zm206.935,79.482h-50.028l-25.042-42.327,25.042-42.308h50.028l25.043,42.308-25.042,42.328Zm-48.143-81.338-23.094,39.01,23.094,39.023h46.26l23.088-39.023L2615.9,1949.6h-46.26Zm207.479,80.026h-50.024l-25.049-42.323,25.049-42.313h50.024l25.047,42.313-25.047,42.323Zm-48.139-81.332h0L2705.89,1987.3l23.086,39.023h46.26l23.1-39.022-23.1-39.008h-46.26ZM2914,2029.625h-29.572l-25.056-42.323,25.056-42.313H2914v3.305H2886.31l-23.092,39.008,23.092,39.023H2914v3.3Zm-1011.252-37.233h-50.02l-25.057-42.315,25.057-42.318h50.017l25.049,42.318-25.049,42.315Zm-48.139-81.331h0l-23.1,39.012,23.1,39.013h46.243l23.094-39.013-23.095-39.013h-46.244Zm206.928,79.488H2011.51l-25.047-42.328,25.047-42.314h50.027l25.049,42.315-25.049,42.328Zm-48.137-81.339h0l-23.1,39.009,23.1,39.022h46.255l23.091-39.021-23.091-39.009H2013.4Zm364.813,80.027h-50.025l-25.046-42.325,25.046-42.313h50.025l25.049,42.313-25.049,42.325Zm-48.143-81.34h0l-23.086,39.012,23.088,39.017h46.258l23.1-39.017-23.1-39.013H2330.07Zm-109.194,81.34H2170.85l-25.049-42.325,25.049-42.313h50.025l25.049,42.313-25.049,42.325Zm-48.137-81.34h0l-23.089,39.012,23.091,39.017H2219l23.091-39.017L2219,1907.9h-46.257Zm366.381,78.533H2489.1l-25.053-42.329,25.053-42.313h50.017l25.057,42.313-25.057,42.329Zm-48.136-81.338-23.1,39.008,23.1,39.023h46.26l23.086-39.023-23.086-39.008h-46.26Zm364.823,79.478H2805.78l-25.054-42.313,25.054-42.317h50.026l25.047,42.317-25.047,42.313Zm-48.138-81.322h0l-23.1,39.008,23.1,39.01h46.251l23.092-39.01-23.092-39.008h-46.251Zm-111.8,81.322h-50.024l-25.046-42.313,25.046-42.317h50.024l25.05,42.317-25.05,42.313Zm-48.143-81.322h0l-23.088,39.008,23.089,39.01h46.259l23.087-39.01-23.087-39.008Zm-664.837,42.791h-50.019l-25.058-42.323,25.059-42.324h50.016l25.047,42.324-25.047,42.323Zm-48.142-81.334h0l-23.086,39.008,23.086,39.023H1981l23.093-39.022L1981,1864.707Zm364.825,79.477-50.023,0-25.058-42.313,25.058-42.317h50.024l25.049,42.317-25.049,42.313h0Zm-48.144-81.323h0l-23.1,39.006,23.1,39.01h46.256l23.091-39.01-23.091-39.007h-46.257Zm-111.8,81.322h-50.025l-25.049-42.313,25.049-42.317h50.024l25.051,42.317-25.051,42.313h0Zm-48.137-81.321h0l-23.091,39.006,23.091,39.01h46.248l23.1-39.01-23.1-39.007Zm367.5,79.367h-50.025l-25.05-42.317,25.05-42.324h50.026l25.05,42.324-25.05,42.317Zm-48.142-81.338-23.094,39.02,23.094,39.008h46.247l23.1-39.009-23.1-39.02Zm366.271,80.233h-50.024l-25.049-42.328,25.049-42.311h50.024l25.047,42.311-25.047,42.328h0Zm-48.14-81.337-23.086,39.01,23.086,39.014h46.26l23.1-39.014-23.1-39.009h-46.26Zm-111.2,80.588h-50.028l-25.042-42.315,25.042-42.32h50.028l25.043,42.32-25.042,42.315Zm-48.143-81.332-23.094,39.016,23.094,39.009h46.26l23.088-39.009-23.088-39.016ZM2914,1939.06h-29.572l-25.056-42.318,25.056-42.317H2914v3.3H2886.31l-23.092,39.018,23.092,39.012H2914v3.305Zm-1011.255-37.22h-50.017l-19.12-32.294-17.386,29.375H1766.2l-25.049-42.318,25.049-42.317h50.026l19.112,32.289,3-5.066-16.636-28.1,14.982-25.311-2.617-4.423-15.389,26h-50.024l-25.049-42.328,25.049-42.312h50.024l18.663,31.525,2.438-4.118-17.518-29.6,25.047-42.322h50.017l18.746,31.662,3.087-5.213-16.763-28.322,25.048-42.325h50.017l18.195,30.733,15.454-26.085h50.017l25.046,42.307-25.046,42.322H2011.1l-18.2-30.726-3.189,5.386,16.767,28.32-14.012,23.672,2.554,4.311,16.482-27.849h50.027l25.049,42.32-25.049,42.322H2011.51l-17.566-29.679-2.061,3.481,16.605,28.047-25.05,42.32h-50.024l-18.855-31.863-3.4,5.745,16.635,28.108-25.049,42.322Zm-62.492-57.091h0l-3,5.066,4.016,6.786-5.743,9.7,19.081,32.227h46.243l23.094-39.013-14.712-24.857-12.464,21.056h-50.026l-6.492-10.965Zm-72.177-27.157h0l-23.091,39.01,23.091,39.016h46.256l17.354-29.316-4.016-6.785,5.743-9.7-19.081-32.225h-46.256Zm67.257,35.468-3.823,6.458,2.1,3.544,3.824-6.459Zm85.579-52.563h0l-3.37,5.693,4.272,7.22-5.337,9.015,18.825,31.8h46.247l23.1-39.014-14.687-24.8-12.5,21.116H1927.44l-6.526-11.023Zm-66.3,20h0l-12.432,21,6.459,10.908h46.249l12.432-20.993-6.463-10.92h-46.244Zm-16.009-29.154h0l-13.063,22.066,14.718,24.852,12.473-21.068h50.017l6.495,10.974,3.4-5.743-4.271-7.218,5.337-9.017-2.813-4.751-8.149,13.768h-50.017l-14.128-23.863Zm77.023,18.085h0l-3.421,5.779,2.356,3.979,3.422-5.776-2.358-3.981Zm-66.988-35.036h0l-8.115,13.71,14.09,23.8h46.243l8.118-13.713-14.086-23.8h-46.249Zm164.765-42.373-16.452,27.789,5.565,9.4-6.649,11.227,17.536,29.619h46.255l23.091-39.018-23.091-39.016Zm-78.1,44.177h0l-12.463,21.05,6.494,10.972h46.244l12.468-21.057-6.494-10.966H1935.3Zm-164.771-47.854h0l-23.091,39.008,23.091,39.024h46.255l15.355-25.941-4.468-7.548,7.744-13.079-18.631-31.464Zm145.651,64.164-3.37,5.692,2.813,4.751,3.371-5.693Zm-69.434-21.415h50.024l14.116,23.854,3.37-5.691-11.866-20.047,9.689-16.369-3.73-6.3-11.029,18.629H1847.3l-5.61-9.48-2.438,4.116,4.467,7.545-7.744,13.083,2.619,4.423,8.148-13.764h0Zm71.574-22.3h0l-2.394,4.046,11.867,20.049-9.689,16.372,2.812,4.751,12.5-21.112h50.024l6.526,11.024,2.062-3.482-5.564-9.4,6.646-11.229-2.552-4.313-9.119,15.406h-50.025l-13.088-22.111Zm-4.318,7.3-7.766,13.12,9.945,16.8,7.766-13.121Zm81.026,6.961h0l-4.727,7.986,3.645,6.158,4.729-7.986-3.646-6.158Zm-157.693,0h0l-5.824,9.836,2.549,4.305,5.824-9.84-2.547-4.3Zm91.995-32.855h0l-9.088,15.354,13.056,22.045h46.253l9.082-15.343-13.059-22.056Zm-74.721,3.686h0l-11,18.569,5.573,9.417h46.26l10.986-18.569-5.577-9.419h-46.244Zm58.059,5.362h0l-2.395,4.045,3.729,6.3,2.4-4.045-3.729-6.3Zm-63.484-55.406h0l-23.092,39.01,15.6,26.361,11.038-18.638h50.017l5.609,9.476,2.395-4.046-4.392-7.418,7.787-13.148-18.7-31.6h-46.26Zm78.256,43.054h50.016l13.1,22.118,12.093-20.427L1987.8,1703.5l-10.344,17.469H1927.44l-6.367-10.758-3.086,5.212,4.392,7.419L1914.589,1736l3.73,6.3,9.12-15.408Zm-11.378-8.218h0l-5.868,9.908,2.473,4.176,5.865-9.911-2.469-4.173Zm96.927-74.4h0l-15.416,26.028,4.941,8.346-7.683,12.976,18.159,30.672h46.245l23.107-39.02-23.107-39h-46.245Zm-79.69,45.295h0l-10.3,17.393,6.333,10.7h46.244l10.3-17.4-6.328-10.69H1933.3Zm-3.968-49.94h0l-23.094,39.02,14.843,25.072,10.332-17.452h50.024l6.364,10.747,3.187-5.384-4.948-8.354,7.69-12.98-18.155-30.669Zm66.321,33.915-5.764,9.734,3.023,5.106,5.764-9.735-3.023-5.1Zm225.223,227.185H2170.85l-25.049-42.324,25.049-42.313h50.025l25.049,42.313-25.049,42.325Zm-48.137-81.334h0l-23.089,39.008,23.091,39.017H2219l23.091-39.017L2219,1819.4h-46.257Zm-111.2,80.584H2011.51l-25.047-42.31,25.047-42.322h50.027l25.049,42.322-25.049,42.31Zm-48.135-81.326h0l-23.1,39.015,23.1,39.008h46.255l23.091-39.009-23.091-39.015Zm-354.065,80.266H1609.31l-25.049-42.318,25.048-42.317h50.025l25.05,42.317-25.05,42.318h0Zm-48.145-81.329L1588.1,1856.6l23.091,39.016h46.255l23.091-39.017-23.091-39.01h-46.255Zm767.023,81.074h-50.026l-25.046-42.318,25.046-42.313h50.025l25.049,42.313-25.049,42.318Zm-48.145-81.332h0l-23.087,39.011,23.088,39.017h46.258l23.1-39.017-23.1-39.012H2330.07Zm209.609,80.585h-50.018l-25.049-42.327,25.049-42.308h50.018l25.046,42.308-25.046,42.327Zm-48.14-81.334h0l-23.094,39.007,23.095,39.026h46.252l23.1-39.026-23.1-39.007Zm-1151.014,79.519h-50.018l-25.045-42.3,25.045-42.319h50.018l25.049,42.319-25.049,42.3Zm-48.13-81.323-23.1,39.018,23.1,39h46.252l23.1-39-23.1-39.018h-46.252Zm1562.925,81.292H2805.3l-25.057-42.322,25.056-42.317h50.02l25.048,42.317-25.05,42.322Zm-48.137-81.338h0l-23.1,39.016,23.1,39.012h46.25l23.1-39.012-23.1-39.016Zm-108.716,81.338h-50.018l-25.053-42.322,25.053-42.317h50.018l25.055,42.317-25.055,42.322Zm-48.131-81.338h0l-23.1,39.016,23.1,39.012h46.254l23.093-39.012-23.092-39.016Zm-1468.6,79.534h-50.021l-25.055-42.322,25.054-42.316h50.02l25.052,42.315-25.052,42.322Zm-48.142-81.343h0l-23.094,39.018,23.1,39.02h46.25l23.1-39.021-23.1-39.018H1133.6Zm-108.716,81.342H993v-3.3h30l23.1-39.021-23.1-39.018H993v-3.3h31.882l25.057,42.315-25.057,42.322h0Zm1274.2-38.584h-50.025l-25.044-42.325,25.044-42.317h50.025l25.051,42.317-25.051,42.325Zm-48.135-81.338h0l-23.1,39.013,23.1,39.016H2297.2l23.094-39.016-23.094-39.013h-46.252Zm-108.714,81.338H2092.21l-25.054-42.325,25.054-42.317h50.02l25.054,42.317-25.054,42.325Zm-48.132-81.338-23.1,39.013,23.1,39.016h46.243l23.1-39.016-23.1-39.013Zm364.89,81.247-50.026,0-25.05-42.312,25.05-42.322h50.026l25.05,42.322-25.05,42.312h0Zm-48.143-81.324h0l-23.094,39.01,23.094,39.014h46.247l23.1-39.014-23.1-39.01h-46.247Zm-672.869,79.613-50.02,0-25.054-42.323,25.055-42.315h50.019l25.055,42.316-25.055,42.323h0Zm-48.132-81.344-23.1,39.019,23.1,39.017h46.245l23.095-39.017-23.095-39.02Zm-108.71,81.344h-50.027l-25.051-42.323,25.051-42.315h50.025l25.044,42.316-25.044,42.323Zm-48.144-81.344-23.094,39.019,23.094,39.017h46.253l23.1-39.017-23.1-39.02Zm1084.79,81.214h-50.028l-25.042-42.325,25.042-42.316h50.028l25.043,42.316-25.042,42.325Zm-48.143-81.341h0l-23.093,39.015,23.094,39.017h46.26l23.088-39.017L2615.9,1772.41Zm207.479,80.2h-50.024l-25.049-42.318,25.049-42.317h50.024l25.047,42.317-25.047,42.318Zm-48.139-81.334h0L2705.89,1810.3l23.086,39.016h46.26l23.1-39.017-23.1-39.016Zm-1307.752,80.635H1371.2L1346.15,1809.6l25.049-42.313h50.025l25.05,42.313-25.05,42.317Zm-48.13-81.326h0L1350,1809.6l23.1,39.011h46.245l23.095-39.01-23.095-39.008ZM2914,1850.135h-30.907l-25.057-42.317,25.057-42.322H2914v3.306h-29.03l-23.088,39.016,23.088,39.01H2914v3.306Zm-1651.566-.065h-50.029l-25.043-42.328,25.043-42.311h50.028l25.041,42.311-25.041,42.328Zm-48.146-81.337h0l-23.087,39.008,23.087,39.023h46.26l23.094-39.023-23.094-39.008Zm-111.2,80.026h-50.025l-25.047-42.324,25.047-42.313h50.025l25.049,42.313-25.049,42.324Zm-48.144-81.333h0l-23.1,39.008,23.1,39.023h46.26l23.086-39.023-23.086-39.008h-46.26Zm1165.926,44.8H2170.85l-25.049-42.318,25.049-42.316h50.025l25.049,42.315-25.049,42.318Zm-48.137-81.335h0l-23.089,39.015,23.091,39.013H2219l23.091-39.013L2219,1730.891h-46.257Zm364.941,80.4-50.026,0L2462.6,1768.97l25.057-42.309h50.025l25.049,42.309-25.049,42.321h0Zm-48.143-81.328h0l-23.1,39,23.1,39.019h46.252l23.1-39.019-23.1-39h-46.252ZM2376.87,1809.74h-50.019l-25.058-42.309,25.058-42.322h50.02l25.049,42.322-25.049,42.309Zm-48.137-81.331h0l-23.1,39.02,23.1,39.008h46.259l23.089-39.008-23.089-39.02h-46.259Zm367.735,81.032h-50.025l-25.051-42.317,25.051-42.315h50.023l25.047,42.315-25.046,42.317Zm-48.141-81.33h0l-23.094,39.012,23.095,39.015h46.251l23.1-39.015-23.1-39.012Zm-988.992,80.261H1609.31l-25.049-42.325,25.048-42.313h50.025l25.05,42.313-25.05,42.325Zm-48.144-81.339-23.091,39.013,23.091,39.017h46.255l23.091-39.017-23.091-39.013h-46.255ZM1502,1808.371h-50.025l-25.049-42.325,25.049-42.313H1502l25.044,42.313L1502,1808.371Zm-48.139-81.339-23.1,39.013,23.1,39.017h46.257l23.087-39.017-23.087-39.013h-46.257Zm1400.128,80.11h-50.027l-25.042-42.318,25.042-42.317h50.026l25.045,42.317-25.045,42.318h0Zm-48.141-81.332h0l-23.088,39.012,23.089,39.02H2852.1l23.091-39.02-23.091-39.012Zm-1464.762,79.753h-50.017l-25.057-42.329,25.057-42.313h50.017l25.053,42.313-25.053,42.329Zm-48.139-81.339-23.087,39.01,23.087,39.023h46.26l23.1-39.023-23.1-39.01h-46.26Zm-108.6,79.48h-50.025l-25.048-42.315,25.049-42.316h50.026l25.046,42.317-25.046,42.315Zm-48.139-81.323-23.089,39.008,23.089,39.01h46.258l23.088-39.01-23.088-39.008ZM1024.4,1803.7H993V1800.4h29.519l23.1-39.01-23.1-39.008H993v-3.309h31.4l25.056,42.317L1024.4,1803.7Zm1115.823-34.649H2090.2l-25.049-42.326,25.049-42.313h50.027l25.049,42.313-25.049,42.326Zm-48.137-81.338h0l-23.1,39.011,23.1,39.021h46.249l23.1-39.021-23.1-39.012Zm364.625,80.723-50.02,0-25.064-42.325L2406.7,1683.8h50.018l25.044,42.309-25.044,42.325h0Zm-48.143-81.335h0l-23.094,39.008,23.094,39.021h46.259l23.091-39.021-23.091-39.008h-46.259Zm-110.827,79.648h-50.027l-25.041-42.322,25.041-42.314h50.027l25.048,42.314-25.049,42.322h0Zm-48.138-81.333h0l-23.09,39.011,23.09,39.018h46.242l23.1-39.018-23.1-39.012h-46.242Zm367.754,80.574h-50.019l-25.059-42.321,25.059-42.313h50.019l25.047,42.313-25.047,42.32Zm-48.13-81.327-23.107,39.006,23.106,39.016h46.251l23.094-39.016-23.094-39.006h-46.251Zm205.8,78.8-50.019,0-25.046-42.324,25.046-42.317h50.018l25.056,42.317-25.056,42.324h0Zm-48.139-81.341h0l-23.09,39.015,23.09,39.013h46.253l23.1-39.013-23.1-39.016Zm-986.3,81.188h-50.028L1665.516,1721l25.05-42.318h50.026l25.05,42.318-25.05,42.312Zm-48.139-81.324h0l-23.1,39.009,23.1,39.008H1738.7L1761.794,1721l-23.092-39.009h-46.247Zm-111.811,81.323h-50.026L1505.569,1721l25.049-42.318h50.024L1605.7,1721l-25.058,42.312Zm-48.138-81.323h0L1509.416,1721l23.091,39.008h46.256l23.1-39.009-23.1-39.009Zm-111.283,79.368H1371.2l-25.049-42.317,25.049-42.325h50.025l25.05,42.325-25.05,42.317Zm-48.13-81.338-23.1,39.021,23.1,39.008h46.245l23.095-39.008-23.095-39.021Zm-270,80.233h-50.026l-25.047-42.329,25.047-42.308h50.025l25.049,42.308-25.049,42.329h0Zm-48.146-81.337h0l-23.1,39.007,23.1,39.018h46.26l23.086-39.018-23.086-39.007h-46.26Zm207.484,80.588h-50.028l-25.043-42.316,25.043-42.319h50.028l25.041,42.319-25.041,42.316Zm-48.144-81.331h0L1191.2,1717.19l23.087,39.009h46.26l23.094-39.01-23.094-39.014Zm1004.507,44.9h-50.018l-25.056-42.32,25.056-42.321H2218.8l25.053,42.321-25.053,42.32Zm-48.139-81.337-23.089,39.016,23.089,39.011h46.251l23.105-39.011-23.105-39.016Zm207.814,79.35h-50.024l-25.057-42.326,25.057-42.312h50.024l25.046,42.312-25.046,42.325Zm-48.139-81.331h0l-23.1,39,23.1,39.017h46.259l23.092-39.017-23.092-39h-46.259Zm205.029,81.33h-50.027l-25.055-42.326,25.055-42.312h50.027l25.049,42.312-25.049,42.325h0Zm-48.137-81.331h0l-23.1,39,23.1,39.017h46.254l23.091-39.017-23.091-39h-46.254Zm208.64,81.295h-50.025l-25.046-42.322,25.046-42.309h50.024l25.05,42.309-25.05,42.321Zm-48.137-81.331h0l-23.1,39.007,23.1,39.017h46.251l23.087-39.016-23.087-39.008h-46.251Zm-988.392,80.141H1609.31l-25.049-42.324,25.048-42.315h50.025l25.05,42.315-25.05,42.324Zm-48.144-81.334-23.091,39.01,23.091,39.014h46.255l23.091-39.014-23.091-39.01h-46.255Zm207.483,80.583h-50.024L1743.6,1676.8l25.049-42.321h50.024l25.05,42.321-25.05,42.309Zm-48.143-81.326h0l-23.091,39.017,23.091,39.008h46.255l23.1-39.008-23.1-39.017ZM1502,1717.8h-50.027l-25.049-42.317,25.049-42.315H1502l25.044,42.315L1502,1717.8Zm-48.141-81.332h0l-23.1,39.013,23.1,39.015h46.257l23.087-39.015-23.087-39.013Zm-113.333,80.585-50.019,0-25.045-42.327,25.045-42.308h50.018l25.049,42.308-25.049,42.326h0Zm-48.131-81.335h0l-23.1,39.006,23.1,39.026h46.252l23.1-39.025-23.1-39.007Zm-110.655,79.486h-50.021l-25.055-42.321,25.054-42.317h50.02l25.052,42.317-25.052,42.321Zm-48.142-81.339h0l-23.094,39.015,23.1,39.013h46.25l23.1-39.013-23.1-39.015H1133.6Zm-108.716,81.339-31.882,0V1711.9h30l23.1-39.013-23.1-39.015H993v-3.3h31.882l25.057,42.317-25.057,42.321h0Zm1114.738-34.541H2089.6l-25.056-42.324,25.056-42.31h50.017l25.051,42.309-25.051,42.324h0Zm-48.13-81.331h0l-23.1,39,23.1,39.019h46.24l23.1-39.019-23.1-39H2091.49Zm206.434,78.55H2247.9l-25.047-42.306,25.049-42.317h50.025l25.049,42.317-25.049,42.306h0Zm-48.138-81.324h0l-23.092,39.015,23.092,39h46.249l23.1-39-23.1-39.016h-46.25Zm-353.014,80.1h-50.025l-25.049-42.322,25.049-42.31h50.026l25.043,42.309-25.043,42.322Zm-48.136-81.331h0l-23.1,39.008,23.1,39.015h46.249l23.1-39.016-23.1-39.008h-46.249Zm764.928,80.716h-50.018l-25.057-42.322,25.057-42.317h50.018l25.05,42.317-25.05,42.322Zm-48.135-81.338h0l-23.1,39.015,23.1,39.017h46.251l23.086-39.017-23.086-39.015Zm-108.714,81.338H2406.7l-25.057-42.322,25.058-42.317h50.018l25.044,42.317-25.044,42.322Zm-48.135-81.339h0l-23.094,39.015,23.1,39.017h46.245l23.1-39.017-23.1-39.015h-46.246Zm-670.6,80.108h-50.019L1662.9,1632.49l25.055-42.317h50.019l25.055,42.317-25.055,42.325Zm-48.13-81.338h0l-23.1,39.011,23.1,39.017h46.245l23.095-39.016-23.095-39.012Zm-108.713,81.338h-50.025l-25.051-42.325,25.051-42.317h50.025l25.044,42.317-25.044,42.325Zm-48.142-81.338h0L1509.9,1632.49l23.094,39.017h46.253l23.1-39.016-23.1-39.012Zm-111.764,81.247H1371.2l-25.049-42.315,25.049-42.319h50.025l25.05,42.32-25.05,42.315Zm-48.132-81.323h0l-23.1,39.006,23.1,39.017h46.245l23.095-39.017-23.095-39.007Zm-110.66,79.481h-50.028l-25.043-42.327,25.043-42.314h50.028l25.041,42.314-25.041,42.327h0Zm-48.145-81.341h0l-23.087,39.014,23.087,39.018h46.26l23.094-39.018-23.094-39.014Zm-111.2,80.2h-50.025l-25.047-42.318,25.047-42.317h50.025l25.049,42.317-25.049,42.318Zm-48.144-81.335h0l-23.1,39.015,23.1,39.017h46.26l23.086-39.017-23.086-39.015h-46.26Zm1002.889,45.775h-50.017l-15.725-26.571-14.64,24.724H1927.44l-25.049-42.321,25.048-42.317h50.017l15.729,26.565,14.636-24.728h50.017l25.057,42.325-25.057,42.322Zm-48.136-81.343h0l-14.6,24.664,7.407,12.51-8.5,14.354,15.687,26.5h46.259l23.089-39.012-23.089-39.02H2009.7Zm-80.372-1.831h0l-23.094,39.005,23.094,39.016h46.244l14.6-24.662-7.4-12.508,8.5-14.353-15.692-26.5Zm63.856,29.739h0l-6.575,11.112,5.484,9.265,6.579-11.11-5.488-9.266Zm224.035,50.942H2167.2l-25.049-42.323,25.049-42.313h50.018l25.05,42.313-25.05,42.323Zm-48.128-81.331h0l-23.1,39.007,23.1,39.017h46.24l23.105-39.016-23.105-39.007Zm-350.42,80.127h-50.024l-25.049-42.319,25.049-42.322h50.024l25.05,42.322-25.05,42.319Zm-48.143-81.336h0l-23.091,39.017,23.091,39.014h46.255l23.1-39.014-23.1-39.016H1770.53Zm605.492,80.694h-50.028l-25.04-42.326,25.041-42.311h50.025l25.05,42.311-25.05,42.327Zm-48.142-81.338h0l-23.1,39.009,23.1,39.021h46.253l23.09-39.021-23.09-39.01H2327.88Zm-668.545,80.847-50.026,0-25.049-42.317,25.048-42.318h50.025l25.05,42.318-25.05,42.317h0Zm-48.145-81.335-23.091,39.016,23.091,39.012h46.255l23.091-39.012-23.091-39.016h-46.255Zm924.169,80.514h-50.026l-25.055-42.323,25.055-42.313h50.027l25.049,42.313-25.049,42.323Zm-48.136-81.334h0l-23.1,39.009,23.1,39.023h46.254l23.091-39.023-23.091-39.01h-46.254Zm205.473,81.333h-50.024l-25.045-42.323,25.045-42.313H2692.7l25.051,42.313-25.051,42.323Zm-48.144-81.334-23.1,39.011,23.1,39.023h46.26l23.087-39.023-23.087-39.01h-46.26Zm-1302.021,81.221h-50.025l-25.049-42.32,25.048-42.312h50.025l25.057,42.312-25.057,42.32ZM1294.4,1549.1l-23.1,39,23.1,39.02h46.251l23.1-39.02-23.1-39H1294.4Zm208.936,79.775h-50.019l-25.049-42.311,25.048-42.32h50.02l25.058,42.32-25.058,42.311Zm-48.142-81.332h0l-23.085,39.019,23.086,39.008h46.26l23.1-39.009-23.1-39.019h-46.26Zm-271.45,81.03h-50.024l-25.046-42.317,25.046-42.313h50.024l25.05,42.313-25.05,42.317Zm-48.135-81.331-23.1,39.013,23.1,39.017h46.252l23.094-39.017-23.094-39.013Zm-109.379,79.034H993v-3.3h31.34l23.087-39.02-23.087-39.012H993v-3.305h33.228l25.04,42.317-25.04,42.318h0Zm1110.747-35.6h-50.025l-25.046-42.333,25.046-42.307h50.026l25.047,42.307-25.047,42.333Zm-48.145-81.339-23.09,39.006,23.09,39.024h46.26l23.095-39.024-23.095-39.006Zm-190.052,80.7h-50.028l-25.049-42.321,25.049-42.311h50.026l25.053,42.311-25.053,42.321Zm-48.144-81.332-23.094,39.01,23.094,39.012h46.253l23.1-39.012-23.1-39.009Zm-110.65,79.482h-50.025l-25.05-42.324,25.05-42.313h50.025l25.049,42.313-25.049,42.324Zm-48.139-81.338h0l-23.1,39.012,23.1,39.019h46.249l23.1-39.019-23.1-39.012h-46.249Zm-268.355,80.723h-50.018l-25.046-42.324,25.046-42.31h50.017l25.065,42.31-25.064,42.324Zm-48.136-81.333-23.091,39.008,23.091,39.019h46.259l23.094-39.019-23.095-39.008h-46.258Zm922.012,81.1h-50.025l-25.05-42.324,25.05-42.314h50.025l25.045,42.314-25.045,42.324ZM2249.225,1506h0l-23.094,39.008,23.1,39.023h46.251l23.095-39.023-23.095-39.008h-46.252Zm-666.759,79.881H1532.44l-25.048-42.323,25.048-42.312h50.026l25.042,42.312-25.043,42.323Zm-48.13-81.334h0l-23.1,39.011,23.1,39.021h46.242l23.091-39.021-23.091-39.011Zm919.769,80.932h-50.026l-25.049-42.313,25.049-42.317H2454.1l25.05,42.317-25.05,42.313Zm-48.149-81.323h0l-23.085,39.008,23.085,39.008h46.261l23.1-39.008-23.1-39.008Zm208.095,81.322h-50.025l-25.056-42.313,25.056-42.317h50.026l25.05,42.317-25.05,42.313Zm-48.136-81.323h0l-23.1,39.008,23.105,39.008h46.247l23.092-39.008-23.092-39.008h-46.247Zm-1303.072,80.968h-50.018l-25.047-42.321,25.047-42.313h50.019l25.06,42.313-25.06,42.321ZM1214.7,1503.8l-23.095,39.006,23.095,39.015h46.251l23.105-39.016-23.105-39.006Zm-109.533,78.8h-50.019l-25.057-42.324,25.057-42.317h50.018l25.045,42.317-25.045,42.324Zm-48.133-81.34h0l-23.1,39.015,23.1,39.013h46.253l23.091-39.013-23.091-39.016h-46.253Zm1001.289,44.356h-50.018l-25.063-42.31,25.063-42.318h50.018l25.05,42.318-25.05,42.31Zm-48.137-81.327h0l-23.1,39.016,23.1,39.008h46.249l23.1-39.008-23.1-39.016Zm-191.107,80.446h-50.019l-25.046-42.32,25.046-42.307h50.017l25.064,42.307-25.064,42.32Zm-48.131-81.329h0l-23.1,39.006,23.106,39.019H1817.2l23.1-39.019-23.1-39.006h-46.246Zm446.271,79.735H2167.2l-25.049-42.321,25.049-42.328h50.018l25.05,42.328-25.05,42.321Zm-48.128-81.341-23.1,39.02,23.1,39.01h46.24l23.105-39.01-23.105-39.02h-46.24Zm-507.687,80.409h-50.018l-25.054-42.321,25.054-42.32h50.017l25.057,42.32-25.057,42.321Zm-48.13-81.338h0l-23.105,39.016,23.106,39.012h46.251l23.089-39.012-23.089-39.016Zm922.085,81.163h-50.027l-25.055-42.328,25.055-42.308h50.027l25.049,42.308-25.049,42.328h0Zm-48.137-81.339h0l-23.1,39.008,23.1,39.017h46.254l23.091-39.017-23.091-39.008h-46.254Zm-111.2,80.585h-50.025l-25.04-42.315,25.041-42.315h50.025l25.05,42.315-25.05,42.315Zm-48.139-81.327h0l-23.1,39.011,23.1,39.012h46.253l23.09-39.012-23.09-39.012H2327.88Zm-826.142,80.271-50.026,0-25.047-42.327,25.047-42.313h50.026L1526.8,1497.9l-25.057,42.327h0Zm-48.145-81.332h0l-23.091,39,23.091,39.018h46.26l23.1-39.018-23.1-39Zm-108.741,81.331h-50.026l-25.051-42.327,25.051-42.313h50.026l25.055,42.313-25.055,42.327Zm-48.145-81.331h0l-23.092,39,23.093,39.018h46.254l23.1-39.018-23.1-39Zm-112.36,81.294h-50.027l-25.048-42.322,25.049-42.31h50.026l25.046,42.309-25.046,42.322Zm-48.141-81.331h0l-23.089,39.009,23.089,39.016h46.252l23.094-39.017-23.094-39.009Zm1556.49,81.119h-50.024l-25.045-42.322,25.045-42.317H2692.7l25.051,42.317-25.051,42.322Zm-48.144-81.339-23.1,39.017,23.1,39.012h46.26l23.087-39.012-23.087-39.015h-46.26Zm-507.579,41.47h-50.026l-25.046-42.318,25.046-42.317h50.026l25.047,42.317-25.047,42.318h0Zm-48.146-81.327h0l-23.09,39.008,23.09,39.017h46.26l23.095-39.017-23.095-39.008Zm-348.243,81.02h-50.02l-25.05-42.325,25.05-42.309h50.019l25.057,42.309-25.057,42.325Zm-48.131-81.331h0l-23.1,39,23.1,39.022h46.24l23.1-39.021-23.1-39h-46.24Zm605.469,80.365H2247.9l-25.047-42.324,25.049-42.311h50.025l25.049,42.311-25.049,42.324h0Zm-48.138-81.334h0l-23.092,39.008,23.092,39.02h46.249l23.1-39.02-23.1-39.008Zm-667.5,79.519-50.026,0-25.049-42.306,25.049-42.317h50.027l25.047,42.317-25.047,42.306h0Zm-48.138-81.323h0l-23.1,39.015,23.1,39H1580.4l23.092-39-23.092-39.016Zm922.565,81.29-50.02,0-25.057-42.321,25.058-42.316h50.018l25.044,42.316-25.044,42.321h0Zm-48.136-81.339h0l-23.094,39.015,23.1,39.017h46.245l23.1-39.017-23.1-39.016h-46.246Zm204.986,81.338h-50.019l-25.057-42.321,25.057-42.316h50.018l25.05,42.316-25.05,42.321Zm-48.137-81.337h0l-23.1,39.015,23.1,39.017h46.251l23.086-39.017-23.086-39.016ZM1266.641,1495.18l-50.019,0-25.05-42.321,25.05-42.317h50.018l25.056,42.317-25.056,42.322h0Zm-48.135-81.34h0l-23.087,39.016,23.089,39.016h46.251l23.1-39.016-23.1-39.016h-46.251Zm204.984,81.34h-50.018l-25.046-42.321,25.046-42.317h50.017l25.057,42.317-25.057,42.322Zm-48.13-81.339h0l-23.1,39.016,23.1,39.016h46.246l23.1-39.016-23.1-39.016H1375.36Zm682.478,43.277h-50.017l-25.05-42.322,25.05-42.32h50.017l25.057,42.32-25.057,42.322Zm-48.136-81.334h0l-23.091,39.012,23.091,39.015h46.259l23.089-39.016-23.089-39.012H2009.7Zm207.523,80.72H2167.2l-25.049-42.316,25.049-42.318h50.018l25.05,42.318-25.05,42.316Zm-48.132-81.323h0l-23.1,39.006,23.1,39.014h46.24l23.105-39.014-23.105-39.006Zm-346.73,80.136h-50.016L1747.29,1413l25.057-42.325h50.017l25.05,42.325-25.05,42.319Zm-48.139-81.34h0L1751.136,1413l23.089,39.012h46.259L1843.574,1413l-23.091-39.021h-46.258Zm-111.243,78.849h-50.018l-25.05-42.322,25.05-42.313h50.018l25.049,42.313-25.049,42.322Zm-48.129-81.33h0l-23.106,39.008,23.107,39.016h46.239l23.1-39.017-23.1-39.008Zm-110.662,79.486h-50.025l-25.051-42.329,25.051-42.309h50.025l25.041,42.309-25.041,42.329Zm-48.139-81.338h0l-23.089,39.007,23.089,39.025h46.253l23.1-39.025-23.1-39.007h-46.253Zm-111.2,80.028h-50.026l-25.051-42.325,25.051-42.312h50.026l25.055,42.312-25.055,42.325Zm-48.146-81.336h0l-23.092,39.008,23.093,39.024h46.254l23.1-39.024-23.1-39.009h-46.254Zm-109.193,81.336h-50.026l-25.049-42.325,25.049-42.312h50.024l25.047,42.312-25.047,42.325Zm-48.142-81.336h0l-23.087,39.008,23.087,39.024h46.26l23.1-39.024-23.1-39.009h-46.26Zm603.866,41.475h-50.027l-25.047-42.333,25.047-42.306h50.027l25.045,42.306-25.045,42.333Zm-48.14-81.34h0L1672,1367.476,1695.1,1406.5h46.257l23.093-39.024-23.092-39.006H1695.1Zm-112.254,78h-50.025l-25.045-42.324,25.045-42.315h50.025l25.049,42.315-25.049,42.324Zm-48.135-81.334h0l-23.094,39.009,23.095,39.022h46.251l23.095-39.022-23.095-39.01Zm-268.547,79.479h-50.027l-25.049-42.313,25.049-42.317h50.027l25.054,42.317-25.054,42.313h0Zm-48.14-81.324h0l-23.09,39.008,23.092,39.008h46.248l23.105-39.009-23.105-39.008h-46.249Zm208.085,81.324h-50.025l-25.05-42.313,25.05-42.317h50.024l25.05,42.317-25.05,42.313Zm-48.138-81.323h0l-23.1,39.008,23.1,39.008h46.261l23.086-39.009-23.086-39.008Zm443.909,41.457h-50.018l-25.05-42.309,25.05-42.318h50.018l25.064,42.318-25.064,42.309Zm-48.13-81.327-23.1,39.017,23.1,39.008H1820l23.1-39.008-23.1-39.017h-46.249Zm-110.764,78.854h-50.021l-25.05-42.32,25.05-42.328h50.018l25.049,42.328-25.049,42.32Zm-48.131-81.341h0l-23.106,39.019,23.107,39.008h46.239l23.1-39.008-23.1-39.019Zm-270,80.232h-50.025l-25.051-42.329,25.051-42.311h50.026l25.055,42.311-25.055,42.329Zm-48.144-81.338h0l-23.092,39.008,23.093,39.016h46.254l23.1-39.016-23.1-39.008Zm207.483,80.583h-50.024l-25.051-42.314,25.051-42.317h50.025l25.041,42.317-25.041,42.314h0Zm-48.138-81.327h0l-23.089,39.012,23.089,39.013h46.253l23.1-39.013-23.1-39.012Zm-268.54,80.02h-50.024l-25.049-42.321,25.049-42.317h50.024l25.047,42.317-25.047,42.321Zm-48.14-81.338h0l-23.087,39.016,23.087,39.012h46.26l23.1-39.012-23.1-39.016Zm603.865,41.47h-50.027l-25.047-42.318,25.047-42.317h50.027l25.045,42.317-25.045,42.318Zm-48.139-81.327h0L1672,1276.919l23.095,39.016h46.257l23.093-39.016-23.092-39.009Zm-112.81,80.053h-50.026l-25.049-42.324,25.049-42.311h50.027l25.047,42.311-25.047,42.324Zm-48.138-81.333h0l-23.1,39.008,23.1,39.019H1580.4l23.092-39.019L1580.4,1236.63h-46.249Zm-267.51,79.485h-50.019l-25.05-42.32,25.05-42.317h50.018l25.056,42.317-25.056,42.32h0Zm-48.135-81.338h0l-23.087,39.015,23.089,39.017h46.251l23.1-39.016-23.1-39.016h-46.251Zm204.984,81.338h-50.018l-25.046-42.32,25.046-42.317h50.017l25.057,42.317-25.057,42.32Zm-48.13-81.338h0l-23.1,39.015,23.1,39.017h46.246l23.1-39.016-23.1-39.016H1375.36Zm447,41.473h-50.016l-25.057-42.321,25.057-42.322h50.017l25.05,42.322-25.05,42.321Zm-48.139-81.334-23.089,39.012,23.089,39.016h46.259l23.091-39.016-23.091-39.012h-46.258Zm-111.24,80.719h-50.021l-25.05-42.317,25.05-42.317h50.018l25.049,42.317-25.049,42.317Zm-48.131-81.324h0l-23.106,39,23.107,39.017h46.239l23.1-39.017-23.1-39.005Z" transform="translate(-992.5 -1190.5)"/></svg>